<mxfile host="app.diagrams.net" modified="2023-10-26T09:00:31.425Z" agent="Mozilla/5.0 (Windows NT 10.0; Win64; x64) AppleWebKit/537.36 (KHTML, like Gecko) Chrome/118.0.0.0 Safari/537.36" etag="I7Rg2511caFylsSfUTRD" version="21.6.8" type="github">
  <diagram id="prtHgNgQTEPvFCAcTncT" name="Page-1">
    <mxGraphModel dx="1647" dy="861" grid="1" gridSize="10" guides="1" tooltips="1" connect="1" arrows="1" fold="1" page="1" pageScale="1" pageWidth="827" pageHeight="1169" math="0" shadow="0">
      <root>
        <mxCell id="0" />
        <mxCell id="1" parent="0" />
        <mxCell id="dNxyNK7c78bLwvsdeMH5-19" value="Pool" style="swimlane;html=1;childLayout=stackLayout;resizeParent=1;resizeParentMax=0;horizontal=0;startSize=20;horizontalStack=0;" parent="1" vertex="1">
          <mxGeometry x="120" y="115" width="670" height="1090" as="geometry" />
        </mxCell>
        <mxCell id="dNxyNK7c78bLwvsdeMH5-20" value="预处理" style="swimlane;html=1;startSize=20;horizontal=0;" parent="dNxyNK7c78bLwvsdeMH5-19" vertex="1">
          <mxGeometry x="20" width="650" height="220" as="geometry" />
        </mxCell>
        <mxCell id="dNxyNK7c78bLwvsdeMH5-25" value="" style="edgeStyle=orthogonalEdgeStyle;rounded=0;orthogonalLoop=1;jettySize=auto;html=1;" parent="dNxyNK7c78bLwvsdeMH5-20" source="dNxyNK7c78bLwvsdeMH5-23" target="dNxyNK7c78bLwvsdeMH5-24" edge="1">
          <mxGeometry relative="1" as="geometry" />
        </mxCell>
        <mxCell id="dNxyNK7c78bLwvsdeMH5-23" value="入参" style="ellipse;whiteSpace=wrap;html=1;" parent="dNxyNK7c78bLwvsdeMH5-20" vertex="1">
          <mxGeometry x="40" y="40" width="40" height="40" as="geometry" />
        </mxCell>
        <mxCell id="-cebcLP_ofucCbTsJ22k-3" value="" style="edgeStyle=orthogonalEdgeStyle;rounded=0;orthogonalLoop=1;jettySize=auto;html=1;entryX=0;entryY=0.5;entryDx=0;entryDy=0;" parent="dNxyNK7c78bLwvsdeMH5-20" source="dNxyNK7c78bLwvsdeMH5-24" target="-cebcLP_ofucCbTsJ22k-4" edge="1">
          <mxGeometry relative="1" as="geometry">
            <mxPoint x="240" y="60" as="targetPoint" />
          </mxGeometry>
        </mxCell>
        <mxCell id="dNxyNK7c78bLwvsdeMH5-24" value="尝试给空路区分一个没有排班的机动人员&lt;br&gt;（根据熟悉度）" style="rounded=0;whiteSpace=wrap;html=1;fontFamily=Helvetica;fontSize=12;fontColor=#000000;align=center;" parent="dNxyNK7c78bLwvsdeMH5-20" vertex="1">
          <mxGeometry x="120" y="30" width="116" height="60" as="geometry" />
        </mxCell>
        <mxCell id="-cebcLP_ofucCbTsJ22k-6" value="" style="edgeStyle=orthogonalEdgeStyle;rounded=0;orthogonalLoop=1;jettySize=auto;html=1;" parent="dNxyNK7c78bLwvsdeMH5-20" source="-cebcLP_ofucCbTsJ22k-4" target="-cebcLP_ofucCbTsJ22k-5" edge="1">
          <mxGeometry relative="1" as="geometry" />
        </mxCell>
        <mxCell id="-cebcLP_ofucCbTsJ22k-4" value="预处理后的人与路区关系" style="shape=document;whiteSpace=wrap;html=1;boundedLbl=1;" parent="dNxyNK7c78bLwvsdeMH5-20" vertex="1">
          <mxGeometry x="274" y="35" width="140" height="50" as="geometry" />
        </mxCell>
        <mxCell id="-cebcLP_ofucCbTsJ22k-11" style="edgeStyle=orthogonalEdgeStyle;rounded=0;orthogonalLoop=1;jettySize=auto;html=1;" parent="dNxyNK7c78bLwvsdeMH5-20" source="-cebcLP_ofucCbTsJ22k-5" target="-cebcLP_ofucCbTsJ22k-7" edge="1">
          <mxGeometry relative="1" as="geometry" />
        </mxCell>
        <mxCell id="-cebcLP_ofucCbTsJ22k-12" value="" style="edgeStyle=orthogonalEdgeStyle;rounded=0;orthogonalLoop=1;jettySize=auto;html=1;" parent="dNxyNK7c78bLwvsdeMH5-20" source="-cebcLP_ofucCbTsJ22k-5" target="-cebcLP_ofucCbTsJ22k-8" edge="1">
          <mxGeometry relative="1" as="geometry" />
        </mxCell>
        <mxCell id="-cebcLP_ofucCbTsJ22k-13" style="edgeStyle=orthogonalEdgeStyle;rounded=0;orthogonalLoop=1;jettySize=auto;html=1;entryX=0.5;entryY=0;entryDx=0;entryDy=0;" parent="dNxyNK7c78bLwvsdeMH5-20" source="-cebcLP_ofucCbTsJ22k-5" target="-cebcLP_ofucCbTsJ22k-9" edge="1">
          <mxGeometry relative="1" as="geometry" />
        </mxCell>
        <mxCell id="-cebcLP_ofucCbTsJ22k-5" value="" style="rhombus;whiteSpace=wrap;html=1;" parent="dNxyNK7c78bLwvsdeMH5-20" vertex="1">
          <mxGeometry x="304" y="100" width="80" height="30" as="geometry" />
        </mxCell>
        <mxCell id="-cebcLP_ofucCbTsJ22k-7" value="m&amp;gt;n" style="rounded=0;whiteSpace=wrap;html=1;" parent="dNxyNK7c78bLwvsdeMH5-20" vertex="1">
          <mxGeometry x="110" y="160" width="110" height="40" as="geometry" />
        </mxCell>
        <mxCell id="-cebcLP_ofucCbTsJ22k-8" value="m=n" style="rounded=0;whiteSpace=wrap;html=1;" parent="dNxyNK7c78bLwvsdeMH5-20" vertex="1">
          <mxGeometry x="284" y="160" width="120" height="40" as="geometry" />
        </mxCell>
        <mxCell id="-cebcLP_ofucCbTsJ22k-23" style="edgeStyle=orthogonalEdgeStyle;rounded=0;orthogonalLoop=1;jettySize=auto;html=1;" parent="dNxyNK7c78bLwvsdeMH5-20" source="-cebcLP_ofucCbTsJ22k-9" edge="1">
          <mxGeometry relative="1" as="geometry">
            <mxPoint x="515" y="605" as="targetPoint" />
          </mxGeometry>
        </mxCell>
        <mxCell id="-cebcLP_ofucCbTsJ22k-9" value="m&amp;lt;n" style="rounded=0;whiteSpace=wrap;html=1;" parent="dNxyNK7c78bLwvsdeMH5-20" vertex="1">
          <mxGeometry x="460" y="160" width="110" height="40" as="geometry" />
        </mxCell>
        <mxCell id="dNxyNK7c78bLwvsdeMH5-21" value="分人" style="swimlane;html=1;startSize=20;horizontal=0;" parent="dNxyNK7c78bLwvsdeMH5-19" vertex="1">
          <mxGeometry x="20" y="220" width="650" height="340" as="geometry" />
        </mxCell>
        <mxCell id="-cebcLP_ofucCbTsJ22k-18" style="edgeStyle=orthogonalEdgeStyle;rounded=0;orthogonalLoop=1;jettySize=auto;html=1;" parent="dNxyNK7c78bLwvsdeMH5-21" source="dNxyNK7c78bLwvsdeMH5-26" target="-cebcLP_ofucCbTsJ22k-16" edge="1">
          <mxGeometry relative="1" as="geometry" />
        </mxCell>
        <mxCell id="dNxyNK7c78bLwvsdeMH5-26" value="计算供需缺口=&lt;br&gt;（派需+揽需）-（派供+揽供）&amp;nbsp;&lt;br&gt;" style="rounded=0;whiteSpace=wrap;html=1;fontFamily=Helvetica;fontSize=12;fontColor=#000000;align=center;" parent="dNxyNK7c78bLwvsdeMH5-21" vertex="1">
          <mxGeometry x="80" y="65" width="170" height="95" as="geometry" />
        </mxCell>
        <mxCell id="-cebcLP_ofucCbTsJ22k-16" value="综合考虑熟悉度和缺口给路区分一个机动人员，直到机动人员耗尽" style="rounded=0;whiteSpace=wrap;html=1;" parent="dNxyNK7c78bLwvsdeMH5-21" vertex="1">
          <mxGeometry x="100" y="205" width="130" height="65" as="geometry" />
        </mxCell>
        <mxCell id="-cebcLP_ofucCbTsJ22k-14" style="edgeStyle=orthogonalEdgeStyle;rounded=0;orthogonalLoop=1;jettySize=auto;html=1;entryX=0.5;entryY=0;entryDx=0;entryDy=0;" parent="dNxyNK7c78bLwvsdeMH5-19" source="-cebcLP_ofucCbTsJ22k-7" target="dNxyNK7c78bLwvsdeMH5-26" edge="1">
          <mxGeometry relative="1" as="geometry" />
        </mxCell>
        <mxCell id="-cebcLP_ofucCbTsJ22k-19" style="edgeStyle=orthogonalEdgeStyle;rounded=0;orthogonalLoop=1;jettySize=auto;html=1;entryX=0.5;entryY=0;entryDx=0;entryDy=0;" parent="dNxyNK7c78bLwvsdeMH5-19" source="-cebcLP_ofucCbTsJ22k-8" target="-cebcLP_ofucCbTsJ22k-20" edge="1">
          <mxGeometry relative="1" as="geometry">
            <mxPoint x="364" y="585" as="targetPoint" />
          </mxGeometry>
        </mxCell>
        <mxCell id="-cebcLP_ofucCbTsJ22k-22" value="" style="edgeStyle=orthogonalEdgeStyle;rounded=0;orthogonalLoop=1;jettySize=auto;html=1;" parent="dNxyNK7c78bLwvsdeMH5-19" source="-cebcLP_ofucCbTsJ22k-16" target="-cebcLP_ofucCbTsJ22k-21" edge="1">
          <mxGeometry relative="1" as="geometry" />
        </mxCell>
        <mxCell id="dNxyNK7c78bLwvsdeMH5-22" value="分单" style="swimlane;html=1;startSize=20;horizontal=0;" parent="dNxyNK7c78bLwvsdeMH5-19" vertex="1">
          <mxGeometry x="20" y="560" width="650" height="530" as="geometry" />
        </mxCell>
        <mxCell id="-cebcLP_ofucCbTsJ22k-45" style="edgeStyle=orthogonalEdgeStyle;rounded=0;orthogonalLoop=1;jettySize=auto;html=1;entryX=0.5;entryY=0;entryDx=0;entryDy=0;" parent="dNxyNK7c78bLwvsdeMH5-22" source="-cebcLP_ofucCbTsJ22k-20" target="-cebcLP_ofucCbTsJ22k-32" edge="1">
          <mxGeometry relative="1" as="geometry" />
        </mxCell>
        <mxCell id="-cebcLP_ofucCbTsJ22k-20" value="将路区下所有aoi分派到配送员" style="rounded=0;whiteSpace=wrap;html=1;" parent="dNxyNK7c78bLwvsdeMH5-22" vertex="1">
          <mxGeometry x="284" y="45" width="120" height="85" as="geometry" />
        </mxCell>
        <mxCell id="-cebcLP_ofucCbTsJ22k-26" value="" style="edgeStyle=orthogonalEdgeStyle;rounded=0;orthogonalLoop=1;jettySize=auto;html=1;" parent="dNxyNK7c78bLwvsdeMH5-22" source="-cebcLP_ofucCbTsJ22k-21" target="-cebcLP_ofucCbTsJ22k-25" edge="1">
          <mxGeometry relative="1" as="geometry" />
        </mxCell>
        <mxCell id="-cebcLP_ofucCbTsJ22k-21" value="综合考虑熟悉度和缺口给将aoi分给一个机动人员，直到其运力耗尽，再分配给另一个人" style="rounded=0;whiteSpace=wrap;html=1;" parent="dNxyNK7c78bLwvsdeMH5-22" vertex="1">
          <mxGeometry x="100" y="45" width="130" height="85" as="geometry" />
        </mxCell>
        <mxCell id="-cebcLP_ofucCbTsJ22k-36" style="edgeStyle=orthogonalEdgeStyle;rounded=0;orthogonalLoop=1;jettySize=auto;html=1;entryX=0.5;entryY=0;entryDx=0;entryDy=0;" parent="dNxyNK7c78bLwvsdeMH5-22" source="-cebcLP_ofucCbTsJ22k-24" target="-cebcLP_ofucCbTsJ22k-35" edge="1">
          <mxGeometry relative="1" as="geometry" />
        </mxCell>
        <mxCell id="-cebcLP_ofucCbTsJ22k-24" value="寻找临近的路区内有运力缺口的可调度人员" style="rounded=0;whiteSpace=wrap;html=1;" parent="dNxyNK7c78bLwvsdeMH5-22" vertex="1">
          <mxGeometry x="450" y="45" width="130" height="85" as="geometry" />
        </mxCell>
        <mxCell id="-cebcLP_ofucCbTsJ22k-30" value="" style="edgeStyle=orthogonalEdgeStyle;rounded=0;orthogonalLoop=1;jettySize=auto;html=1;" parent="dNxyNK7c78bLwvsdeMH5-22" source="-cebcLP_ofucCbTsJ22k-25" target="-cebcLP_ofucCbTsJ22k-29" edge="1">
          <mxGeometry relative="1" as="geometry" />
        </mxCell>
        <mxCell id="-cebcLP_ofucCbTsJ22k-31" style="edgeStyle=orthogonalEdgeStyle;rounded=0;orthogonalLoop=1;jettySize=auto;html=1;entryX=0;entryY=0.5;entryDx=0;entryDy=0;" parent="dNxyNK7c78bLwvsdeMH5-22" source="-cebcLP_ofucCbTsJ22k-25" target="-cebcLP_ofucCbTsJ22k-32" edge="1">
          <mxGeometry relative="1" as="geometry">
            <mxPoint x="60" y="295" as="targetPoint" />
            <Array as="points">
              <mxPoint x="165" y="225" />
              <mxPoint x="60" y="225" />
              <mxPoint x="60" y="465" />
              <mxPoint x="290" y="465" />
              <mxPoint x="290" y="468" />
            </Array>
          </mxGeometry>
        </mxCell>
        <mxCell id="-cebcLP_ofucCbTsJ22k-25" value="爆单" style="rhombus;whiteSpace=wrap;html=1;rounded=0;" parent="dNxyNK7c78bLwvsdeMH5-22" vertex="1">
          <mxGeometry x="121.25" y="155" width="87.5" height="55" as="geometry" />
        </mxCell>
        <mxCell id="-cebcLP_ofucCbTsJ22k-33" value="" style="edgeStyle=orthogonalEdgeStyle;rounded=0;orthogonalLoop=1;jettySize=auto;html=1;exitX=0.5;exitY=1;exitDx=0;exitDy=0;" parent="dNxyNK7c78bLwvsdeMH5-22" source="-cebcLP_ofucCbTsJ22k-38" target="-cebcLP_ofucCbTsJ22k-32" edge="1">
          <mxGeometry relative="1" as="geometry">
            <Array as="points">
              <mxPoint x="165" y="375" />
              <mxPoint x="344" y="375" />
            </Array>
          </mxGeometry>
        </mxCell>
        <mxCell id="-cebcLP_ofucCbTsJ22k-29" value="若爆单，则超额部分取模分" style="whiteSpace=wrap;html=1;rounded=0;" parent="dNxyNK7c78bLwvsdeMH5-22" vertex="1">
          <mxGeometry x="107.5" y="265" width="115" height="43.75" as="geometry" />
        </mxCell>
        <mxCell id="-cebcLP_ofucCbTsJ22k-32" value="输出aoi与人关系" style="ellipse;whiteSpace=wrap;html=1;rounded=0;" parent="dNxyNK7c78bLwvsdeMH5-22" vertex="1">
          <mxGeometry x="306.5" y="435" width="75" height="65" as="geometry" />
        </mxCell>
        <mxCell id="-cebcLP_ofucCbTsJ22k-41" value="" style="edgeStyle=orthogonalEdgeStyle;rounded=0;orthogonalLoop=1;jettySize=auto;html=1;" parent="dNxyNK7c78bLwvsdeMH5-22" source="-cebcLP_ofucCbTsJ22k-35" target="-cebcLP_ofucCbTsJ22k-39" edge="1">
          <mxGeometry relative="1" as="geometry" />
        </mxCell>
        <mxCell id="-cebcLP_ofucCbTsJ22k-35" value="综合考虑熟悉度和人的运力缺口给人打分，给打分最高的可调度人员分配一个距离其最近的aoi，直到其运力耗尽，再分配给另一个人，直至aoi分派完" style="rounded=0;whiteSpace=wrap;html=1;" parent="dNxyNK7c78bLwvsdeMH5-22" vertex="1">
          <mxGeometry x="450" y="185" width="130" height="105" as="geometry" />
        </mxCell>
        <mxCell id="-cebcLP_ofucCbTsJ22k-37" value="爆单" style="rhombus;whiteSpace=wrap;html=1;rounded=0;" parent="dNxyNK7c78bLwvsdeMH5-22" vertex="1">
          <mxGeometry x="121.25" y="155" width="87.5" height="55" as="geometry" />
        </mxCell>
        <mxCell id="-cebcLP_ofucCbTsJ22k-38" value="若爆单，则超额部分取模分" style="whiteSpace=wrap;html=1;rounded=0;" parent="dNxyNK7c78bLwvsdeMH5-22" vertex="1">
          <mxGeometry x="107.5" y="265" width="115" height="43.75" as="geometry" />
        </mxCell>
        <mxCell id="-cebcLP_ofucCbTsJ22k-42" value="" style="edgeStyle=orthogonalEdgeStyle;rounded=0;orthogonalLoop=1;jettySize=auto;html=1;" parent="dNxyNK7c78bLwvsdeMH5-22" source="-cebcLP_ofucCbTsJ22k-39" target="-cebcLP_ofucCbTsJ22k-40" edge="1">
          <mxGeometry relative="1" as="geometry" />
        </mxCell>
        <mxCell id="-cebcLP_ofucCbTsJ22k-43" style="edgeStyle=orthogonalEdgeStyle;rounded=0;orthogonalLoop=1;jettySize=auto;html=1;" parent="dNxyNK7c78bLwvsdeMH5-22" source="-cebcLP_ofucCbTsJ22k-39" target="-cebcLP_ofucCbTsJ22k-32" edge="1">
          <mxGeometry relative="1" as="geometry">
            <Array as="points">
              <mxPoint x="344" y="378" />
            </Array>
          </mxGeometry>
        </mxCell>
        <mxCell id="-cebcLP_ofucCbTsJ22k-39" value="爆单" style="rhombus;whiteSpace=wrap;html=1;rounded=0;" parent="dNxyNK7c78bLwvsdeMH5-22" vertex="1">
          <mxGeometry x="471.25" y="350" width="87.5" height="55" as="geometry" />
        </mxCell>
        <mxCell id="-cebcLP_ofucCbTsJ22k-44" style="edgeStyle=orthogonalEdgeStyle;rounded=0;orthogonalLoop=1;jettySize=auto;html=1;entryX=1;entryY=0.5;entryDx=0;entryDy=0;" parent="dNxyNK7c78bLwvsdeMH5-22" source="-cebcLP_ofucCbTsJ22k-40" target="-cebcLP_ofucCbTsJ22k-32" edge="1">
          <mxGeometry relative="1" as="geometry" />
        </mxCell>
        <mxCell id="-cebcLP_ofucCbTsJ22k-40" value="若爆单，则超额部分取模分" style="whiteSpace=wrap;html=1;rounded=0;" parent="dNxyNK7c78bLwvsdeMH5-22" vertex="1">
          <mxGeometry x="458.75" y="445.63" width="112.5" height="43.75" as="geometry" />
        </mxCell>
        <mxCell id="qw4hLny3piVHDbjd1891-1" value="" style="shape=image;verticalLabelPosition=bottom;labelBackgroundColor=default;verticalAlign=top;aspect=fixed;imageAspect=0;image=data:image/jpeg,/9j/4AAQSkZJRgABAQAAAQABAAD/4gHYSUNDX1BST0ZJTEUAAQEAAAHIAAAAAAQwAABtbnRyUkdCIFhZWiAH4AABAAEAAAAAAABhY3NwAAAAAAAAAAAAAAAAAAAAAAAAAAAAAAAAAAAAAQAA9tYAAQAAAADTLQAAAAAAAAAAAAAAAAAAAAAAAAAAAAAAAAAAAAAAAAAAAAAAAAAAAAAAAAAAAAAAAAAAAAlkZXNjAAAA8AAAACRyWFlaAAABFAAAABRnWFlaAAABKAAAABRiWFlaAAABPAAAABR3dHB0AAABUAAAABRyVFJDAAABZAAAAChnVFJDAAABZAAAAChiVFJDAAABZAAAAChjcHJ0AAABjAAAADxtbHVjAAAAAAAAAAEAAAAMZW5VUwAAAAgAAAAcAHMAUgBHAEJYWVogAAAAAAAAb6IAADj1AAADkFhZWiAAAAAAAABimQAAt4UAABjaWFlaIAAAAAAAACSgAAAPhAAAts9YWVogAAAAAAAA9tYAAQAAAADTLXBhcmEAAAAAAAQAAAACZmYAAPKnAAANWQAAE9AAAApbAAAAAAAAAABtbHVjAAAAAAAAAAEAAAAMZW5VUwAAACAAAAAcAEcAbwBvAGcAbABlACAASQBuAGMALgAgADIAMAAxADb/2wBDAAMCAgICAgMCAgIDAwMDBAYEBAQEBAgGBgUGCQgKCgkICQkKDA8MCgsOCwkJDRENDg8QEBEQCgwSExIQEw8QEBD/2wBDAQMDAwQDBAgEBAgQCwkLEBAQEBAQEBAQEBAQEBAQEBAQEBAQEBAQEBAQEBAQEBAQEBAQEBAQEBAQEBAQEBAQEBD/wAARCAKfA1MDASIAAhEBAxEB/8QAHQABAQEAAwEBAQEAAAAAAAAAAAUGBAcIAwIJAf/EAFkQAAAFAgEGCQcICAIIBQQCAwABAgMEBQYRBxIWVpXUExQXITZ1k7PSCDFVV5a00xUiNTdUdJSkIzJBUXaCg9FhgTNDRWJyhLXCJEJScXMYJTSxkaEJRFj/xAAcAQEAAwADAQEAAAAAAAAAAAAAAQIDBAUGBwj/xAA8EQACAAMCCwYFBAMBAAMBAAAAAQIDERJRBBMUITFSkaGx0fAyM0FxgeEVNFNywQUiYdJCorKSYoLx4v/aAAwDAQACEQMRAD8A9rWPY9lS7Kt+XLs+iPPvUuI4445T2VLWs2UmalGacTMzPEzMW+T6wtSKBs1nwhk+6BW31RD7lAz2WyrVqk2pGVQrgrVGefnoQ7JoseI/O4FDTrq0MIltOsmtRNYfOQfNjgZHzl6WbNjUTzs6SCCFpZjQ8n1hakUDZrPhDk+sLUigbNZ8I6OtWhVun3ZIRQcvGUac7VrgguusvFb/ABeoMuwW31ScEUkjbTwLSkmls05xoxz0qVnF1PlbvuDT79uWPU8o9tQpbV2NRuAqHlBVq3ZTUQ1tEaFUyMhTUdnNNX6RJ45pm5hiMHhMaVW3tNVJhbpQ9k8n1hakUDZrPhDk+sLUigbNZ8I8zUSTWr4ySVGj2dlBaaTJvWLEYqNGvys3XHbjlGaddbbqKH4s55JmS8Wm3WzJRmks4uY4FvWvdUq4qOzS8rGUFUj5SirJEyysp0JhaUvIUtC35tVeitpUklEZvNLb5/nFgGUR+D3jEw9I9ccn1hakUDZrPhDk+sLUigbNZ8IvgNcZHezOxDcQOT6wtSKBs1nwhyfWFqRQNms+EXwDGR3sWIbiByfWFqRQNms+EOT6wtSKBs1nwi+AYyO9ixDcQOT6wtSKBs1nwhyfWFqRQNms+EXwDGR3sWIbiByfWFqRQNms+EOT6wtSKBs1nwi+AYyO9ixDcQOT6wtSKBs1nwhyfWFqRQNms+EXwDGR3sWIbiByfWFqRQNms+EOT6wtSKBs1nwi+AYyO9ixDcQOT6wtSKBs1nwhyfWFqRQNms+EXwDGR3sWIbiByfWFqRQNms+EOT6wtSKBs1nwi+AYyO9ixDcQOT6wtSKBs1nwhyfWFqRQNms+EXwDGR3sWIbiByfWFqRQNms+EOT6wtSKBs1nwi+AYyO9ixDcQOT6wtSKBs1nwhyfWFqRQNms+EXwDGR3sWIbiByfWFqRQNms+EOT6wtSKBs1nwi+AYyO9ixDcQOT6wtSKBs1nwhyfWFqRQNms+EXwDGR3sWIbiByfWFqRQNms+EOT6wtSKBs1nwi+AYyO9ixDcQOT6wtSKBs1nwhyfWFqRQNms+EXwDGR3sWIbiByfWFqRQNms+EOT6wtSKBs1nwi+AYyO9ixDcQOT6wtSKBs1nwhyfWFqRQNms+EXwDGR3sWIbiByfWFqRQNms+EOT6wtSKBs1nwi+AYyO9ixDcQOT6wtSKBs1nwhyfWFqRQNms+EXwDGR3sWIbiByfWFqRQNms+EOT6wtSKBs1nwi+AYyO9ixDcQOT6wtSKBs1nwhyfWFqRQNms+EXwDGR3sWIbiByfWFqRQNms+EOT6wtSKBs1nwi+AYyO9ixDcQOT6wtSKBs1nwhyfWFqRQNms+EXwDGR3sWIbiByfWFqRQNms+EOT6wtSKBs1nwi+AYyO9ixDcQOT6wtSKBs1nwhyfWFqRQNms+EXwDGR3sWIbiByfWFqRQNms+EOT6wtSKBs1nwi+AYyO9ixDcQOT6wtSKBs1nwhyfWFqRQNms+EXwDGR3sWIbiByfWFqRQNms+EOT6wtSKBs1nwi+AYyO9ixDcQOT6wtSKBs1nwhyfWFqRQNms+EXwDGR3sWIbiByfWFqRQNms+EOT6wtSKBs1nwi+AYyO9ixDcQOT6wtSKBs1nwhyfWFqRQNms+EXwDGR3sWIbiByfWFqRQNms+EOT6wtSKBs1nwi+AYyO9ixDcQOT6wtSKBs1nwhyfWFqRQNms+EXwDGR3sWIbiByfWFqRQNms+EOT6wtSKBs1nwi+AYyO9ixDcQOT6wtSKBs1nwhyfWFqRQNms+EXwDGR3sWIbiByfWFqRQNms+EOT6wtSKBs1nwi+AYyO9ixDcQOT6wtSKBs1nwhyfWFqRQNms+EXwDGR3sWIbiByfWFqRQNms+EOT6wtSKBs1nwi+AYyO9ixDcQOT6wtSKBs1nwhyfWFqRQNms+EXwDGR3sWIbiByfWFqRQNms+EOT6wtSKBs1nwi+AYyO9ixDcQOT6wtSKBs1nwhyfWFqRQNms+EXwDGR3sWIbi3kt+rK0eoYHu6BqBl8lv1ZWj1DA93QNQOhn97F5vidtK7uHyRkbtp8CpXHSGKjCjym0wpqyQ80laSVwkYscDLz85/wD8jjaK2vq3S/wbf9hRuDpRSfuE7vIw/Y8P+oSpceGzXFCnnXh/8YTvMHiiUmGjv4sl6K2vq3S/wbf9g0VtfVul/g2/7CoA4uIlaq2I1txXkvRW19W6X+Db/sGitr6t0v8ABt/2FQAxErVWxC3FeS9FbX1bpf4Nv+waK2vq3S/wbf8AYVADEStVbELcV5L0VtfVul/g2/7Bora+rdL/AAbf9hUAMRK1VsQtxXkvRW19W6X+Db/sGitr6t0v8G3/AGFQAxErVWxC3FeS9FbX1bpf4Nv+waK2vq3S/wAG3/YVADEStVbELcV50BlEiRYN41CLCjNR2UcFmttIJCU4tIM8CLmLnMzAfXKd04qX9HuUAPnOHJLCpiWs+LO/k55cPkjd5PugVt9UQ+5QOJe1pVq5JFMnUauwYEijnIkRUTaaqYwqWto2m3HEJdaUpCEuO/MStBqNRfOLNwPl5PugVt9UQ+5QL4/Us1VjfmfKYHSFHSVvZHcsVu1yj1WJlEybNM0iEVMQwxYE5KlRSNGBcKusLUa0oQaUKVnEklq+aeJjcxcnTse2YtFXXCdmNVpNdkTFRCIn3+NnIUXBkos1JmeaXzjMkkXOY0NXuOl0SRHiTuOLflIccabiwX5KzQg0ktRk0hRkRG4gsTw/WIcPTejfYq/7Pz/gisMl0qkyzmKudmM5HatXIlQTlCr1vXC7UZcqa/F0cNFMecXERFZJ2K7JeU4hDaV5yTdwWa8fmYEQ6ntryJCoNUoU59nIbIRS53G5amsjzbcielSsVpNxVQWhk8cDQbTaSbMizU5uKFei9N6N9ir/ALPz/ghpvRvsVf8AZ+f8EHg7emF7wp1NDL5ERFgRYEQCBpvRvsVf9n5/wQ03o32Kv+z8/wCCL4uO5lbcN5fAQNN6N9ir/s/P+CGm9G+xV/2fn/BDFx3MW4by+Agab0b7FX/Z+f8ABDTejfYq/wCz8/4IYuO5i3DeXwEDTejfYq/7Pz/ghpvRvsVf9n5/wQxcdzFuG8vgIGm9G+xV/wBn5/wQ03o32Kv+z8/4IYuO5i3DeXwEDTejfYq/7Pz/AII5FNuqkVWeVMjlUGpKmVvpRLpsmNnNoUlKjSbraSVgbiMSI8fnEDlxrO0LUN5XAAFCwAAAAAAAAAZyPf8Ab0uO1LiM1t5h5CXG3G6DOUhaDLElJMmcDIyPEjIWUMUWhEOJLSzRgIGm9G+xV/2fn/BDTejfYq/7Pz/gicXHcyLcN5fAQNN6N9ir/s/P+CGm9G+xV/2fn/BDFx3MW4by+Agab0b7FX/Z+f8ABDTejfYq/wCz8/4IYuO5i3DeXwEDTejfYq/7Pz/ghpvRvsVf9n5/wQxcdzFuG8vgIGm9G+xV/wBn5/wQ03o32Kv+z8/4IYuO5i3DeXwEDTejfYq/7Pz/AIIab0b7FX/Z+f8ABDFx3MW4by+Agab0b7FX/Z+f8ENN6N9ir/s/P+CGLjuYtw3l8Bx6fPiVWBGqcB3hY0xlD7K8005za0kpJ4HgZYkZcxliOQKNUzMsAAAAAAAABOq9wUyhqjonnKNco1JabjQ3pK1GksT+a0lR4EX7cBwdN6N9ir/s/P8AgiygiaqkVcUKzNl8BA03o32Kv+z8/wCCGm9G+xV/2fn/AAROLjuYtw3l8BA03o32Kv8As/P+CGm9G+xV/wBn5/wQxcdzFuG8vgIGm9G+xV/2fn/BDTejfYq/7Pz/AIIYuO5i3DeXwEDTejfYq/7Pz/ghpvRvsVf9n5/wQxcdzFuG8vgIGm9G+xV/2fn/AAQ03o32Kv8As/P+CGLjuYtw3l8BA03o32Kv+z8/4Iab0b7FX/Z+f8EMXHcxbhvL4CBpvRvsVf8AZ+f8EfaDd1GqE9qmtJqLMh8lKbTKpcqMSySWKsFOtpSZkX7MQxca8GLcN5ZAAFCwAAAAAEyr3HS6JIjxJ3HFvykOONNxYL8lZoQaSWoyaQoyIjcQWJ4frEJScToiG0s7KYCBpvRvsVf9n5/wQ03o32Kv+z8/4Iti47mRbhvL4CBpvRvsVf8AZ+f8ENN6N9ir/s/P+CGLjuYtw3l8BA03o32Kv+z8/wCCGm9G+xV/2fn/AAQxcdzFuG8vgIGm9G+xV/2fn/BDTejfYq/7Pz/ghi47mLcN5fAQNN6N9ir/ALPz/ghpvRvsVf8AZ+f8EMXHcxbhvL4CBpvRvsVf9n5/wQ03o32Kv+z8/wCCGLjuYtw3l8BA03o32Kv+z8/4Iab0b7FX/Z+f8EMXHcxbhvL4CRTbqpFVnlTI5VBqSplb6US6bJjZzaFJSo0m62klYG4jEiPH5xCuKuFw5miU09AAAEEgAAAAAABbyW/VlaPUMD3dA1Ay+S36srR6hge7oGoHST+9i83xO0ld3D5IzNwdKKT9wnd5GH7H4uDpRSfuE7vIw/Y8Xh3zk3zX/MJ3UjuYfXiwA6Ny1+VxZGQSBEqF+WfczKZlRdpjbfDUuMpS05ppcRxqYyl5pSVJVntGskY5rvBrI0lyrM8qW1soWSuDlVsyyriq8ep1JmlQqTDnUd6c684RGklGiccdkyI8VIdeQ4nA8UEeBHniY7KipmLW4a0O6AHUVMy/1aZPONUsgOUWjxGaqxR5lQmSaCtiHIdU2lGelipuOqTi83ibaF/rf4HhoLjy7ZJbLblLvu/qBa3F5b8JtNcqsaCctxpCFL4EnXC4QsHE+bnxPnIuYVcuKtKE2kb0BhMkmWzJ1lvo8ytZPLhh1NmnvpjyksS2HzZWptLiCUplxaOdKyPDOxIyUkyJSVEW7FYoXC6MlNNVQAAEEgAAAAAAB0LlO6cVL+j3KADKd04qX9HuUAPmmH/NTfui4s9BI7qHyRu8n3QK2+qIfcoF8QMn3QK2+qIfcoF8fqaZ235nyqDsogTentH6oqXfQhfECb09o/VFS76EL4RaIfL8sQ6WAAZ68so2T3JzFjzcoN929bEeY4bUd6s1RiEh5ZFiaUKdUklGRc+BCjdNJbSaEBhIWXrIZUnqbGp2WexJTtZcNmmtsXHDWqa4Ss00MkTmLis483BOJ48w1rNdokgoqmKzBcKc64xFNEhB8O4jOz0IwP5yk5i8SLEyzVY+YxCaegmjRzgEerXlaFAos25K7ddHp1Iprimpk+XOaZjRlpVmKS46pRJQZK+aZGZGR83nGftjLpkSvasNW9ZmWKx69VXyUpqDTLhiSpDhJLFRpbbcNRkREZngXMQVWgUZuAHEk1ikw3XGZdUiMOMpaU4hx9KVIS4s0NmZGfMSlkaU/vMjIucS7tygWHYLcN6+r2oFuN1B7i8RdWqTMMpDvnzGzdUnPV/gWJhVIihfAcRurUp6ouUdmpxFz2mESnIqXkm8hlZqShw0Y5xJUaFESsMDNJ4eYx+JldolPdXHqFYgxnWkNurQ9IQhSUOL4NCjIz5iUv5pH+1XMXOJBzgHDptZo9Y4z8kVWHO4lIXEk8WfS7wD6MM5peaZ5qyxLFJ85YjmAAIE3p7R+qKl30IXxAm9PaP1RUu+hC8vT6PgVi0bC+AAKFgAAAAAAACBk+6BW31RD7lAviBk+6BW31RD7lAuuw/Nfkq+0uri+AAKFgA+EqdCg8Dx2YxH4w6lhnhXCRwjiv1UJx86jwPAi5zCbOhUyI9UKlMYiRY6DceffcJtttJedSlHzERfvMAfcBFuK97LtBynM3bd9FojlYkph05FRqDUY5khWGa0yTii4RZ4lglOJniXMOFCypZMqlVKvRKdlGteVUaAlS6tDZq8db9PSk8FHIQS85oiPmM1kWBiKomjNOAi3Xetm2HSfl6+Ltotu0zhEtcdq09qIxnq/VTwjqkpxPA8CxxMZal+UX5PlcqMaj0XLtk8qE+a6liNFi3PBdeecUeCUIQl01KUZ8xERYmDiSzNijZ2GA+MmZEhk2cuUywTziWWzcWSc9xR4JSWPnUZ+YvOYlXbfFlWBS01u+7volt05TqWUzKvUGobBuGRmSCW6pKc48DwLHHmMTWhFC2A6+pHlEeT/cFUi0Sg5c8n1SqM11LMWHDuaE8++4o8CQhCHDUpR/sIiMx2CITT0EtNaQAAJIIGT7oFbfVEPuUC+IGT7oFbfVEPuUC+LzO2/MrB2UAABQsAAABArHSu3v8Am+7IXxArHSu3v+b7shfF49EPl+WVh0sAAnXDclu2jR5Fw3XXqdRaVDIlSJ1RlIjR2SMyIjW44ZJSWJkXOfnMULFEBIod32nc8WFOtq6KRVo1SYVKhvQZrT6JLKVElTjakKMloJSiI1FiRGZF+0QLpy4ZFbGq67fvXK/ZNv1RpCXFwapcESJISlRYpUbbjiVERlzkeHOIqlnJo2bYBmbMyn5NMoxSjye5Q7ZugoWbxn5Gq0ebwGdjm5/ArVm44HhjhjgYvMVGnypcmBGnR3ZMI0FJZQ6lTjBqTnJJaSPFOKecsfOXOCaegilDkAMHcOXzIVaNZk27deWmw6LVoSiTJgVC44caQwZpJREttxwlJM0mR85eYyMcq3ctORy70SHLSys2bW0RHGGpCqdXoskmVvLzGUrNtZ5prX81JH+sfMWJhaWipNl3GyAdfzvKFyA0urvUCp5ccn8SqR3zjPQn7mhNyG3iPA21NqcJRKx5s0yxxG1XV6S03LdcqkRCKejhJalPpIo6M3PznDx+YWb87E8Obn8wJp6BRo5YDLWZlUyYZR3JTOTzKRa10OQEoVKRRaxHmmwS8SSayZWrNI81WGOGOB/uGpBNPQQ1TSBArHSu3v8Am+7IXxArHSu3v+b7shpL0+j4FYtGwvgAChYAAAAIE3p7R+qKl30IXxAm9PaP1RUu+hC8vT6PgVi0bC+AAKFgA+MmZEhJQuZKZYS44hlBurJJKcWealBY+dRmZEReczMcOFc1t1N0o9NuCmy3VLNskMS23FGskEs04EfnzDJWH7jI/MAKQDiSaxSYbrjMuqRGHGUtKcQ4+lKkJcWaGzMjPmJSyNKf3mRkXOOWAADjQKpTKqh5ymVGNMTHfXGeNh5LhNvIPBbas0zwUk+Y0nzkfnHJAABx4tQgTmnH4U6PIbaccZcW06laUOIUaVpMyPmUlRGRl5yMjIx8qbXKLWSxpFYhTi4FqR/4aQh39E4Rm2v5pn81REZpPzHgeGIA5oCU7dVvR6pMosqrMRplPhlUZDb5m0SIpmojezlYJUgjSZKURmSTwzsMSx5dKqcOtU2NVqctxcWW2l5lS2ltmpBliR5qyJRYlz85EFQcoAAAQJvT2j9UVLvoQviBN6e0fqipd9CF8Xi0Q+X5ZWHSwAAKFgAAAAAAAt5LfqytHqGB7ugagZfJb9WVo9QwPd0DUDpJ/exeb4naSu7h8kZm4OlFJ+4Tu8jD9mWJYfvH4uDpRSfuE7vIw/Y8Xh3zk3zX/MJ3UjuYfXizwFlwlWtdEKZRIOXKFaLUNFyIp671uipwJFSZfOLwTcdyRUoT8iM44h/MdUt+IRIwzDLMwuZNKZT8qeTM8nUO7LJvGfWb3TKUdVd0rglGiw0KNyWwmsTlqQZtJJCHJxGRraPNQWDQ9wgJyl2bKXWwYrPU8MwMjlr5PbyaOqq8nqm1c76gMUyHS8m7dKrMo0LhKcKnOqqLi20pSszUlLTnNwhmZZ/NRuOzDtOvu3Bato3Bk5o6riXWHYlAob0U6/CW9HRwkk48qJFbURktKI0tbz7hSHSRENebj7VARlMTdWMUjpPyWq/KqFpzLfrEioqrdBOPDqMSSWYilqQ3wbMPg879G6TLTbzhZpErjCVpNSVpMd2AAwjitxOIvCqKgAAFSwAAAAAAAdC5TunFS/o9ygAyndOKl/R7lAD5ph/zU37ouLPQSO6h8kbvJ90CtvqiH3KBfEDJ90CtvqiH3KBfH6mmdt+Z8qg7KIE3p7R+qKl30IXxAm9PaP1RUu+hC+EWiHy/LEOlgeffK9jrqlPsa35Ei4kUupXCRVJFDVWFSFsNMOO/6KkoXIdwNssEmRIJWCjURpIeghmb4yZZPcpjMCLlEsuj3LFpj6pUWLVYiJUdDxoUjPNpwjQo81aiI1EeGOJYHzjKNOKGiNIXZdTy5kan5RZmTqVaq7pp9JtuzZLE2pJuKBWZs9cZmaZ5jT81bEmMRIimpLbsVZln5iSJJJUfJyxx6vUadPpKoFDqt1nVKk9BYod61+2JkqUgmOClR6VAKUctbeLOe6taUINOeZtpWoy7yb8mrItE4u1RrPdocSO4pwqfRKrNpkF0jd4U0PRYrzbDzefifBuIUj5yyzcFKI/rK8njJc9MkT4EO4qI/MWb0xVAuyrUgprx+d+QUOS0T7xkREbrhKcMiIjUZEQyxcVKF7arU6gtq36hVskL2Tql0yBbUmo3FDimxOu25a8/T3Od7hFplKp86IrOZJbaWnUIVncKk1Er53Fyb2fVabecC6msrdMu9FtXUq3Z8F2Tcch2JKUSmVqSUy4JjLSyS5iRrYNRoUeGbnEY7zZyH2QzT00pVTviRGTKTMNEq/K5INxRJzcxanJajcZMv1mVGbSv/MkxRlZI8mcpNJNuyaVBeoEdMOkSaawUGTTY5GR8BGfYzHGGjwIjQ2pKVJxSZGRmQnFvNUW0ed6omFlKdqtXqt5V5NAtF2PPr3E35UNyawxVKjhwc5tTbmYwg+E/8OvHPZQjOLNU2r73fErlo5GWahZtaqdUXcsmpT+IXLdNclvuUlxl5DCkktua8lDbbrC15yG2kmZKcWkyIx6NrGT2zrhrse465RUTpsUmeDJ91xTGc0pS2lqYNXBKW2talIWpJqSo8UmRkRjg1DJLYtRpk+inAqEKn1OUUyVEptYmQGXHMVGv5kd1CSS4a1G6giJLpqM3CWZ4hi2LaOi6Mc2oX5CbZvONElvz21korccduJx1ZcG8kqjx/i620EhLqm1QiZSwpnBklEnCNlWyezLvfu+35dHi1KmTbmjU86nXspU6nuSKitmOpls4DVLkQ3WSUpBIZkJdazs/9GRKMj7zV5PWTpdYj1w519caiPnIjkWUCvkywo/OlDPHODQjD5vBkkkZvzcM3mFprJJYBVOdV6jRHa1Jn8MSzrk+TVUMIeSaXm46JbjiYza0nmqbZJCFEREZGRFgxbaoxbSdUZbybqPXqRZkyPctVnPz4dQfpJxFzIj8OC3EWplDcQokCC0lsyLO/wDx0qxPAzMkpw7ZEK0LHtSwae5R7MorNIpq3TeRAiqUmLHMyIjSwzjwbCDwxzGkpTnGpWGcpRndGsKoqGcTq6gQJvT2j9UVLvoQviBN6e0fqipd9CGkvT6PgUi0bC+AAKFgAAAAAAACBk+6BW31RD7lAviBk+6BW31RD7lAuuw/Nfkq+0uri+AAKFj+c2XvJ6VWyn1WZULAoDEtdebU+dPthVUaedUklEzxlFkyDceWlSVmhyS/gajIyVgWHdOTOk3LSsjtEodItG3qVQ5V2RTqC2GUxXZCCmstrYfiJo9L4Fw3MEnjGM8xpWcZmoh3S/5POSeoVH5TuGiVO5HEvHJYZuSv1Gsxoj5mZk9HjzX3Wo7icTJK2kpUkjMkmRcwvUXJra9Domj7LldnQ+ONTyOr3DUKm8l5taVoMnpTzjpJJSEnmErN5j5uc8cIZUSbZs5iaSOnLPtzKLZGVupuWf5PuSC3VVamMvVJVJuh+MclPGXP07ht0ZPCu/OX81X7/wBfnMdX5RqBXq69dVLYjXheNMcqZwIEBfyMxAivTqk8S2ksLzHJuZIZZd4GU+hlxCMFOJxNk/SLXk85PGa0m4UVPKBx9JpPhFZRbhURpJeeSDQc3NNvOMzzDLN5zLDAfp3yb8hcuLKi1XJlRatx9/jEx+qtHPkSz4wcgkPPvmtx1onjziaWo2y5iJJEREDlxNU64EKNJ1Ol8jdCVYNh0i2LptBduqpF1SEVNyBBjQJk19dJfWt5MGkrdYjLNC2koRFecNRlnESFmaR2RYVUyrJveM3lLRVzt2QbhWo7HhqQ8pOZz/LhNGaW3zLONoiShnA/0hE/mITq+QjJTHtzRKh2ro3Sk1D5Ubj21Ok0TgZXB8GbjSoLjSmsUYkokGSVYqMyMzPH4QMgtj02dGqMeu5RVuxXkPtpkZSLifaNSVEZEttycpDicS50qSaTLEjIyMyFlBEqJEOJM8KZc7atGlZZrsp15sZGifaltONM6HWzTz/SIS8t5Zzbhhy3nHDcwWtwnEGaMWzQalpHZFuxKjafkjLu2Dd1jUVhyVJmm5bNsnQ5NW4sbiCUt2hVqNGU4aWzWp1t/i6W0njilOePUErIBYsyU9Ler2UhK33FOKJrKXcbSCNR4mSUInElJc/MlJEReYiIhz4uRexI1vVS13yuKowawy5Hkqqt0VSoSUtrIiWlmTJkLejkeakz4JaOdJH5yIxmpLTbLuamkjw9kVumru3/AGjadtZW2qjPn1UuEdl3a5UOHXmredddiQr2lE6pWYeP/hVIxVissMcf6NFjhz+cdfUbIVYdDrUCvx597TJVNe4xGRVL7rlRjpczVJzjYky3GlmRKVhnIPAzxLAyIx2CNZUDgVGZxxKLQAABoUIGT7oFbfVEPuUC+IGT7oFbfVEPuUC+LzO2/MrB2UAABQsAAABArHSu3v8Am+7IXxArHSu3v+b7shfF49EPl+WVh0sDAZc2lO5OpSWa7Po0gpsBcadBjsvvsPlKaNtSUPkbf65JxNSVERYnmqwzT34iXfZlu35SUUO6Yb0uAmSzLNhuW8wlxbSyWgl8EtJuIziLFtWKFFzKSZcwziVVQunR1PCF05PrkuOp0y5Krkur1wooFMiV2uvV6LbtSclsyeEfUwpw3mTpP6ZL7puU9t9akuJM8TQlovSdbn3smp3PHyeJdZvt2pNrp8Y0PP0RKjpsPPKoLJKUlHI8MFlmPnmnwRGeeg9XL8mXyeZzyZEnIpZinGYzcSMoqMwk4bTalqQmNgkuL4KcWrFrMPOPHHEiMULhyJ2PctblXBMmXhCmTcw5BUe9azS2XFIQSEqNmJKbazs1KSzs3EySWJngMYZbh0GjjTMbOpNXvjI/VaHdthyLpr6JpKrdKrlLjyG1PpwM1U5mYpMN1siJPAGbpIL9ZxSnUuIV0da2TXI5c9x0aj0jyU41Jm1BdUNp2q2la0mMwZySdLj0dia7IaaZ4M4xnwSVJNwkpNtRkk/T8bIbZcWmzaS1W8oCmJ6mlOrcyh3A48k2zM08G8qabjRHnHnE2pJK5iVjgWHxV5O+Rpvh3qPZDFvz5is+XVbdlSKNU5Z44nw86E41JezlfOVwjis5XzlYnziXLcVK9bgo0tB5h8qODlKXf8+2rfj15iG9RqU1TabTatIjQjM3CZWiO2iv0xDma4ttJ5sR4yNbWcpGcki32TOnZZLWyf303eUKa0Tc+GsoV5R5VUZlwFNJTIZaJytVDNz8TLO40tKT/WY/9XdMzIVkuq81c+5bdfuRw3G32W7hqkursw3kFgl2K1Ldcbiu4f6xlKFn5zMzHHa8n/JgcR+m1mDXrkgSFtOOwbmuiqVyKpbZmpCuAnyHm8SV84jzfOST86SMoxTUVoW1Sh4Syp0S6KVlaqGUOYxVYKXalWyplZcqjkYlORpZRo6WVncsf5zaXFMoQmIg8Fmko8kjMx3XlKycNUzLJVLlmRcn8hT1vz5K6lKshyRUI8h9tSmGFVJ2epaJKkMvE0smiQhCTQTZZ6CHfi/J5sBSjUVcykoIzxzW8plyIQn/AASlM4iSX7iIiIv2DUtZPrPboVRtxdGTIg1danJ6ZTzkhyUtSSTnuOuKU4pRJSkiUasUklJEZZpYRDJpWpLmmet761lfwbT/AHl8dhjHWRkcyU5M58up5Osndv2xInx2oso6PAbhpfbbUpSM9DZElSiNavnGRq58McBsRvCmlnMomm8wECsdK7e/5vuyF8QKx0rt7/m+7IaS9Po+BSLRsL4AAoWAAAACBN6e0fqipd9CF8QJvT2j9UVLvoQvL0+j4FYtGwvgAChY6g8o6jy61SrViwKDXKhI0kgcG7CuaRRYsdXDo55Tkd1Lqkq/VTmNPGlRkeaksVl5uh0tidlFj6cWZacqgRKtR6pDVVq6dQRTYzq+Km6qO9TEMLfWlpJrM5BGylbSmzMyUa/atyWdQ7sdpz1aKeo6VI41GTGqcmKjhcMCU4hlxKXc3zpJwlElREpOCiIyzlQyF5NakzT2H6XVGUU7Ow4pX6hFOXnqStfHDafSc3PUgjVxjhM48TVjieOUctxOqNIY1CqM6GqSYOUpyq1ep3jXUW/aLkafXuJPSoa5sdiqVHDg5zam3ODYQfCf+HXjnsoRnFmqbVzLpsSw4+R6DXbntW8r9ZqdUk1OlQKjGqt2usx3ScSw4hqXHqBNOoiqJSCdQ22pwyJxacTUPRNYye2dcNdj3HXKKidNikzwZPuuKYzmlKW0tTBq4JS21rUpC1JNSVHikyMiMTJ+RywahnN8SqsKK5MOc7BptdnwYbzqjM3OEjR3kMuIcNSjcbUg0OGpRrSozMzjFsm2jzZk8PyVboqE2mIyDxYdTolRgsMVSh5EajBlRJ6CbeWTi0w3SirQs0kecpOaWKsc0yUODkzsy17lyiXDGtet2fUKkTE+TVYVjSZFvVhtSatgpqpzIM9Lj0g0Gs0G6TScUqxQeOKfU7uSHJkpVIdh2VTKW/QGm41Lk0lr5PkQo6HCWUdp2PmLQwaklnMkom1lilaVJMyOrULOtyowH6eqncTS/GciG/TXnIEltpxWetLUiOpDrWKiJRmhSTx58cQUt+NBjLjoWj5OZVCyW3K5adTnzYMe4qw/VaZcF4VAmKjGZlupNp2Y+mW4w1mEpThNNkp5RES1kRrzrNOqWVeu3daU6rWRbFh1Cq0x1UWXS7heqyjjtJQ4cSbDcgxUqaLhOZSHiW2s/mqzVrJXZ0bJVY0ahU22lUqTKptLlnOaYm1KVKJ+QalL4SSp5xSpSs9RrI3zXgskrL5yUmX2puTe1aVd0q+WU1eRWJSHG+EnVydMZjoWaTWmPHfeWzGJRoTiTKEY5pF5haw1oItI/n1lypOTW5MpdWuJOUPIZIKo3Yk86bdtsHLJsizTN9L1CmPNoI0mR8LJdSXNi0RYIT6t8jFNuU7J1WLfoFy2XVeJ12Q8tNq1mnVCIyh1DZo+dT40VlGOar5vFmT5j+af66u8apRaZWuKfKcbhuISm5sf56k5jyMc1XzTLHDE+Y8S/wABzhWGVZitVEUysNAAANjMgTentH6oqXfQhfECb09o/VFS76EL4vFoh8vyysOlgAAULAAAAAAABbyW/VlaPUMD3dA1Ay+S36srR6hge7oGoHST+9i83xO0ld3D5IzNwdKKT9wnd5GH7H4uDpRSfuE7vIw/Y8Xh3zk3zX/MJ3UjuYfXiwAAOMagAAAAAAAAAAAAAAAAAB0LlO6cVL+j3KADKd04qX9HuUAPmmH/ADU37ouLPQSO6h8kbvJ90CtvqiH3KBfEDJ90CtvqiH3KBfH6mmdt+Z8qg7KIE3p7R+qKl30IXxErVFq8urwazRqrDhvw40iKpMqEqQhaHVMqMyJLrZkZGyX7T85j58Sv3WWgbEe3sS0oks/G8jOm8xfAQOJX7rLQNiPb2HEr91loGxHt7EWVrLfyJtO4vgIHEr91loGxHt7DiV+6y0DYj29hZWst/IWncXwEDiV+6y0DYj29hxK/dZaBsR7ewsrWW/kLTuL4CBxK/dZaBsR7ew4lfustA2I9vYWVrLfyFp3F8BA4lfustA2I9vYcSv3WWgbEe3sLK1lv5C07i+AgcSv3WWgbEe3sOJX7rLQNiPb2Flay38hadxfECb09o/VFS76EHEr91loGxHt7CBQ698vMVyuVqnyuKw34jTUSnrj/AOlWyo1KNTzmOHAkRERF5zFoUoc9b7+RDbeahfAAGRcAAAAAAAAgZPugVt9UQ+5QL4ylHt+9aJSINGiXPRFsQIzUVtTlFeNZoQkkkajKURY4Fz4EQ0ho4Wm6aPyVdU06GrAQOJX7rLQNiPb2HEr91loGxHt7EWVrLfyFp3F8BA4lfustA2I9vYcSv3WWgbEe3sLK1lv5C07i+AgcSv3WWgbEe3sOJX7rLQNiPb2Flay38hadxfAQOJX7rLQNiPb2HEr91loGxHt7CytZb+QtO4vgIHEr91loGxHt7DiV+6y0DYj29hZWst/IWncXwEDiV+6y0DYj29hxK/dZaBsR7ewsrWW/kLTuL4CBxK/dZaBsR7ew4lfustA2I9vYWVrLfyFp3DJ90CtvqiH3KBfHAt+lfIVBptD4fh/k6GzE4XNzc/g0EnOwxPDHDHDExzxEbTibQhVEkAABUsAAABArHSu3v+b7shfEau0ap1CZT6jSKnFhyIBu4cZiKkIWS05plglxBkf+OI+PEr91loGxHt7GjpEln43spnTeYvgIHEr91loGxHt7DiV+6y0DYj29iLK1lv5E2ncXwEDiV+6y0DYj29hxK/dZaBsR7ewsrWW/kLTuL4CBxK/dZaBsR7ew4lfustA2I9vYWVrLfyFp3F8BA4lfustA2I9vYcSv3WWgbEe3sLK1lv5C07i+AgcSv3WWgbEe3sOJX7rLQNiPb2Flay38hadxfAQOJX7rLQNiPb2HEr91loGxHt7CytZb+QtO4viBWOldvf8AN92QcSv3WWgbEe3sfmPQ7idrMKqVquU6QiCTuY1FprjBqNac3E1KfXzF+7AWhUMLrW++7yIbbzUNCAAMi4AAAAQJvT2j9UVLvoQviJWqLV5dXg1mjVWHDfhxpEVSZUJUhC0OqZUZkSXWzIyNkv2n5zF4Gk8/88CsVaZi2AgcSv3WWgbEe3sOJX7rLQNiPb2Flay38hadxfAQOJX7rLQNiPb2HEr91loGxHt7CytZb+QtO4vgIHEr91loGxHt7DiV+6y0DYj29hZWst/IWncXwEDiV+6y0DYj29hxK/dZaBsR7ewsrWW/kLTuL4CBxK/dZaBsR7ew4lfustA2I9vYWVrLfyFp3F8BA4lfustA2I9vYcSv3WWgbEe3sLK1lv5C07i+AgcSv3WWgbEe3sOJX7rLQNiPb2Flay38hadwm9PaP1RUu+hC+IECh175eYrlcrVPlcVhvxGmolPXH/0q2VGpRqecxw4EiIiIvOYvhHTMk+qiGudsAAChYAAAAAAALeS36srR6hge7oGoGXyW/VlaPUMD3dA1A6Sf3sXm+J2kru4fJGZuDpRSfuE7vIw+U6dGpsZUuWpaW0qQj5jalqNSlElJElJGZmZmRcxftH1uDpRSfuE7vIwnXJ9HM/f4PvTQ8P8AqcTgwifEtKp/xCd5gyrLgT6zsaSU77PVNlSvhhpJTvs9U2VK+GKgDi0m6y2Pma1hu3+xL0kp32eqbKlfDDSSnfZ6psqV8MVACk3WWx8xWG7f7EvSSnfZ6psqV8MNJKd9nqmypXwxmrxy1ZPbGrOj1bm1eRUUMFKkMUe36hVlQmTP5rkriTDpRkKwUaVPGglEhZkZklWFCXlQsCCzOkyrohoj06lx61If+cbJQn1LSy6lwizV55tqJKUmajPDm+cnG2Ln6arY+ZFqDp+xV0kp32eqbKlfDDSSnfZ6psqV8MRrGyp2ZlEemw7ck1RmbTibXJgVeiTaRMQ2vHMd4vNZadNpRpUROEk0GaVER4pMi1ohwToXRtbHzJTgejj7EvSSnfZ6psqV8MNJKd9nqmypXwxUARSbrLY+YrDdv9iXpJTvs9U2VK+GOfElMTorM2KvPZkNpdbVgZZyVFiR4HzlzGPqJdq9F6P9wj92kQoo1GoYmnVPwpop/LvDSaqjpnKd04qX9HuUAGU7pxUv6PcoAfOsP+am/dFxZ30juofJG7yfdArb6oh9ygXx+6fkiTSoEamQMoNztRobKGGUZlPVmtoSSUlicUzPAiLnM8RyOTGT6x7n7OnboP09HhcmKJtRbnyPmEODzUkqcDiAOXyYyfWPc/Z07dA5MZPrHufs6dugrlMnW3PkTiJl3A4gDl8mMn1j3P2dO3QOTGT6x7n7OnboGUydbc+QxEy7gcQBy+TGT6x7n7OnboHJjJ9Y9z9nTt0DKZOtufIYiZdwOIA5fJjJ9Y9z9nTt0Dkxk+se5+zp26BlMnW3PkMRMu4HEAcvkxk+se5+zp26ByYyfWPc/Z07dAymTrbnyGImXcDiAOXyYyfWPc/Z07dA5MZPrHufs6dugZTJ1tz5DETLuBxAHL5MZPrHufs6dugcmMn1j3P2dO3QMpk6258hiJl3A4gDl8mMn1j3P2dO3QOTGT6x7n7OnboGUydbc+QxEy7gcQBy+TGT6x7n7OnboHJjJ9Y9z9nTt0DKZOtufIYiZdwOIA5fJjJ9Y9z9nTt0Dkxk+se5+zp26BlMnW3PkMRMu4HEAcvkxk+se5+zp26ByYyfWPc/Z07dAymTrbnyGImXcDiAOXyYyfWPc/Z07dA5MZPrHufs6dugZTJ1tz5DETLuBxAHL5MZPrHufs6dugcmMn1j3P2dO3QMpk6258hiJl3A4gDl8mMn1j3P2dO3QOTGT6x7n7OnboGUydbc+QxEy7gcQBy+TGT6x7n7OnboHJjJ9Y9z9nTt0DKZOtufIYiZdwOIA5fJjJ9Y9z9nTt0Dkxk+se5+zp26BlMnW3PkMRMu4HEAcvkxk+se5+zp26ByYyfWPc/Z07dAymTrbnyGImXcDiAOXyYyfWPc/Z07dA5MZPrHufs6dugZTJ1tz5DETLuBxAHL5MZPrHufs6dugcmMn1j3P2dO3QMpk6258hiJl3A4gDl8mMn1j3P2dO3QOTGT6x7n7OnboGUydbc+QxEy7gcQBy+TGT6x7n7OnboHJjJ9Y9z9nTt0DKZOtufIYiZdwOIA5fJjJ9Y9z9nTt0Dkxk+se5+zp26BlMnW3PkMRMu4HEAcvkxk+se5+zp26ByYyfWPc/Z07dAymTrbnyGImXcDiAOXyYyfWPc/Z07dA5MZPrHufs6dugZTJ1tz5DETLuBxAHL5MZPrHufs6dugcmMn1j3P2dO3QMpk6258hiJl3A4gDl8mMn1j3P2dO3QOTGT6x7n7OnboGUydbc+QxEy7gcQBy+TGT6x7n7OnboHJjJ9Y9z9nTt0DKZOtufIYiZdwOIA5fJjJ9Y9z9nTt0Dkxk+se5+zp26BlMnW3PkMRMu4HEAcvkxk+se5+zp26ByYyfWPc/Z07dAymTrbnyGImXcDiAOXyYyfWPc/Z07dA5MZPrHufs6dugZTJ1tz5DETLuBxAHL5MZPrHufs6dugcmMn1j3P2dO3QMpk6258hiJl3A4gDl8mMn1j3P2dO3QOTGT6x7n7OnboGUydbc+QxEy7gcQBy+TGT6x7n7OnboHJjJ9Y9z9nTt0DKZOtufIYiZdwOIA5fJjJ9Y9z9nTt0Dkxk+se5+zp26BlMnW3PkMRMu4HEAcvkxk+se5+zp26ByYyfWPc/Z07dAymTrbnyGImXcDiAOXyYyfWPc/Z07dA5MZPrHufs6dugZTJ1tz5DETLuBxAHL5MZPrHufs6dugcmMn1j3P2dO3QMpk6258hiJl3A4gDl8mMn1j3P2dO3QOTGT6x7n7OnboGUydbc+QxEy7gcQBy+TGT6x7n7OnboHJjJ9Y9z9nTt0DKZOtufIYiZdwOIA5fJjJ9Y9z9nTt0Dkxk+se5+zp26BlMnW3PkMRMu4HEAcvkxk+se5+zp26ByYyfWPc/Z07dAymTrbnyGImXcDiAOXyYyfWPc/Z07dA5MZPrHufs6dugZTJ1tz5DETLuBxAHL5MZPrHufs6dugcmMn1j3P2dO3QMpk6258hiJl3A4gDl8mMn1j3P2dO3QOTGT6x7n7OnboGUydbc+QxEy7gUMlv1ZWj1DA93QNQOBQKNFt2hU634Tjq49MiMw2VOmRrUhtBISajIiIzwSWOBEWP7Bzx1M2JRxxRLxbOwgThhSZmbg6UUn7hO7yMJ1yfRzP3+D700KNwdKKT9wnd5GE65Po5n7/B96aHh/1Xv8I6/whO8wXsQdeLKgD4zZsKmw36jUZbMWJFbU8+++4SG2m0lipSlHzJSREZmZ8xEOiD8tTIi3bkKuv3pbKV1E5RREpuCKtmQbE1EdTbbhKznHjQ6h4m0oM8xX+JGaGXFH2VUOJLSd+gOoqzlsuSYVvVbJpZlLrdBrLspiRIrlSn0KdEcjJcW8niTtPWszJDK8CWbZmrAuYjzx1/kn8r+78ol60O2K1ka+QoVZcbb49wtdLgTciKko55lFisK+ajDDhyNWOcgnE/OFlImNNpaCLcKdC/XZdTyfVrKFTqqxflMO8aszVaNcFo20utvOJKIwyqOtJRpTbCkKZNOMhpLZocI0qxJebnrfse6l25OgZRMm9WqZuWBbsOpQIhtU943WpcpT6Y7kHNZTJZSpLhIjKT84kEg05yTFO/PLQtuw5LDcuz2n4k+SpVNnP3pbtLZnQUPG05IaRUJ8d5RkaFmkibNCizP0hZx5vNunyo6o3k+tq9rCyaPVRV1VF+DDZkTzqCSQ0y44chKreaqpuoxbNOCSLDnzlIwLHdQzElSHT/NxSsNdJQyHO1WdeVTlM1C9rioUalMxWK5e9rFR6oy9wpmcNk3IcR+QxmZqzW42v5/+tWo1Enu8efslnlIX3d95RrNvLJUmim9SZc8prMe4mSccj8FnIS1UqLDJWdwmJE246ssMM08cRPp/lt2lVZFcgxLBu9mZQiZQ+xNt6rMLVIdNpDcZKThms3lOLdImiSa1IZUpKVc6U5xyZkUWaEso4UtJ6RAdL1vyqLFh0+m1Gg0G7qo3U1VJpCnbSrMRLTsNl1S0Om5D/RfpGjQZrzc35yuckKGfye+UtlMvG8KBb1TyFv0+n1h825E9pi50lCRwS1k6tU6gRI5pxSlPPITzrLNzvMdMRMpWhNuGtKnogS7V6L0f7hH7tIqCXavRej/cI/dpHFi72HyfFGq7L9PydM5TunFS/o9ygAyndOKl/R7lAD5zh/zU37ouLO+kd1D5I3dEy0X5X6LArsPJ3QEMVGK1LaS7czxLShxBKSSiKCZEeBljgZjm8qWUX1fW57Tv7iMdk2+rq1upYPcIFOuVuJQIjUyY26tD0uNDSTREZkt51LSDPEy5iUsjP/DHmPzD7hDOmtJ2uHI403AMCgjiSlKib8Yv7F7lSyi+r63Pad/cQ5Usovq+tz2nf3EdRveUzkCjXdoVIyv2c3UcxXnr0PMJ5LhNqjqPhcUPEoy+YoiM8TzcTSok7ut3BDoCIb89t3i8yW3DOQnN4NhTnM2pwzMjJKl5qCMiP5y04kRYmVsZNX+XDkZLBMBi0S1ti/saHlSyi+r63Pad/cQ5Usovq+tz2nf3EQK3XoVAZivzkuZkqW1DSaCLBK3DwJSsTLBJftP/APodbVHyrvJ9g16n28xlXtWoSKg8lglQK7CfSy4pxLaUrIns/E1rTzJSoyLOUZElKjIpk16IuHIiLBMBg7UtbYv7HdHKllF9X1ue07+4hypZRfV9bntO/uI4ICMbM1uHIvkOB/SW2L+xzuVLKL6vrc9p39xDlSyi+r63Pad/cRwQDGzNbhyGQ4H9JbYv7HO5Usovq+tz2nf3EOVLKL6vrc9p39xHBAMbM1uHIZDgf0lti/sc7lSyi+r63Pad/cQ5Usovq+tz2nf3EcEAxszW4chkOB/SW2L+xzuVLKL6vrc9p39xDlSyi+r63Pad/cRwQDGzNbhyGQ4H9JbYv7HO5Usovq+tz2nf3EOVLKL6vrc9p39xHBAMbM1uHIZDgf0lti/sc7lSyi+r63Pad/cQ5Usovq+tz2nf3EcEAxszW4chkOB/SW2L+xzuVLKL6vrc9p39xDlSyi+r63Pad/cRwQDGzNbhyGQ4H9JbYv7HO5Usovq+tz2nf3EOVLKL6vrc9p39xHBAMbM1uHIZDgf0lti/sc7lSyi+r63Pad/cQ5Usovq+tz2nf3EcEAxszW4chkOB/SW2L+xzuVLKL6vrc9p39xDlSyi+r63Pad/cRwQDGzNbhyGQ4H9JbYv7HO5Usovq+tz2nf3EOVLKL6vrc9p39xHBAMbM1uHIZDgf0lti/sc7lSyi+r63Pad/cQ5Usovq+tz2nf3EcEAxszW4chkOB/SW2L+xzuVLKL6vrc9p39xDlSyi+r63Pad/cRwQDGzNbhyGQ4H9JbYv7HO5Usovq+tz2nf3EOVLKL6vrc9p39xHBAMbM1uHIZDgf0lti/sc7lSyi+r63Pad/cQ5Usovq+tz2nf3EcEAxszW4chkOB/SW2L+xzuVLKL6vrc9p39xDlSyi+r63Pad/cRwQDGzNbhyGQ4H9JbYv7HO5Usovq+tz2nf3EOVLKL6vrc9p39xHBAMbM1uHIZDgf0lti/sc7lSyi+r63Pad/cQ5Usovq+tz2nf3EcEAxszW4chkOB/SW2L+xzuVLKL6vrc9p39xDlSyi+r63Pad/cRwQDGzNbhyGQ4H9JbYv7HO5Usovq+tz2nf3EOVLKL6vrc9p39xHBAMbM1uHIZDgf0lti/sc7lSyi+r63Pad/cQ5Usovq+tz2nf3EcEAxszW4chkOB/SW2L+xzuVLKL6vrc9p39xDlSyi+r63Pad/cRwQDGzNbhyGQ4H9JbYv7HO5Usovq+tz2nf3EOVLKL6vrc9p39xHBAMbM1uHIZDgf0lti/sc7lSyi+r63Pad/cQ5Usovq+tz2nf3EcEAxszW4chkOB/SW2L+xzuVLKL6vrc9p39xDlSyi+r63Pad/cRwQDGzNbhyGQ4H9JbYv7HO5Usovq+tz2nf3EOVLKL6vrc9p39xHBAMbM1uHIZDgf0lti/sc7lSyi+r63Pad/cQ5Usovq+tz2nf3EcEAxszW4chkOB/SW2L+xzuVLKL6vrc9p39xDlSyi+r63Pad/cRwQDGzNbhyGQ4H9JbYv7HO5Usovq+tz2nf3EOVLKL6vrc9p39xHBAMbM1uHIZDgf0lti/sc7lSyi+r63Pad/cQ5Usovq+tz2nf3EcEAxszW4chkOB/SW2L+xzuVLKL6vrc9p39xDlSyi+r63Pad/cRwQDGzNbhyGQ4H9JbYv7HO5Usovq+tz2nf3EOVLKL6vrc9p39xHBAMbM1uHIZDgf0lti/sc7lSyi+r63Pad/cQ5Usovq+tz2nf3EcEAxszW4chkOB/SW2L+xzuVLKL6vrc9p39xDlSyi+r63Pad/cRwQDGzNbhyGQ4H9JbYv7HO5Usovq+tz2nf3EOVLKL6vrc9p39xHBAMbM1uHIZDgf0lti/sc7lSyi+r63Pad/cQ5Usovq+tz2nf3EcEAxszW4chkOB/SW2L+xzuVLKL6vrc9p39xDlSyi+r63Pad/cRwQDGzNbhyGQ4H9JbYv7HO5Usovq+tz2nf3EOVLKL6vrc9p39xHBAMbM1uHIZDgf0lti/sc7lSyi+r63Pad/cQ5Usovq+tz2nf3EcEAxszW4chkOB/SW2L+xzuVLKL6vrc9p39xDlSyi+r63Pad/cRwQDGzNbhyGQ4H9JbYv7HO5Usovq+tz2nf3EOVLKL6vrc9p39xHBAMbM1uHIZDgf0lti/sdl2dcGlto0O6uKcV+WabGqHAcJwnBcM0leZnYFnYZ2GOBY4eYhYGPyOfVFY/8N0z3VsbAc+Btwps8thMClzo4IdCbW8zNwdKKT9wnd5GE65Po5n7/B96aFG4OlFJ+4Tu8jCdcpL+TErQy67wUuI6pLTanFZqZDalGSUkZngRGfMX7B439V7/AAjr/CE7PBexB14s502Q7FhvymIT0xxptS0R2DQTjyiLEkJNakoJR+Ys5SSxPnMi5x5RlW/dFnx2qnfNizKLJq1PmQmZNv0mfcMxKDqzU5lEwoEN3gXEIU8RJxeZJRKzXVZw9QaSU77PVNlSvhhpJTvs9U2VK+GM4MLlQf5LaWilRReB5eKxVXGqh3DKyLuXVBt2o1KpMXVeNvJjVJUR1szdWqG3HTPOWcp515thmGwhSWk4LbVmqVi8iuTGyqflTaQ5k/t+DCN1uLEfpvk83Pbz7raoSmFkmouvmmKk8889T+eSzxVzKMlF7V0kp32eqbKlfDDSSnfZ6psqV8MafEJdGrS2rrgVyeKtabjyBd9OXHi2paNu3BcVrUyl0eQcdi3bfvKptEgp8htDZs25UIrbCUJbIkm8hRqLmSZEkyFKrWezleyEWuq9KHcVXplrVGXIcns0ddUlvKTNdhHjS65HqkxxaWFOPKQ4k3UGlKEqPFRI9W6SU77PVNlSvhhpJTvs9U2VK+GHxCXm/ctqGIiu3HkbIRkjtu2anLvuz7MuhirxaZMpkw3bIiW9HYYkH81xrgaHSZs5aeCbWptvmQRrJBrczCV+LIt7Lc3HqTNz5I40iVUIzC7VqdNtdFKbj1NSkGlakPVF9UaHHbYZPOkxo8hSUqSTanl5jnrzSSnfZ6psqV8MNJKd9nqmypXwwf6hLbbtLahk8VzPMd5Wzc9WoVp2o1Cv9NehRqkxPpkWmOsUs6jIacbXOXOZaJK0G9KzuDOTwamlLNbRqQvMy2RrJflloOWak3LcFt5QmaHMllDdcmViqKjtMR0yDYWtSrmkuupUZpLNkwEt/O5kMmrBXsXSSnfZ6psqV8MNJKd9nqmypXwwX6hLULhUSz/yMnda0ZUEu1ei9H+4R+7SGklO+z1TZUr4Y/VtNOsW5SmH2ltuNwmELQtJkpKibIjIyPzGQ4ijhmTVZdcz4o1o4YXXrSdL5TunFS/o9ygAyndOKl/R7lAD55h/zU37ouLO9kd1D5Ir5Nvq6tbqWD3CB175TWTCn5Tbft6HU2KchmFXoDhy3KbEmTGTXJabJMcpTTrKc7OM1mpCiMkEk0mSjMuwsm31dWt1LB7hA0Y+2y3RJkYVAo444Xe+J5VsWdUaPXZlxy7tuK4KXJqDDnHa1FhSadTnUYoN+VLpsRlpbiEkttLLbrseOpvFx1pRoSWxi3baWT+85y8ut525QHLkoiHkMXFWY7bayOdLWcds3nM1ZNIdaSZJM0liX7DId8gLuKpxoZLhWZnmuv21DvWiR66xkupN20qbch3DQW1RUSkQmEuqKTJ4VbRklt7MbfQlolurN9RIQsk4jD2xVa5Y9dgLuC7L2qNPYmLbm1aoxJUV5bT6YjsWG2UuY/IjvSHmCRwLxxjxdUlLKCdZJXswBKj8CHIq61zgucvNgAAKHIAAAAAAAAAAAAAAAAAAAAAAAAAAAAAAAAAAAAAAAAAAAAAAAAAAAAAAAAAAAAAAAAAAAAAAAAAAAAAAAAAAAAAAAAAAAAAAAAAAAAAAAAAAAAAAAAAAAAAAAAAAAAAAAAAAAAAAAAAAAAAAAAAAAAAADZ5HPqisf+G6Z7q2NgMfkc+qKx/4bpnurY2A7KV2F5Hj8M+Ymfc+Jmbg6UUn7hO7yMP2PxcHSik/cJ3eRh+x5PDvnJvmv+YTnSO5h9eLAAA4xqAAAAAAAAAAAAAAAAAAHQuU7pxUv6PcoAMp3Tipf0e5QA+aYf8ANTfui4s9BI7qHyRXybfV1a3UsHuEDRjOZNvq6tbqWD3CBox9sg7KLT+9i82Y2mQ7guCVV5B3xWILcapPRWmIrEI0IQjDDncjrUZ8/wC1Rjn6LVz1k3H2FO3ULM/2711K/wC0L9uk7RoKam2skPOyo8Vk3IEqUybjjhJJLpxkLUyhWObwykmhs1EpRGRZpxDDVF501y4mklRfwuQ0WrnrJuPsKduoaLVz1k3H2FO3UeZb48qfKbQMoMqzoF2ZO4uKam6wzLp0Zx1jizq0NMuEqvMSHFLJGOKIpGeJZiHCJRp2WU/ylcoVqVbRu0smsKpyHmozLNQdRW5LaJT0Un/nMU+mSSNCSMizOHS4rnMkkkjUWmJfTOJl8Odumb/4rkd0aLVz1k3H2FO3UNFq56ybj7CnbqOkqf5VN5rsG9L0rWSJ6Em04rijNhVQaJTiTUSnF/K0KnNk0kyI1JQ8t4iPA2yMyGrgZTModw1an3BSnaFTbYdk0iM/SptN41UHCmEkzcRNiz1RkkROJMiS26RkX63PzRiqaeJZYYouzR//AFXI7C0WrnrJuPsKduoaLVz1k3H2FO3UdMXz5Z1l2TlMcsSRFpz0WDLXEmzDumhxlpWlvFRKZlz2HWcxeBYrQZLLHMxPAj7PsfKO/elyT4DMSM1T48IpDC23OFU4opkqOas8jzTSpMdKiIi5s4+dXMDl0VXxJhwtROyqV8lyLGi1c9ZNx9hTt1DRauesm4+wp26jRgK2Ua46K5bFyM5otXPWTcfYU7dQ0WrnrJuPsKduo0YBZQx0Vy2LkZzRauesm4+wp26hotXPWTcfYU7dRowCyhjorlsXIzmi1c9ZNx9hTt1DRauesm4+wp26jRgFlDHRXLYuRnNFq56ybj7CnbqGi1c9ZNx9hTt1GjALKGOiuWxcjOaLVz1k3H2FO3ULPfqfGbhplTrEmp/JlUTHYfkNsoc4NUOM7gfBIQk8FOr583HDAaMZy1vpy8eumv8Ap0MRSjRZRuOGKqWi5Xo0YAAuYAYa0aZctftSi12ZlGr6H6jT40t1LUenkhK3G0qUSSOKZkWJnhiZjcjC0SszrdyKUiuUyhy6xKhW5EeahRVMpdeUUdHMRvONt/4nitPMR4c+BCjVYkjaCKxLiip4rwTvK+i1c9ZNx9hTt1DRauesm4+wp26jzjcPl0xbfqLEGdazMJ9qJTVTYdQrNFhvcZfdInkpN+pt/o0t+ZxtLyCUoycUg21kWivXyqbrpxW9NsfJi1VadcCY7sd51yqzTWSzWa0Ido9OnwnDJLalYtSnVERGZt82A0xL6Zxsvgz6P/K5Hdmi1c9ZNx9hTt1DRauesm4+wp26jpO2fKjvVKbgqWUzJrFtajUpp+QzOkorsJtaSS2TSDdqNJix/nuLzc5bzai8/B4JNR/q9vLItaw36HSp8eDUpMwozkqaxXqJCiyWloVnOxW51SZf4M1p+Y8tHBKTzpWojIzjEvR+ScuhpXN/5XI7q0WrnrJuPsKduoaLVz1k3H2FO3UefstXlX3DaEW2avaUi26RAuCgvVlpNbdpMtbppWRISh35ciMLSaTxxjuSTPOLmLmI7Xkw+UNdeWW4KnSq/U7XnMw6THnkqjtQkqZdcWaTQvitXqBYYFzE4TK+Y/mnz4TiqKv5Cw5OOwkq+S5Hc+i1c9ZNx9hTt1DRauesm4+wp26jRgKWUb46K5bFyM5otXPWTcfYU7dQ0WrnrJuPsKduo0YBZQx0Vy2LkZzRauesm4+wp26hotXPWTcfYU7dRowCyhjorlsXIzmi1c9ZNx9hTt1DRauesm4+wp26jRgFlDHRXLYuRnNFq56ybj7CnbqGi1c9ZNx9hTt1GjALKGOiuWxcjOaLVz1k3H2FO3UNFq56ybj7CnbqNGAWUMdFcti5Gc0WrnrJuPsKduoaLVz1k3H2FO3UaMAsoY6K5bFyM5otXPWTcfYU7dQ0WrnrJuPsKduo0YBZQx0Vy2LkZzRauesm4+wp26hotXPWTcfYU7dRowCyhjorlsXIzmi1c9ZNx9hTt1DRauesm4+wp26jRgFlDHRXLYuRnNFq56ybj7CnbqGi1c9ZNx9hTt1GjALKGOiuWxcjOaLVz1k3H2FO3UNFq56ybj7CnbqNGAWUMdFcti5Gc0WrnrJuPsKduoaLVz1k3H2FO3UaMAsoY6K5bFyM5otXPWTcfYU7dQ0WrnrJuPsKduo0YBZQx0Vy2LkZzRauesm4+wp26hotXPWTcfYU7dRowCyhjorlsXIzmi1c9ZNx9hTt1DRauesm4+wp26jRgFlDHRXLYuRnNFq56ybj7CnbqGi1c9ZNx9hTt1GjALKGOiuWxcjOaLVz1k3H2FO3UNFq56ybj7CnbqNGAWUMdFcti5Gc0WrnrJuPsKduoaLVz1k3H2FO3UaMAsoY6K5bFyM5otXPWTcfYU7dQ0WrnrJuPsKduo0YBZQx0Vy2LkZzRauesm4+wp26hotXPWTcfYU7dRowCyhjorlsXIzmi1c9ZNx9hTt1DRauesm4+wp26jRgFlDHRXLYuRnNFq56ybj7CnbqGi1c9ZNx9hTt1GjALKGOiuWxcjOaLVz1k3H2FO3UNFq56ybj7CnbqNGAWUMdFcti5Gc0WrnrJuPsKduoaLVz1k3H2FO3UaMAsoY6K5bFyM5otXPWTcfYU7dQ0WrnrJuPsKduo0YBZQx0Vy2LkZzRauesm4+wp26hotXPWTcfYU7dRowCyhjorlsXIzmi1c9ZNx9hTt1HGhN1qkXpApMq6qlVYk2lzpC25jMVOY407FSg0myy2fmeXiRmZeb9w1gzk/6xaH1LVe/gCGqZ0XgjcbaaWh+Cuf8ABowABc45s8jn1RWP/DdM91bGwGPyOfVFY/8ADdM91bGwHZSuwvI8fhnzEz7nxMzcHSik/cJ3eRh+x+Lg6UUn7hO7yMOLV57tNhcZYjofcU8yyhC3DQk1OOJbLFREeBFnY+Y/MPI/qESgwqdE9Ca/5hOfg6rKgS6zs5oCXxi6PQ9L2k58AOMXR6Hpe0nPgDh46G57HyNrD6aKgCXxi6PQ9L2k58AOMXR6Hpe0nPgBjobnsfIWH00VAEvjF0eh6XtJz4AcYuj0PS9pOfADHQ3PY+QsPpoqAJfGLo9D0vaTnwA4xdHoel7Sc+AGOhuex8hYfTRUAS+MXR6Hpe0nPgBxi6PQ9L2k58AMdDc9j5Cw+mioAl8Yuj0PS9pOfAHKpU75TpcOpcFwXG47b+ZnZ2bnJJWGPNjhj5xMM2GJ2VWvk1xIcLSqdH5TunFS/o9ygAyndOKl/R7lAD5xh/zU37ouLO/kd1D5Ir5Nvq6tbqWD3CBoxnMm31dWt1LB7hA0Y+2QdlFp/exebM5Zn+3eupX/AGj55SqNXrgsqo0q2FxUVNzgVx1SkmpslIdQs8UkpOceCTwTnJIzwI1JL5xfSzP9u9dSv+0aMIMyRGEKsbXWg8s3NkTy4NsR7hauOqVE3qdwEu36TOfTwsyRxpUla0uVGLAJklyEZxnHfcMm/mEWBEOZlJyVZSr1ZctZNsVFyNUJyJDqXUW9JorjceMhhopRz48p9pw1M8IlbMR7AnCSoiMzNv00A1ts4bweGlKs86WBktu6mZLbkyUVq1ay0mNxqXSlExQIVLdcWhRNx46KaTJrSTh8Ibj8Zg1LwUaUfqFsJ9rXRS7Xq1ZpdmrkVJy4otTj0WA7FbdXHjONJIkqccQxnrJtbx5y0li4ZGeOOPbYCHE2XUmGFUqeebvyJ5SLnfptxyK3WJNx5iE8K3etSpUWCfEW21OGzEVwWfxjhV5rbRk4RklSiSZ4b7J7bNVpF9XFNdt+qU+mpjtxI8moPxXDnunKkyHXWiYcWpLWMgiLhSQvm5082J9kAIcTaoFKhhitIAACDUAAAAAAAAAAAAAAAM5a305ePXTX/ToY0YzlrfTl49dNf9Ohir0o1l9mPy/KNGAALGQHW/yc7VvJ/hU1ilVipuyLYittxKRUeIzHlHHRglt/hmeDPH9puoLDEsefA+yBnMm31dWt1LB7hAroiXVxpSsqJfyuDPO1a8nG9uONwbMsOmU6kx4lE4NuPlFqttMJdjYLfQmJTGXGlqNRH+nVgslKxTjmkY7ElZKbllwqY9UF1qNKao0+nSWIVwJrvFW1JRmtMu1ZkkyVu5qs5yS0ozxzVKJCU4d0ANHG2cVSIYdB5byUeS45bVMuW5YlKqtHn3Eg6Z8gSjolANUBKk5in5VvxCW05ibq/wBA8RLLg0rwPHNqzsjWV+PMbpxEq54UKA0zHlllSue2UJXwrylJJpl2c6+okqaJTjz2PMRJIk/NT6PALbIWDwJUR5+uHIdfd9W3AZrtfr1HkxbfYiyvk++KzxmfJSwec0ptuQ1Eb/SfNU8tL6nUqVjwZkShayRZHbmyc1enPTKpU6vBKDmG7UL0rT70JXBoLgDgvvvw5PziXg8k2MxOaSW1GRrV3OAW3ShZSIE7XiAABU1AAAAAAAAAAAAAAAAAAAAAAAAAAAAAAAAAAAAAAAAAAAAAAAAAAAAAAAAAAAAAAAAAAAAAAAAAAAAAAAAAAAAAAAAAAAAAAAAM5P8ArFofUtV7+ANGM5P+sWh9S1Xv4ArFo2Gsntej4M0YAAsZGzyOfVFY/wDDdM91bGwGPyOfVFY/8N0z3VsbAdlK7C8jx+GfMTPufEzNwdKKT9wnd5GE65Po5n7/AAfemhRuDpRSfuE7vIwnXJ9HM/f4PvTQ8b+q9/hHX+EJ2OC9iDrxZUAAFCwAdW5bKtWIL9CiwL7u614bhTJM2Ra1EZqtQeJtKCQ2mO5ClqUnFzE+DazubzkRGOvMjV+6WXBQymZc8tjsqZIkkzSbisaPAp04mTcxbOYqgxSNRoQazQ28lZYGWJ5pjVSnFDbX55FHGk6HpUB49n+W5VHbloSIlwZBaVDfcnIlwanlbSxIbzE4ITNSdMUcRwjL9QjXirFJnzYjsmr+UJlALJ/bV/2lkvo1wQK20/xp+nVmqVFhp1Dqm0cWOm0iW9JaWSFLJ5TLSMM39qiIWeDTIaVWkhTIWd8gPO+RnLnlpu2uUq0royVNmjBw6hWls3FT1IZLHNczKhQYcZxeJtpNCX0qPFS0owI0l5wubyxMqEW463b7GVe1KdGrlQltLbUdBN6kEweYaGVyLrZdaNwkYKJ9EdSVGo2221mZFaDBY4onDoIc2FKp/RcBgcg171PKNkitq9KwqEuXU4y1OLh4cCvMdWglIwfkJMjJBHil91J48ziywUe+HHiVltM0TqqgS7V6L0f7hH7tIqCXavRej/cI/dpGMXew+T4ouuy/T8nTOU7pxUv6PcoAMp3Tipf0e5QA+c4f81N+6LizvpHdQ+SK+Tb6urW6lg9wgaMZzJt9XVrdSwe4QNGPtkHZRaf3sXmzOWZ/t3rqV/2jRjOWZ/t3rqV/2jRhDoE7tsDMovOZJelIplj16czFkuxTfZchJQtbajSrNJyQlWGJH50kNMM5Y/8A+DU+uqj7ysHWtBAkoXE1XQNKa56trj7enb0GlNc9W1x9vTt6GjHUvlA5TLsycUynybTl0aMtaJEqa7U4jD6ERmuDSZkciowGW8FPJM1LfLmLAkqMyEqFt0qVjnQQQ2nAt/M2+lNc9W1x9vTt6DSmuera4+3p29Dz9ZWV7LDXK5ErlWyn2kumyIZz41EjWy0aZzCkKQhZSolUmkWL7ZNp4E5ClLdIiQozzU8iyspWVW/nlWnUco1TpjpVxumlUYGTWbQ5RN8XW8pXC1ZL8ZSjPBPBkwlwkln4ESiwtinf1sMVhkt0/Z1/6O+dKa56trj7enb0GlNc9W1x9vTt6HWVEve7aSwdsyriui66wU2uQGc2lRGpUxth1RNLbkkwzTkSmyTzNOqbStGcoyUaeeRkpvO/Kxc8V19WW2qwv0yXWa8dktxSQlS2uGWmEpEpTfCNqJK28UqMubOSIxbvLZVBVKxx5ncmlNc9W1x9vTt6DSmuera4+3p29Drwss+UVV8nSE+T3lB4s1SSkrh8dtzhc9TxpS7j8p4ZuCFpwz8cf/LzYjm1zKnW5dnN35b1JrlHQ1S6lJOJUqYzMjm+wThGy+cV5S23ErZMyUlzglJNSSNS1IzWLiv4E5TL1P8ArmbbSmuera4+3p29BpTXPVtcfb07eh0dkvyxZVLpvoodQvOBOosyQhcNL+Sa4KKmbGRHz3uKypDykJWlRLPMcJw15qs3NIyw/FQy45VJdHrT9n1SnVySw4hDKJ2T64LURE/8QhCkqlzW5TL7vz0o4HMbUeKlF+rmicVFf1sKrDJbVbC2v+x3ppTXPVtcfb07eg0prnq2uPt6dvQ+OTy6q7ddImvXNQYFIqlOqMinSY0CornR85sy+ch5bLKlEZGXnbTgeJc/nGpFHC148DZTYIlVQrfzM7Fu6QuqwqVUrRrNMVUFLbZekriLbNSUKWZHwT61F81J/swGiGcuLpNan32T7o8NGENc6ZMxKkLSpVflgZy1vpy8eumv+nQxoxnLW+nLx66a/wCnQwelCX2Y/L8o0YAAsZAZzJt9XVrdSwe4QNGM5k2+rq1upYPcIFX2l1carun5r8mjAAFjIAIF7zKhCoKVUye5CffqFOicYaQhS20PTGWlmknEqTjmLVhikx89Fq56ybj7CnbqKuLPShrDLThtOJLb+F/JowGc0WrnrJuPsKduoaLVz1k3H2FO3UKu4YuHXW/kaMBnNFq56ybj7CnbqGi1c9ZNx9hTt1CruGLh11v5GjAZzRauesm4+wp26hotXPWTcfYU7dQq7hi4ddb+RowGc0WrnrJuPsKduoaLVz1k3H2FO3UKu4YuHXW/kaMBnNFq56ybj7CnbqGi1c9ZNx9hTt1CruGLh11v5GjAZzRauesm4+wp26hotXPWTcfYU7dQq7hi4ddb+RowGc0WrnrJuPsKduoaLVz1k3H2FO3UKu4YuHXW/kaMBnNFq56ybj7CnbqOTZFRmVezKBVqi9wsubS4sh9zNJOe4tpKlHgRERYmZ8xFgCiz0oRFLpDaTT2/lFoBmrocqr1aolHp1dl0tuaqQbzkVthS1EhsjSX6ZtZEWP7ixH60WrnrJuPsKduoWs9KE4pUTcSVfPyuNGAzmi1c9ZNx9hTt1DRauesm4+wp26hV3DFw6638jRgM5otXPWTcfYU7dQ0WrnrJuPsKduoVdwxcOut/I0YDOaLVz1k3H2FO3UNFq56ybj7CnbqFXcMXDrrfyNGAzmi1c9ZNx9hTt1DRauesm4+wp26hV3DFw6638jRgM5otXPWTcfYU7dQ0WrnrJuPsKduoVdwxcOut/I0YDOaLVz1k3H2FO3UNFq56ybj7CnbqFXcMXDrrfyNGAzmi1c9ZNx9hTt1DRauesm4+wp26hV3DFw6638jRgM5otXPWTcfYU7dQ0WrnrJuPsKduoVdwxcOut/I0YDOaLVz1k3H2FO3UcmyKjMq9mUCrVF7hZc2lxZD7maSc9xbSVKPAiIixMz5iLAFFnpQiKXSG0mnt/KLQDHxo1er9euJKbzq1OYp1QbiR48RiGaEoOHHdMzN1hajM1ur/APN+4c3Rauesm4+wp26har4FnKUOmJb/AB9DRgM5otXPWTcfYU7dQ0WrnrJuPsKduoVdxGLh11v5GjAZzRauesm4+wp26hotXPWTcfYU7dQq7hi4ddb+RowGc0WrnrJuPsKduoaLVz1k3H2FO3UKu4YuHXW/kaMBnNFq56ybj7CnbqGi1c9ZNx9hTt1CruGLh11v5GjAZzRauesm4+wp26hotXPWTcfYU7dQq7hi4ddb+RowGc0WrnrJuPsKduoaLVz1k3H2FO3UKu4YuHXW/kaMBnNFq56ybj7CnbqGi1c9ZNx9hTt1CruGLh11v5GjAZOE3WqRekCkyrqqVViTaXOkLbmMxU5jjTsVKDSbLLZ+Z5eJGZl5v3DWAnUrHBYpnrUAACxQDOT/AKxaH1LVe/gDRjOT/rFofUtV7+AKxaNhrJ7Xo+DNGAALGRs8jn1RWP8Aw3TPdWxsBj8jn1RWP/DdM91bGwHZSuwvI8fhnzEz7nxMzcHSik/cJ3eRhOuT6OZ+/wAH3poUbg6UUn7hO7yMJ1yfRzP3+D700PG/qvf4R1/hCdjgvYg68WVAABQsYS+rZv6r3DCrFn1SjwlQ4D8Jh2clx3i7shxHCyeCSRcKpttoiQg1oJRuqzlESSJUim2blBptw0OnRqNb7dr2bGeOlSl1592fVJCoptJ4y0cNKI5ZzjilLQ68Z8x5vOaS7SAXUbSoVsrSdB0fJp5RMC7eUVN1WqhDDElMaxp8qbVIjLzzme6titqSy+1wuCPmuQ30MkRpaRmmORduQ1WWaBSqXlZyMZKIbUdTqpEhlXy5IjtqfJxbMRb8GPwJvc6lvedJ44IWZktPegC2OirVaSLC0Hm6H5MUe1soS5uTrI3kktenLrCKjGuunQ4zddpjHAoQ4xGiqpi2UmpSVES+MFgTqlZuPzVXpfk8X8VftybS/KUvxmFRilkZfJ1ttuME62SSJlCKQTZ4njnZ5HzebnHeYA58b6rxFhGdsO0X7IoCaC/dVTuA0vOvFKqEWDHdLPUajTmQo8dnDONR48HnGajMzMaIAGbdXVllmAl2r0Xo/wBwj92kVBLtXovR/uEfu0jGLvYfJ8UXXZfp+TpnKd04qX9HuUAGU7pxUv6PcoAfOcP+am/dFxZ30juofJFfJt9XVrdSwe4QNGM5k2+rq1upYPcIGjH2yDsotP72LzZnLM/2711K/wC0aMZyzP8AbvXUr/tGjCHQJ3bYGcsf/wDBqfXVR95WNGM5Y/8A+DU+uqj7ysHpQh7uL0/Jox17lRsWs3dHmnR6VRpLy6ehho5lUnQXVuJkodJCJEU8+IRZmdwzZLWa+DxTg2RK7CAWToYRQqJUZ57yZZCLvs5mNUanbtvvValSVvRJE676nV5szhFOuKOTOXHYzkIccSptlUdxKTJayUS155aWbkZu2nFBq1k3fSoVfeqJVWsyKnTHZUOVMNLhKfTHbeaXnEl02kp4VP6NLWKj4MiV2xPccZgyHWoj8paGlKSwwtKXXTIuZCFKUlJKPzEZqSWPnMvOP5/eU9fdcYnW1Ht/KnelmsrpbKyamXW1GnfppjzCm3sa5DadVHzMScQl81ZpG+/m/OPSGsbOLNsSINFdx6XcyXZbmaS2lm6rReqUefV6k45GiyYPHXZnDISTS1KkcRzEOkrOUiXissM3AsTn2Lkxyx2/cdEuCu0GlTp1IiuQE1BzKTMcI4ik8zHyezRo8Ek4paLOQ02v9GkzUoyPO66TfOU08mFgXHb1wX1xF2X8mKnW7UaHIRKcdnqYwefrFQm8M4tCU8ESHHW0qMz4ZSTIk9hxKHUG5lFvhq4bybuCXd8unOM1C5Jr0XMS3KSlt2ntSSgngbaMUtpSnOTilRfrCc/iVhcMTVE/A7BboOUegsT7rp8O37ju+rrabfYm1R6mQIcRvPNthhxEaQtWYa1GalII3FLUo+DLNbTnqnkovqbRrXo3HKG4zS4LxVIlvOpN6U84hbvBKNtRkk0E61nn84ifUrN+bmnhzypVq1Ml1zT74y62uyqe029Qp8ynHSOLTJJG+cXOdqby5HBIUgzaSpBpSeaTii/Ut3NlokUW3bNqTl5MXtIqVaN1mo2RbVVXSpkdLL6SYUuGc8seEIsU56lHm5xNnmGISfgaW4Gs/FXmutvJ7f1t3Em5DqFvzkTFvkumYSWGaOmQ7wry4rhqcJ4zURZyVtt56udKmE/ohFh5Er/iViBVqnf8GuNoYJVThJpyacxOfjvqkQ8DLhnUZzri1PLW46RmX6NtBKNI5GS7KhBuuvNTqlW70qM6rpW1EYRYdbplEhtEZrwJ6TFJCl4JJKn3XCzjT8xDRLNsdyCrbReCGCNVXEy2TmiXDRqJJXdbFOYq1TqMqoyWKfJXJYZN1wzS2l5bTSnM1OaWcbaMcPMNSACuk2SoqGcuLpNan32T7o8NGM5cXSa1Pvsn3R4aMVh0s2mdmDy/LAzlrfTl49dNf9OhjRjOWt9OXj101/06GD0oS+zH5flGjAAFjIDOZNvq6tbqWD3CBoxnMm31dWt1LB7hAq+0urjVd0/Nfk0YAAsZGcv76Di9dUf/AKjHGjGcv76Di9dUf/qMcaMVXaZq+6Xm+CAAAsZAAAABOq1wUahLjIq89EXjanCbUsjzSJttTi1KURYISlCFGalGSS5ixxMiOiOk8vbDse4qDUqlV6NBoD0WRCmKuCvsU+npczkONKQ2TCpUiQk0cITbT8dJkyWKyMk4SlVlI4rENTZUrLnkmuGUzHta94NwsucLws6hpcqUCHwaM9XG5kZK48T5vOXDuIzsDzcRIb8qXyanZz1OTl9yfE6w2h1SlXHES0ZLNRESXDXmLP5p4pSZmnmxIs4sfM3k6WTdcTKRT25NDrnHLe4eouJkfKPBklLammGzJ25nyYNxhSUMnJhFnNpPmMkKUWxrVv5W6/Z1VvZu16WisS6nMamTYeVG4KIlEopqoiU8UgMpQ+htttpKVrcJRknHAvMejghrQ4sM+bFDWm5nqG1rytC+aX8uWTdVHuCmm4prjlKnNS2M9P6yeEbUpOJYliWOJCwMXkft+67UsCmW3eSlu1GnI4BUl64364/KSX+telvx461uKMzMyJsklzEnmwItoMnpOXA24U2AAALAAAABnMm31dWt1LB7hA0YzmTb6urW6lg9wgVfaXVxqu6fmvyK50wtn/ne6IaMZyudMLZ/53uiGjBaWJnZg8vywAALGQAAAAAAAQbvv+w8n0RioX7e1AtqLKc4Fh+sVJmG265hjmJU6pJKVgRngXPgQytkeUdkNyhSo9MtjKrakmqypL0RimJrcRcx5bS1JPg2kOKNaVEg1pNOJGkyMh8sqk+uM3FSlWkbjtXpFKn1fi7LaXXHmm3I5GzmGRni6We2RkWOJ83OQ/VrSLkXeMqnVydMag0Jc6p57so8HmJbhnFS4RK/VbQUgsxf6uYg8CIkmLUVDFxxW6LR5e583fKPyYtyERkMXvIN152OwuLYFekNSFt52eTTjcNSHSLMUeKDUWBGZHhzjc2vdFHvKis3BQly1RH1OIIpcF+G8haFmhaVsvoQ62olJMjJSSPmHkuBkxygT1WZUYFpm7Gq8uXMhLPLZcsDhm3WH3Uq4vHjm1CxQrHNYNRf+TEyMzHonITAm0vJ41TqjH4CVGqdTaea+VZFTzFlNeIy43ISl6R/8jiSUrzmWImKFJZikmZHHFSL8/xedggAChyQAAAAAAADOZNvq6tbqWD3CBoxnMm31dWt1LB7hAq+0urjVd0/NfkWt9OXj101/wBOhjRjOWt9OXj101/06GNGEOgTu0vJcEAABYyAj1u77dtyVFhVmo8XemmkmE8C4vPNTzTJc6UmRfpH2k8//qx8xGZWB0L5RECq1O87OTT61Lp0KAaZFWdhzYzDzTKqhCJleD8OSlwieSlWZ+iMyQr9JgRpVMKq6FJkViG0jsem5ZMl1cr5WtbV70yv1ZMhUaRFojh1JcJac7HjXFyWUVOKVJz3sxOd83HOMiGmlVmmwqlBpEqTmS6lwvFW8xR8Jwac5fORYFgR485lj+weZ8jdfuNVzQ7SreVOtT2kQXa5Itl2LSnox0V6PntNJbaiFMW6TjpFmcIpWYkjUR8IjOw955PMhacpdEeleT3Dosxk5aYlHj5LZkmCpJMpU3xpUWEtiUpZq+ebZukwXmMlpUo72FWhx8ois2qePlzPaUuqwIMyFAlP5j9RcW1GRmqPhFJQpaixIsCwSlR8+Hm/ePxArlLqc2oU2FLJyVSnUsTGjSpKmlKQlaeYyLEjSojJRYkfPz4keHnS48lNs3NUrFp1r5C7AtSKw/UIyyqlvkT0V7i7ynGGWWEMlwS8TcTKakcy8D4NSsc2Fk0yFVVN6NxZWSHJVaUm1c9ipVm2ls8bJyRFNaHIWbS47jakE6SCN19wiRnEtDy8HCiyqaS+OjtUpx5HqCLdtszUzXYtchuM05pL0p8nC4FttWdgo3P1MPmKxMj5sDxwHJpNapldjuyqVK4dpiS9EcVmKTg60s0OJ+cRY4KSZYlzHhzGZDwXYmSedS7+WiFTbejzrlpKzpbMeTQSqUht2E+slLS3QYrhJMiSTq2pDeapac5bhHiPZWSQjTb9VSZc5XFWCP8AGuhFCoRJnObpVDbgAChyAAAAM5P+sWh9S1Xv4A0Yzk/6xaH1LVe/gDRisOlmszsw+X5YAAFjIDOT/rFofUtV7+ANGM5P+sWh9S1Xv4ArFo2Gsntej4M0YAAsZGzyOfVFY/8ADdM91bGwGPyOfVFY/wDDdM91bGwHZSuwvI8fhnzEz7nxMzcHSik/cJ3eRhw65DlToBMwiaN5EiO+knVmhKuDeQsyMyIzLEkmWOBjmXB0opP3Cd3kYfseR/UYVHhU6F+LX/EJz8HdJUD60sl8Yuj0PS9pOfADjF0eh6XtJz4AqAOHi4td7uRtaV3HmS+MXR6Hpe0nPgBxi6PQ9L2k58AVADFxa73chaV3HmS+MXR6Hpe0nPgBxi6PQ9L2k58AVADFxa73chaV3HmS+MXR6Hpe0nPgBxi6PQ9L2k58AVADFxa73chaV3HmS+MXR6Hpe0nPgBxi6PQ9L2k58AVADFxa73chaV3HmS+MXR6Hpe0nPgD70WE7TaNApz6kKcixWmVmgzNJqSgiPDH9nMOaAmGXSK023s/CQcVVRI6FyndOKl/R7lABlO6cVL+j3KAHzjD/AJqb90XFnfSO6h8kV8m31dWt1LB7hA0YzmTb6urW6lg9wgaMfbIOyi0/vYvNmcsz/bvXUr/tGjGcsz/bvXUr/tGjCHQJ3bYGcsf/APBqfXVR95WNGIUuwrFnynZs+y6DJkPqNbrz1OZWtaj85qUacTP/ABMGnWqEEUNlwxePX8F0BnOTbJ1qDbmymPCHJtk61BtzZTHhCsVwpKvez3Ls1uU9DfahSUx5C2lJZeU3whNrMjzVGnEs4iPA8MSxw846TkZA8oEeI7SaRlNoEuG83GQ5Jrtsynqi4ph9chtRvwKjCaTmvOrUng2UGRGRGasMR2fybZOtQbc2Ux4Q5NsnWoNubKY8IlRRLR1uKRSpMelvZ7mStTIxIh0Wn0C/K7Br8GmtyiaixoUplp1+QayXIeXLlyn3XcxxaSUp4+da1c55uZxIuQmuxKrBnIy1XU5Cg1d6rN0t2FTVxyUtt1BGThxuMG4Ru5+et1STUR4t5p5pbjk2ydag25spjwhybZOtQbc2Ux4QtR9f/hGJkXvZ/wD0YZjyeY9IXDlWllNu6gT0PPSZ9QjKhvOzHHG0oMyjvsLgxsSSk1FHjN5xpSfNz40V5J7jj2zSqNTsorj1TptwOVxVXqdKaedkcIp3PSpthTDROZryiJaUkglERm2ZYpPUcm2TrUG3NlMeEOTbJ1qDbmymPCFuPr/8CkyFob2f/wBHDpFj1a26lGkW/dz/ABF1w3KtBnxG3kS3DSrPfZNrgijPrczVrzSNk/nmTKVrNwteM5ybZOtQbc2Ux4Q5NsnWoNubKY8IisV3WwuoJS0N7Pc0YDOcm2TrUG3NlMeEOTbJ1qDbmymPCFYriaSr3s9xcXSa1Pvsn3R4aMRqbZdnUaWmoUe06NBlIIyS/GgNNOJIywMiUlJGWJcwshCmq1ImRQuih8F+WwM5a305ePXTX/ToY0YzlrfTl49dNf8AToYPSiZfZj8vyjRgACxkBnMm31dWt1LB7hA0YzmTb6urW6lg9wgVfaXVxqu6fmvyaMAAWMjOX99BxeuqP/1GONGIF7w6hNoKU0yA5NfYqFOl8XaWhK3EMzGXVkk3FJTjmIVhioh89Ka56trj7enb0KVpEbqFxykk1pfildeaMBnNKa56trj7enb0GlNc9W1x9vTt6E2kVxMV62rmaMBnNKa56trj7enb0GlNc9W1x9vTt6C0hiYr1tXM0YnVC3Leq7ypFVoVOmurYOKpciKhxSmTUSzbM1EZmjOSlWb5sSI/OQm6U1z1bXH29O3oNKa56trj7enb0FpEYmJ3bVzPnCyX5M6c1RmKfk7tiK3bjq3qMhmkR0Jpri/11xyJH6FSv2mjAz/aOVUbCsarqgLq1mUKaqlTF1GAcinMuHElqUalPtZyT4Nw1GZmtOCjMzPEfHSmuera4+3p29BpTXPVtcfb07egt9ZyMn8M21czRgM5pTXPVtcfb07eg0prnq2uPt6dvQWkWxMV62rmaMBnNKa56trj7enb0GlNc9W1x9vTt6C0hiYr1tXM0YDOaU1z1bXH29O3oNKa56trj7enb0FpDExXrauZoxnMm31dWt1LB7hAaU1z1bXH29O3ocmyKdMpFmUCk1FngpcKlxY77ecSsxxDSUqLEjMjwMj5yPARWsRZw2JbTa0rxTvuONXOmFs/873RDRjNXQ3VWa1RKxTqFLqjcJUgnm4rjCVpJbZEk/0ziCMsf3HiP1pTXPVtcfb07egrRsmKBxww0a0Xq9/yaMBnNKa56trj7enb0GlNc9W1x9vTt6E2kUxMV62rmaMBnNKa56trj7enb0GlNc9W1x9vTt6C0hiYr1tXM0YDOaU1z1bXH29O3oNKa56trj7enb0FpDExXrauZ97lsWyLzivwbws6h12NJS2h9mpU9mUh1LajU2SkuJMlElSlKTj5jMzLzjOU3ye8gdGmt1KkZD7Agy2ceDkRrahNOIxIyPBSWyMsSMy/9jMXNKa56trj7enb0GlNc9W1x9vTt6E2/PeVeDVdXTauZTqdu2/WoJUys0Knz4ZNrZKPJiodaJtSDQpOaojLNNBmkywwMjMvMY/2hUChWvSY1AtmiwKRTIaODjQoMZEdhlOOOCG0ESUliZ8xF+0S9Ka56trj7enb0GlNc9W1x9vTt6EW0TiHWubauZowGc0prnq2uPt6dvQaU1z1bXH29O3oLSJxMV62rmaMBnNKa56trj7enb0GlNc9W1x9vTt6C0hiYr1tXM0YDOaU1z1bXH29O3oNKa56trj7enb0FpDExXrauZoxnMm31dWt1LB7hAaU1z1bXH29O3ocmyKdMpFmUCk1FngpcKlxY77ecSsxxDSUqLEjMjwMj5yPARWsRZw2JbTa0rxTvuONa305ePXTX/ToY0Yx8aTXqBXriUmzKtUWKjUG5ceREfhkhSChx2jIydfQojJbS/8Ay/uHN0prnq2uPt6dvQJ0JmS3G001oXirl/JowGc0prnq2uPt6dvQaU1z1bXH29O3oTaRTExXrauZoxwKjQKFWEvIq9FgTkyW0MvFJjIdJxtKjUlKs4jxSSjNREfMRniJelNc9W1x9vTt6DSmuera4+3p29BaQxMTu2rmcyPaFpxIkaBFtekMxoUs58ZluE0ltiUalKN9CSTglw1LUeeXzsVGePOYouwYT8lia/EYckRc7gHVtka2s4sFZqj504lzHh5xC0prnq2uPt6dvQaU1z1bXH29O3oLSIxD/jauZ965YtkXPKVNuWzqHVpC4TtNU9Op7L6ziO4cLHNS0mfBLwLOR+qeHORiBRMgmQu2atGr1uZF7EpVThL4WNNg25DYfYX/AOpDiGyUk+fzkYsaU1z1bXH29O3oNKa56trj7enb0Jt+e8h4NV1dNq5liRSKTLRMblUuI8moNcBMS4wlRSG8DLMcxL56cFGWB4lgZ/vHzoVAoVr0mNQLZosCkUyGjg40KDGRHYZTjjghtBElJYmfMRftEvSmuera4+3p29BpTXPVtcfb07ehFpE4h6c21czRgM5pTXPVtcfb07eg0prnq2uPt6dvQWkTiYr1tXM0YDOaU1z1bXH29O3oNKa56trj7enb0FpDExXrauYn/WLQ+par38AaMZOE5WqvekCrSrVqVKiQqXOjrcmPRVZ7jrsVSCSTLzh+ZleJmRF5v3jWCIfFiaqKFfx+WAABcyAzk/6xaH1LVe/gDRjOT/rFofUtV7+AKxaNhrJ7Xo+DNGAALGRs8jn1RWP/AA3TPdWxsBj8jn1RWP8Aw3TPdWxsB2UrsLyPH4Z8xM+58TM3B0opP3Cd3kYfsfi4OlFJ+4Tu8jD9jyeHfOTfNf8AMJzpHcw+vFgAAcY1AAAAAAAAAAAAAAAAAADoXKd04qX9HuUAGU7pxUv6PcoAfNMP+am/dFxZ6CR3UPkivk2+rq1upYPcIGjGcybfV1a3UsHuEDRj7ZB2UWn97F5szlmf7d66lf8AaNGM5Zn+3eupX/aNGEOgTu2wAm3LWFW/QJ9bRFKSqEwt4mjczCWZF5s7A8P/AHwP/wBhO4/lF1Wtzb7+5g4ksxEMqKJWlo80uJowGc4/lF1Wtzb7+5hx/KLqtbm339zC0icTFetq5mjAZzj+UXVa3Nvv7mHH8ouq1ubff3MLSGJivW1czRgM5x/KLqtbm339zDj+UXVa3Nvv7mFpDExXrauZowGc4/lF1Wtzb7+5hx/KLqtbm339zC0hiYr1tXM0YDOcfyi6rW5t9/cw4/lF1Wtzb7+5haQxMV62rmaMBnOP5RdVrc2+/uYcfyi6rW5t9/cwtIYmK9bVzNGAzLVwXTGrVNpldt6lR2am440h6JVXJCkKQ0pznQqO2WBkgy/W/b5hphKaegrHA4KV8fUDOWt9OXj101/06GNGM5a305ePXTX/AE6GIelFpfZj8vyjRgACxkBnMm31dWt1LB7hA0YzmTb6urW6lg9wgVfaXVxqu6fmvyaMAAWMgAk3RWpNApHH4cFuW+uVFiNMuvmyhS35DbKTUskqNJEbhGeCT8w4XH8ouq1ubff3MVcSToaQyoolaVKeaRowGc4/lF1Wtzb7+5hx/KLqtbm339zC0icTFetq5mjAZzj+UXVa3Nvv7mHH8ouq1ubff3MLSGJivW1czRgM5x/KLqtbm339zDj+UXVa3Nvv7mFpDExXrauZowGc4/lF1Wtzb7+5hx/KLqtbm339zC0hiYr1tXM0YDOcfyi6rW5t9/cw4/lF1Wtzb7+5haQxMV62rmaMBnOP5RdVrc2+/uYcfyi6rW5t9/cwtIYmK9bVzNGAznH8ouq1ubff3MOP5RdVrc2+/uYWkMTFetq5mjAZzj+UXVa3Nvv7mHH8ouq1ubff3MLSGJivW1czRgM5x/KLqtbm339zDj+UXVa3Nvv7mFpDExXrauZowGc4/lF1Wtzb7+5hx/KLqtbm339zC0hiYr1tXM0YDOcfyi6rW5t9/cw4/lF1Wtzb7+5haQxMV62rmaMBnKdX7i0ij0Cv0KmxONwpExp2HUnJP+hcZQpKkrYbwx4cjIyM/wBU+YaMSmnoKRQODSAAY+iXJflfosCuw7ToCGKjFaltJdrzxLShxBKSSiKIZEeBljgZiHEkTDLijTa8P5S4mwAZzj+UXVa3Nvv7mHH8ouq1ubff3MLSLYmK9bVzNGAznH8ouq1ubff3MOP5RdVrc2+/uYWkMTFetq5mjAZzj+UXVa3Nvv7mHH8ouq1ubff3MLSGJivW1czRgM5x/KLqtbm339zDj+UXVa3Nvv7mFpDExXrauZowGc4/lF1Wtzb7+5hx/KLqtbm339zC0hiYr1tXM0YDOcfyi6rW5t9/cw4/lF1Wtzb7+5haQxMV62rmaMBnOP5RdVrc2+/uYcfyi6rW5t9/cwtIYmK9bVzNGAznH8ouq1ubff3MOP5RdVrc2+/uYWkMTFetq5mjAZzj+UXVa3Nvv7mHH8ouq1ubff3MLSGJivW1czRgM5x/KLqtbm339zDj+UXVa3Nvv7mFpDExXrauZowGc4/lF1Wtzb7+5hx/KLqtbm339zC0hiYr1tXM0YDOcfyi6rW5t9/cw4/lF1Wtzb7+5haQxMV62rmaMBnOP5RdVrc2+/uYcfyi6rW5t9/cwtIYmK9bVzNGAzlOr9xaRR6BX6FTYnG4UiY07DqTkn/QuMoUlSVsN4Y8ORkZGf6p8w0YlNPQUigcGkAACSoGcn/WLQ+par38AaMZyf8AWLQ+par38AVi0bDWT2vR8GaMAAWMjZ5HPqisf+G6Z7q2NgMfkc+qKx/4bpnurY2A7KV2F5Hj8M+Ymfc+Jmbg6UUn7hO7yMPzKlxYLCpU2S1HZRhnOOrJCU4ngWJnzFzmRD9XB0opP3Cd3kYTrk+jmfv8H3poeP8A1KJwYTPiXhT/AIhOwwZVlwLrSxpVa+slL/GN/wBw0qtfWSl/jG/7ioA4tJustj5mtYbt/sS9KrX1kpf4xv8AuGlVr6yUv8Y3/cVACk3WWx8xWG7f7EvSq19ZKX+Mb/uGlVr6yUv8Y3/cVACk3WWx8xWG7f7EvSq19ZKX+Mb/ALhpVa+slL/GN/3FQApN1lsfMVhu3+xL0qtfWSl/jG/7hpVa+slL/GN/3FQApN1lsfMVhu3+xL0qtfWSl/jG/wC4otOtPtIfYdQ424kloWhRGlSTLEjIy85GP2Jdq9F6P9wj92kRDFGo1DE06p+FNFP5d4aTVUdM5TunFS/o9ygAyndOKl/R7lAD51h/zU37ouLO+kd1D5Ir5Nvq6tbqWD3CBoxnMm31dWt1LB7hA0Y+2QdlFp/exebM5Zn+3eupX/aNGM5Zn+3eupX/AGjRhDoE7tszmUXoLXPuTn/6GjGcyi9Ba59yc/8A0P8Acojk5mxK/JpkyZFksU995t2HwPDJzEGo8zh2XmsTIjL57Sy5/MC7REbpJT/l8EaIB5ccrUGgZPaVZdPygZT6shVZYlUeqwLcTWp0SmxnkoU6koVLUwhGehxKEvtuKNJHmnhglFa7b9u+n1eyZFm21fF5/wD2OoSo1xOwqQTsxDhR1LUcRcmConEJLA0m01zqTgleCiGtg4mPVNB6NAdM5NKtOmUSfKOycplIVWKac568arKotQkyjJBcGppmFJkJz81RqQ03FJkjzsEEasFdYruJvlDakpy3+UOlZ0ZxKn05LM19eDyc1Kmyt756CxUZKUg801KIlFnqJUKCoc9QpNrT140PWgDz7lOYuz5RtviUCoV5humsK+WJ2UWtWxINxTqEEuZApsHgMVLcb51tkX65KQhKDECl0zKJQY1ZdiZTJtciVyVchuQLipNPmU5zi6SI3FpisRXlkpSFo/0yUGRkebjzBZDnUdKddXVPUIDwZlbtK1riyi0qqqt63qilNTY40/Mpp1Jb7LcSIypqRIXQ6mpDaHHiTnPSG05xqxLPInUS8ptDyj/Jdhoyft3bSYEGiRUZ0SFdD1OjJS2+g3onyG/wba0IWaTQ602o1JaIjNpThlZS6+Jk8Kar+3R/J/QcB45yYyX7jr9RqtCs7K5V2pVMmOY3jIrNHp1UcNttHGZhOGqGlK0IxYOKw44ZOEbjTRtktX1yn0enPEnKNfsTIa9RW6NClTKzeOT9uo1FlTqUcBFXKcqDCZbuZwizzUNnmpTmtqNaUiLGehfKP22kt57BAdFZR6XlSjZNKdCtnKBk9i0qVHptNaZi2ZIND7jr6EIOLm1MktNGlSM1vBZkSVYL5yzdladQypwL8Va1+XNalaiu0hdQaco9vyKY4y4l5CCSvhZ0nPSolKPmJOBp85itnNWpqpmejXA0FxdJrU++yfdHhoxnLi6TWp99k+6PDRikOlnJmdmDy/LAzlrfTl49dNf9OhjRjOWt9OXj101/06GD0oS+zH5flGjAAFjIDOZNvq6tbqWD3CBoxnMm31dWt1LB7hAq+0urjVd0/Nfk0YAAsZGcv76Di9dUf/qMcaMZy/voOL11R/8AqMcaMVXaZq+6Xm+CAAAsZAAAAAAAAAeQssFPjUfK1dV1JcisuNQ5Et2oW7Zrsq4mGkw47DzB1FS0tNo4N83ENmhRmoizOEWXBlx8j8CVLyd3DY1+0arSmzqFEafiVIq45SUU9U5ttphEe4MJRKWgl8JmtnHMkESTIyNIvYzVONlDtWaX+J7FAeSqRYmRlV5U+kSciuSxuy1y2kU6/G7Tp5Iq8rOPNp5J4Dgm1mZJLjST4J0zNtokOH8zn5dMtFo25lPYj03K7IpKqVS1U+QxbVy2cxIYkG9nONSWq28SkYJQ0aSbQX7c4/MQWKuiJyikNqJHqYB0x5Pt2zrydqU9+9r8rDCIsd5hu4XLZfjONOqXmPx3qIk0rxNpaTznDww/V/aOfk9ulyoZTblny0Nppd0KSi3ZRGf/AItuAngnyIzIvOtS3EYYkpGeouYjFXDQ0hmqJJ3nbADzF5Qky+6Hc0m+qFFyy0t+npbptOk0FdpHTpRuGREng5SlTH0mpSjJDqTJKiUtKUkRqFa2I9btrJbd0W5tPqdTihqns1S/bmolJY4RajUpXylQFnIazlKJS3VkZmWBJPnwE2M1alMd+5w0eY9DgP5/ZHMrGTiouwHcoWVez5UN+pNMPSqnlbr1Ziy3FHmrYboU7glNxyUlWa9MNwkGaFkp4s1Q9/oUhaEraUlSFERpNJ4kZfswCKGyTJnKcqo/QAAqbAAAAAAABnJ/1i0PqWq9/AGjGcn/AFi0PqWq9/AGjFYdLNZnZh8vywM5k2+rq1upYPcIGjGcybfV1a3UsHuEA+0urgu6fmvyaMAAWMgAAAAAAAAAAAAkXfXCtm1qtcJvQWfk6G7JJc55TUdJoSZkbikJWok83PmpUf7iMx0fb2XbKJPpNdpriqXOrjNQo9Ppk6TZ9WoEdtVQWbee9BmuHIcQ0aVKzkuIS7iSCNBkahKhbM4pkMDoz0OA6OpeWOZTrubpmU2rUCmlbi6vDq9XRKdgU5zgm4TrTxNuvqbaI0ykkaXVOGhRHmrwM8ek7Uy4IcNm3aNliygSajIkPqbp9u3Lk1ksuOuOLcUmMh55claTNRmklmbmHn5xZQNmcWEwwnt0B1nWLhlR8h7MuBW6nWKpcNMbi0mRVUR25kqVMRgyTiYraGiUnPI1cGgiJKFH5iMxQtSsy3MlKWqdTZ7tXokFVJkQKWqMUpqbHQTS0M8ZUlglYkSkcKZINJoM+YxWhrbVafwbwB4tj0zKC3dKsnEUvKJ4nHSmtLpnD2EZNSTcI20pLHgEtYJUso5cxGRLJGHzhV8q29123RLIk1u8VWnUZzRMS4tYykT7frT3nJJIaoxPQCWpzNNcp1KmGyxT8wlEtFsXnpUxeE0hcTVKXnr0B558mS8snFxVerRKXdtqVC52YrLjkGFeky7JsSOsiNSSqktZm60aiRnNMoS22sjxNZrIx6GFYlR0NpcamQ2kAABBcAAAAAAAAAAAzk/6xaH1LVe/gDRjOT/rFofUtV7+ANGKw6WazOzD5flgAAWMgM5P+sWh9S1Xv4A0Yzk/6xaH1LVe/gCsWjYaye16PgzRgACxkbPI59UVj/w3TPdWxsBj8jn1RWP/AA3TPdWxsB2UrsLyPH4Z8xM+58TM3B0opP3Cd3kYTrk+jmfv8H3poUbg6UUn7hO7yMJ1yfRzP3+D700PG/qvf4R1/hCdjgvYg68WVAABQsZq98otpZPY8N+56tHirqDxsxWVyGmlu5pZzqy4RSUkhtslOLUZkSUJMzPzEeWsLyh8n2U19TlklUqjSEVJ6lnXuAS1SnHkLNtHF5TiktzCcWk0p4sbpkfMskYkI2X+fQINasxqRlDh2ZU5c54kz4rVLerTrLcd0yagszWH1vrN1Tacxhlbh5+BFzmOo7KtGxaRlmpt5X6dZbrtTp1TfqFRvG0KLSZLbhNJ4B6NWItMhrVIOMTylIRIU40jOJxLZoPDkwSoXBV6eutJk4moqG3u3y5cltn3RV7UqFHeVKo0x2C+p277UgqU42o0qMmJtXZkJLEubPaSZlgZFgZGezuDyiKTRYFm1GFYFy1pq94zEmnIgTKQl9PC5mCDZfnNuvKSTiVKOOl1KU4masB/P+oZTY1LuBMK28rkmHSJNUqTzbCsqyJR8Atbi2jdebvthC1HnEZqNtgzUfObisc7vmzqFkpvjJnklpMTK3Uafc8RUla1MZUpNQVD4vCkE/LSmJVXWTabXmc5OGltKybUZJUpB8iPB5cCTp1tM4ZkTO3bc8tXJrcmUNzJqzRZESpMSXI8lx+67WWhjgyWpxZttVZb6iQltalpQ0paCI85KRoKV5TtrXm3GeyR2jW8pKHjmcOu2alRloiFHeJozdXJnsp+eZktBJNRmgyUZJxLHA2ZUashNMhKqDtPoEN+IqiXFUWXl0Wc+2qct1xrE0LIj4ePmuOEy3IJJcE6vmMdUVsnZdm0mTVMq1UuSPXodcnroNt0GjVJdzwvlTFxqlwZcSXw6CPNkIJSnfmqMlvZmatFMTBE8y4lrcSPa9hXk3fluN3CigVKirORIiPQKiqOqQw6w8tpxKjjuutHgtCudLiiGhHWfk5MwYeSKiUuBVGJSIBOsGw3EhxHKeeeaihvMQ2WWWX2kqShxCWm8FkrFJDswcONUiaRtC6qoEu1ei9H+4R+7SKgl2r0Xo/3CP3aRhF3sPk+KLrsv0/J0zlO6cVL+j3KADKd04qX9HuUAPnOH/NTfui4s76R3UPkivk2+rq1upYPcIGjGcybfV1a3UsHuEDRj7ZB2UWn97F5szlmf7d66lf9o0Yzlmf7d66lf9o0YQ6BO7bM5lF6C1z7k5/+hVrdHiXBSpNGnvTmo8tHBuLhTn4b6S/3H2FodbP/ABQoj/xEnKQpKLDry1qJKUwXTMzPAiLDzj/eUnJ1r9bm1WPEItJRZy2LimSlZVc74IzD/k75L1TG5VLgVigJQ0tC2rcr06ipkLWvOW9IVBdaXIdUfnW6pZnzn5zMz5z+R6jOQ7Wp0W5rlhRrWiuwmiizktuzI7iEpUh5/M4Yj/RoVntLbXiX62BmR2eUnJ1r9bm1WPEHKTk61+tzarHiFsYrzLJIlogew4b2TluM/OetW76/bCag06TrFOXGdYTIWpKuMttSmXkNOkZLMyQRIWbq1OIWvBRZs8it2HVU1s/KQyk8dTHOKTvErd5mjUSjTh8lYeciPHDEbDlJyda/W5tVjxByk5Otfrc2qx4gxivDwSN/4veZut5B7Lu2GpN8S6xclRcpxU5dSnyiStWatS2pBRmUtw0yGlLNTbyWCWg/1TLE8eZHyPW+zNa4Wr1aRR4tIdo0SiLUwiJGZeSlLy0rbaTIU44SCzlLeVzmZkRGeIscpOTrX63NqseIOUnJ1r9bm1WPEGMV4ySLTYexmNk+TNkleosCmM27EZm0fhlUmquU+HLk0xbjyXVOR25LLkdtRG2gknwXzUoSRYEQ/MzIG+4ukfI+Wa+qKzQ6eqnRGIbNHWhKFpSl1Zm/AcUa3MxJn87Aj/VJJcw2nKTk61+tzarHiDlJyda/W5tVjxBjVeRkcWo9jOs7E8lC1Mni5abdvavRmajF4lPRDpFBprstn9zkqDTmJRn5zzidJWJmeOPOORD8mKj0O4zui0MpF0W/PTERT2ZEam0KVLaiJSlKWDnTKc9MdQRIT/pn3D+aXPzFh2Jyk5Otfrc2qx4g5ScnWv1ubVY8QnG/yQsCaVFA95wKFkwptKlUydVK7Va9IokfgKaqcmK01EUaTSt5DEVllknVEeGfmYpI1JRmJWslfa0rCkW3WJ9fqt83Dc8+c0iOh2rFDQUZhKlKJppESOyjDOWZmpRKWeBfOwIcnlJyda/W5tVjxByk5Otfrc2qx4hGMV5dYNGv8XsYuLpNan32T7o8NGMRMuu1q/dtrxqFctKqTzcuStbcSY28pKeKuliZJMzIsTLn/wARtxWFpt0LzoXCoFEqZvywM5a305ePXTX/AE6GNGM5a305ePXTX/ToYl6URL7Mfl+UaMAAWMgM5k2+rq1upYPcIGjGcybfV1a3UsHuECr7S6uNV3T81+TRgACxkZy/voOL11R/+oxxoxmMo8mNCtpqZMkNsMMVekOuuurJKG0JqEc1KUo+YiIiMzMx9OUnJ1r9bm1WPEKVSiznIUuOOUrKbzvgjRgM5yk5Otfrc2qx4g5ScnWv1ubVY8Qm3DeUxE3Vew0YDOcpOTrX63NqseIOUnJ1r9bm1WPEFuG8YibqvYaMBnOUnJ1r9bm1WPEHKTk61+tzarHiC3DeMRN1XsMrW/J/tC5KjcVWrdfup6VcaXmnFMVhyIiKw6022pppuPwbayImkqSt5LjiVc6VlgWH2TkKtiLSq1S6Tcl3RlVooZrly669V5MZcZ03GlNLqRyMPnHzoUSmz/8ARiajPScpOTrX63NqseIOUnJ1r9bm1WPEJxivM8ki02HsMweSa+DRwZ+UplHzcMM35PtvDD/2+ShuqtTZtSor9Lh3DUKVJea4NFSiIjqksq/9aUvNOMmr/ibUnn8wmcpOTrX63NqseIOUnJ1r9bm1WPEFtPxLLBpi0QveQ42SJo6RUqZW8oF11iRWXmTqVRfdiRpUqO0RkmKaokdlLbWBqIzbShw85Xz+caGuWRbtdoDFuOwzhxoPBnT1wlcA7AW2WDbkdSf9GpJcxYc2GKTI0mZH8uUnJ1r9bm1WPEHKTk61+tzarHiDGK8LBY1/g9jPzSrGiQqumv1it1W4KkyWbFfqTjebETm5p8EyyhtlCjxXi4SOEMlmk15mCS4h5N48ZMqJQrtuOi02YaVLp8GS3wLfzsVkypxtbkdK0/MNLK0JSXzmybWZrHN5ScnWv1ubVY8QcpOTrX63NqseIMYrxk0eq9jIEDI6xCVU5L2US9Jc6ctk4052e0h+C2yThMtJNppCZCEcKs8JaX888DcNeA30do2I7TCnlum2hKDcWSSUvAsMTJJEkjP/AAIi/cRCByk5Otfrc2qx4g5ScnWv1ubVY8Qhxp+IhwaZDohexmjAZzlJyda/W5tVjxByk5Otfrc2qx4gtw3lsRN1XsNGAznKTk61+tzarHiDlJyda/W5tVjxBbhvGIm6r2GjAZzlJyda/W5tVjxByk5Otfrc2qx4gtw3jETdV7BP+sWh9S1Xv4A0Yxca5LduHKLSfkCv02p8XotT4Xicpt7g85+Dm52YZ4Y4Hhj58D/cNoIhdW6EzYXCoVEqZvywM5k2+rq1upYPcIGjHXuT/KBYcKw7bhzL2oDD7FIhtOtO1JlK21pZQSkqSasSMjIyMjBtKJV60EwQRRy4rKrnX5OwgGc5ScnWv1ubVY8QcpOTrX63NqseITbhvK4ibqvYaMBnOUnJ1r9bm1WPEHKTk61+tzarHiC3DeMRN1XsNGAznKTk61+tzarHiDlJyda/W5tVjxBbhvGIm6r2GjAZzlJyda/W5tVjxByk5Otfrc2qx4gtw3jETdV7CrXaHSbmo023q7CRLp1RYXGlMLMyJxtZYKLEjIy5j85GRl+wZFnIdk0ZpFToq6NOlM1hqO1NfmVmdJlumwpSmHONOvKfS62asUOpWTic1GCizE4WeUnJ1r9bm1WPEHKTk61+tzarHiEqYloZV4NHFncD2HxtzJlZNpqgO0Skutv00pXAyH5r8h9apJoN9brrq1LfcWbaMVuGpXzS5x+L1sisXetpMHKbc9tRCaUzIiUlmmqblJV589UqI84k8MSxbWjmP9/OOTyk5Otfrc2qx4g5ScnWv1ubVY8QYxaajJo6UsPYz5wMnlBg1+HcBuzJCqVCRApMV50jjU1skZilMtkRfpFpIiU4s1Lw+ak0pM0n+atYEabWZFw0S4KvbtRmscBNepimMJZEREhbjb7TjZuIIsEuEkl4fNMzSREX25ScnWv1ubVY8QcpOTrX63NqseILavGTR6j2M/BZObSTQVW6mFJJlT3GlSSnP8eORhm8OcvP4fhc35vCZ+dm/NxzeYS6vkxq1YiEy5ldveNJbYSwzLjOQEKb5z4RRtcVNh5S0mST4VtZJJJG2TajNR1+UnJ1r9bm1WPEHKTk61+tzarHiDGK8PBY3/g9jPjbuT+Fa0mC5SK/XSjQ4TcJUF+Zw8Z4m20ttuZjiT4FRJSePAG0lRqUa0qPDDUjOcpOTrX63NqseIOUnJ1r9bm1WPEItwvxJWDzFmUL2M0YDOcpOTrX63NqseIOUnJ1r9bm1WPEFuG8nETdV7DRgM5yk5Otfrc2qx4g5ScnWv1ubVY8QW4bxiJuq9howGc5ScnWv1ubVY8QcpOTrX63NqseILcN4xE3Vew0YDOcpOTrX63NqseIOUnJ1r9bm1WPEFuG8YibqvYJ/wBYtD6lqvfwBoxi41yW7cOUWk/IFfptT4vRanwvE5Tb3B5z8HNzswzwxwPDHz4H+4bQRC6t0JmwuFQqJUzflgAAXMQM5P8ArFofUtV7+ANGM5P+sWh9S1Xv4ArFo2Gsntej4M0YAAsZGzyOfVFY/wDDdM91bGwGPyOfVFY/8N0z3VsbAdlK7C8jx+GfMTPufEzNwdKKT9wnd5GE65Po5n7/AAfemhRuDpRSfuE7vIwl3S60xSUPvuobbbmwlrWtRElKSktGZmZ+YiHjf1bNOwjr/CE7HBexB14srgJelVr6yUv8Y3/cNKrX1kpf4xv+44+Play2o0sRXFQBL0qtfWSl/jG/7hpVa+slL/GN/wBwx8rWW1CxFcVAEvSq19ZKX+Mb/uGlVr6yUv8AGN/3DHytZbULEVxUAS9KrX1kpf4xv+4aVWvrJS/xjf8AcMfK1ltQsRXFQBL0qtfWSl/jG/7hpVa+slL/ABjf9wx8rWW1CxFcVBLtXovR/uEfu0hpVa+slL/GN/3C1ei9H+4R+7SKKZBHNVlp5nxRNlqF1XWc6ZyndOKl/R7lABlO6cVL+j3KAHzzD/mpv3RcWd7I7qHyRXybfV1a3UsHuEDRjOZNvq6tbqWD3CBox9sg7KLT+9i82ZyzP9u9dSv+0aMYmjXDEt+VWodTptcJxyqvvINihzX0LQrNwUlbbSkmXN+wxT0+of2C4/Zuo/AEQxJKjZpNlTIo6qF7DRgM5p9Q/sFx+zdR+AGn1D+wXH7N1H4Am3DeZ4ibqvYaMBnNPqH9guP2bqPwA0+of2C4/Zuo/AC3DeMRN1XsNGAzmn1D+wXH7N1H4AafUP7Bcfs3UfgBbhvGIm6r2GjAZzT6h/YLj9m6j8ANPqH9guP2bqPwAtw3jETdV7DRgM5p9Q/sFx+zdR+AGn1D+wXH7N1H4AW4bxiJuq9howGc0+of2C4/Zuo/ADT6h/YLj9m6j8ALcN4xE3Vew0YDOafUP7Bcfs3UfgBp9Q/sFx+zdR+AFuG8YibqvYaMBnNPqH9guP2bqPwA0+of2C4/Zuo/AC3DeMRN1XsNGM5a305ePXTX/ToYafUP7Bcfs3UfgD52U8qbNueppiTWGJtXQ7H43DdjLcQmDFbNRIdSlWGehZY4f+UxDiTaoXhlxwQxOJNZvyjTgAC5xwM5k2+rq1upYPcIGjGcybfV1a3UsHuECr7S6uNV3T81+TRgACxkAAAAAAAAAAAAAAAAAAAAAAAAAAAAAAAAAAAAAAAAAAAAAAAAAAAAAAAAAAAAAAAAAAAAAAAAAAAAAAAAAAAAAAAAAAAAAAAAAAAAAAAAAAAZyf8AWLQ+par38AaMZyf9YtD6lqvfwBWLRsNZPa9HwZowABYyNnkc+qKx/wCG6Z7q2NgMfkc+qKx/4bpnurY2A7KV2F5Hj8M+Ymfc+Jmbg6UUn7hO7yMP2PxcHSik/cJ3eRh+x5PDvnJvmv8AmE50juYfXiwAAOMagAAAAAAAAAAAAAAAAAB0LlO6cVL+j3KADKd04qX9HuUAPmmH/NTfui4s9BI7qHyRXybfV1a3UsHuEDRjOZNvq6tbqWD3CBox9sg7KLT+9i82AABYyAAAAAAAAAAAAAAAAAAAAAAAAAAAAAAAAAAAAADH0S278oFFgUKHdlAWxTorURpTtBeNakNoJKTUZSyIzwIscCIbABVwpl4ZkUCaXj/CfEznEMoutNubAf3wOIZRdabc2A/vg0YBZRbHRXLYuRnOIZRdabc2A/vgcQyi6025sB/fBowCyhjorlsXIznEMoutNubAf3wOIZRdabc2A/vg0YBZQx0Vy2LkZziGUXWm3NgP74HEMoutNubAf3waMAsoY6K5bFyM5xDKLrTbmwH98DiGUXWm3NgP74NGAWUMdFcti5Gc4hlF1ptzYD++BxDKLrTbmwH98GjALKGOiuWxcjOcQyi6025sB/fA4hlF1ptzYD++DRgFlDHRXLYuRnOIZRdabc2A/vgcQyi6025sB/fBowCyhjorlsXIznEMoutNubAf3wOIZRdabc2A/vg0YBZQx0Vy2LkZziGUXWm3NgP74HEMoutNubAf3waMAsoY6K5bFyM5xDKLrTbmwH98DiGUXWm3NgP74NGAWUMdFcti5Gc4hlF1ptzYD++BxDKLrTbmwH98GjALKGOiuWxcjOcQyi6025sB/fA4hlF1ptzYD++DRgFlDHRXLYuRnOIZRdabc2A/vgcQyi6025sB/fBowCyhjorlsXIznEMoutNubAf3wOIZRdabc2A/vg0YBZQx0Vy2LkZziGUXWm3NgP74HEMoutNubAf3waMAsoY6K5bFyM5xDKLrTbmwH98DiGUXWm3NgP74NGAWUMdFcti5Gc4hlF1ptzYD++BxDKLrTbmwH98GjALKGOiuWxcjOcQyi6025sB/fA4hlF1ptzYD++DRgFlDHRXLYuRnOIZRdabc2A/vgcQyi6025sB/fBowCyhjorlsXIznEMoutNubAf3wOIZRdabc2A/vg0YBZQx0Vy2LkZziGUXWm3NgP74HEMoutNubAf3waMAsoY6K5bFyM5xDKLrTbmwH98DiGUXWm3NgP74NGAWUMdFcti5Gc4hlF1ptzYD++BxDKLrTbmwH98GjALKGOiuWxcjOcQyi6025sB/fA4hlF1ptzYD++DRgFlDHRXLYuRnOIZRdabc2A/vgcQyi6025sB/fBowCyhjorlsXIznEMoutNubAf3wOIZRdabc2A/vg0YBZQx0Vy2LkZziGUXWm3NgP74HEMoutNubAf3waMAsoY6K5bFyM5xDKLrTbmwH98DiGUXWm3NgP74NGAWUMdFcti5Gc4hlF1ptzYD++BxDKLrTbmwH98GjALKGOiuWxcjOcQyi6025sB/fAp1AuLSKPX6/XabL4pCkQ2modNcjf6ZxlalKUt9zHDgCIiIi/WPnGjALKGOi/jYuQAAFjI2eRz6orH/hume6tjYDH5HPqisf+G6Z7q2NgOyldheR4/DPmJn3PiZm4OlFJ+4Tu8jD9j8XB0opP3Cd3kYfseTw75yb5r/mE50juYfXiwAAOMagAAAAAAAAAAAAAAAAAB0LlO6cVL+j3KADKd04qX9HuUAPmmH/NTfui4s9BI7qHyRXybfV1a3UsHuEDRjOZNvq6tbqWD3CB+zrVyS6nUodHodNeZpshEZTsmpOMqWo2W3TMkpYWRFg6RfrfsMfccHkxz1ZlqubrSVwqZDKjiijdFVmgAQ+NX1q7QttPbqHGr61doW2nt1HJyDCLt65nFyyRrFwBD41fWrtC209uocavrV2hbae3UMgwi7euYyyRrFwBD41fWrtC209uocavrV2hbae3UMgwi7euYyyRrFwBD41fWrtC209uocavrV2hbae3UMgwi7euYyyRrFwBD41fWrtC209uocavrV2hbae3UMgwi7euYyyRrFwBD41fWrtC209uocavrV2hbae3UMgwi7euYyyRrFwBD41fWrtC209uocavrV2hbae3UMgwi7euYyyRrFwBD41fWrtC209uocavrV2hbae3UMgwi7euYyyRrFwBD41fWrtC209uocavrV2hbae3UMgwi7euYyyRrFwBD41fWrtC209uocavrV2hbae3UMgwi7euYyyRrFwBD41fWrtC209uocavrV2hbae3UMgwi7euYyyRrFwBD41fWrtC209uocavrV2hbae3UMgwi7euYyyRrFwBD41fWrtC209uocavrV2hbae3UMgwi7euYyyRrFwBD41fWrtC209uocavrV2hbae3UMgwi7euYyyRrFwBD41fWrtC209uocavrV2hbae3UMgwi7euYyyRrFwBD41fWrtC209uocavrV2hbae3UMgwi7euYyyRrFwBD41fWrtC209uocavrV2hbae3UMgwi7euYyyRrFwBD41fWrtC209uocavrV2hbae3UMgwi7euYyyRrFwBD41fWrtC209uocavrV2hbae3UMgwi7euYyyRrFwBD41fWrtC209uocavrV2hbae3UMgwi7euYyyRrFwBD41fWrtC209uocavrV2hbae3UMgwi7euYyyRrFwBD41fWrtC209uocavrV2hbae3UMgwi7euYyyRrFwBD41fWrtC209uocavrV2hbae3UMgwi7euYyyRrFwBD41fWrtC209uocavrV2hbae3UMgwi7euYyyRrFwBD41fWrtC209uocavrV2hbae3UMgwi7euYyyRrFwBD41fWrtC209uocavrV2hbae3UMgwi7euYyyRrFwBD41fWrtC209uocavrV2hbae3UMgwi7euYyyRrFwBD41fWrtC209uocavrV2hbae3UMgwi7euYyyRrFwBD41fWrtC209uocavrV2hbae3UMgwi7euYyyRrFwBD41fWrtC209uocavrV2hbae3UMgwi7euYyyRrFwBD41fWrtC209uocavrV2hbae3UMgwi7euYyyRrFwBD41fWrtC209uocavrV2hbae3UMgwi7euYyyRrFwBD41fWrtC209uocavrV2hbae3UMgwi7euYyyRrFwBD41fWrtC209uocavrV2hbae3UMgwi7euYyyRrFwBD41fWrtC209uocavrV2hbae3UMgwi7euYyyRrFwBD41fWrtC209uocavrV2hbae3UMgwi7euYyyRrFwBD41fWrtC209uocavrV2hbae3UMgwi7euYyyRrFwBD41fWrtC209uocavrV2hbae3UMgwi7euYyyRrFwBD41fWrtC209uocavrV2hbae3UMgwi7euYyyRrFwBD41fWrtC209uocavrV2hbae3UMgwi7euYyyRrFwBD41fWrtC209uocavrV2hbae3UMgwi7euYyyRrFwBD41fWrtC209uocavrV2hbae3UMgwi7euYyyRrFwBD41fWrtC209uoQqzXSrjFFrVHgRuMxH5TTsWet//AES2kmlRKZbwx4YjIyM/MYrHgU+CFxRLMv5XMtBhUqOKzDFnLgAA4pubPI59UVj/AMN0z3VsbAY/I59UVj/w3TPdWxsB2UrsLyPH4Z8xM+58TM3B0opP3Cd3kYfmVLiwWFSpslqOyjDOcdWSEpxPAsTPmLnMiH6uDpRSfuE7vIwnXJ9HM/f4PvTQ8f8AqUTgwmfEvCn/ABCdhgyrLgXWljSq19ZKX+Mb/uGlVr6yUv8AGN/3FQBxaTdZbHzNaw3b/Yl6VWvrJS/xjf8AcNKrX1kpf4xv+4qAFJustj5isN2/2JelVr6yUv8AGN/3DSq19ZKX+Mb/ALioAUm6y2PmKw3b/Yl6VWvrJS/xjf8AcNKrX1kpf4xv+4qAFJustj5isN2/2JelVr6yUv8AGN/3DSq19ZKX+Mb/ALioAUm6y2PmKw3b/Yl6VWvrJS/xjf8AcUWnWn2kPsOocbcSS0LQojSpJliRkZecjH7Eu1ei9H+4R+7SIhijUahiadU/Cmin8u8NJqqOmcp3Tipf0e5QAZTunFS/o9ygB86w/wCam/dFxZ30juofJFfJt9XVrdSwe4QORbf0vdHWzfuMUcfJt9XVrdSwe4QORbf0vdHWzfuMUfff0rtP7fyjhfq+iL7uZzrgrUW3KHPr85t1cenR3JLqWiI1mlCTUZJIzIscC/aZDC3T5SGQuy7mj2jdGVW1KbUnXFsvtSK3EbVBcS3whJkpU4S2c5OOaak5uOBGZGpJK43lM2RFv/I3cFBmw6Y8ymOuUtybCalKjk2hSuEZQ6lSCexIkpUosE5xnz4YH07TaVPta6qiiBct23NS6LGRSXqY7T6ZIiMEwsuDKSdJp6CiR2zzHOKNOredJwlOMNoStR9tFE06HnG2menardNKpdundaVnOpiW25ByIakOI4uoyxfI84iU2lJ55mRmeaRmRGeBHPyi3wiwbLn3ezR36wcRlTrMZh5tlLh5pqI1vumTTDeBGanXFJQkv24mRH1hOu6kWnfdHv7Kne9BpFDrLdUYp8yo1ZliAtk24SWSaU46bZcMTTrxIJRngo8cTIxEvSvx51gZRbwycRKXULPq0BNKYkUurRGY7khtpttM5t956OwTJJXwKs18jI4yMwzMzJK0HETIX/8AkCycVWoUeHR7QnzTqymmER2bpttUwn31oRHQlgqkednqUslYqSps0lnoIlkY7zqWVa07XiSJ2USSmyIzBskUi4pUaLGdNxOKUtyCdUypZGlaTRn55Ggzzc1SFK8gItvLmsrfqD1pZSpTFRqMVyNEl1GY2crg1cOptSJd5vtoM22Vng8wtPMRGk8SHdmUm7IFv0qs1tnKLIyXKqVWapsEkyaaymdVVx891MhU1uTGQSVKPPWwSVKNlfznTzCFYYn4kKJ+J2jk1yx5M8rtNKoZP70otYcQw0/KiQ6jHkSYZOY5pPoaWrgzPNUWB/tI/wBw2g6T8nRL9PbmWy5lAvytM0SOzEix7ioDVMjutEkiORGI6dFeWWdnJP57yCI0HnqNWI7sF4XVFk6oAACxIAAAAAAAAAAAAAAAAAAAAAAAAAAAAAAAAAAAAAAAAAAAAAAAAAAAAAAAAAAAAAAAAAAAAAAAAAAAAAAAAAAAAAAAAAAAAAAAAAAAAAAAAAAAAAAAAAAAAAAAAAAAAAAAAAAAAAAAAQJ3TmkdU1HvoYviBO6c0jqmo99DGM/uovJnKwPv4S4AAPOnoTZ5HPqisf8Ahume6tjYDH5HPqisf+G6Z7q2NgOyldheR4/DPmJn3PiZm4OlFJ+4Tu8jCdcn0cz9/g+9NCjcHSik/cJ3eRhOuT6OZ+/wfemh439V7/COv8ITscF7EHXiyoAAKFjM3rdtftVuKuhZL7mvE5ClE4iiSKY0cciwwNfHpccjI8ebMNR8x44c2Ocyd5YK5lDdhvIyH31QqVNS4aatVJNEOOg0GZGSkRqg6/iakmksGjLHz4Fzi5euV7JNk2lRoOUXKhaVrSJjZuxma1W40FbyCPA1IS8tJqIj5sS5sR1jkQy5ZFbgsOj2Pb2XKxlXLPTKjQ4ca4IT8zhluumg0ME5nLURGSiThzl/gNoYG4K2fXOUb/dSpr7g8o/I7aFTp9OvO+KPbiao/UGIkus1KLCju8TWlt5SVuupzk8IvMLAjMzJXNgWI/M7yl8iMSLDqMG+EV+nzScUmoW3AlVyEyltaELU/JgtPNR0pU4kjU6pBFiZ44EeHV9Qsli2si9Nn2XDuRVwruKPTkTaM9CerDjTFVfJtDS6oZxcSzlqPhcEmalq51GRiFlNte/7hpNIdrWT3LZX6k3SJjPGX6vS4b8Vw5rKkKqDVHlsRJbWaWKWUNyFZqTzm8TPHWGVLb070UccR3ZB8pvIDVr1plgUPK/Z1VrFW4dLDMC4IT5k82aC4FSUumvhVGs81BJMzzF/uFublesml0x+p1Sa9FUiqyqJFhm1wkyozGFKJTUVhs1OPqMkLUSUEas1JqMiIjMsVEq1CqWW2JZdEykQ6xVaLTa4cxmLMZkT6ImQuGppEhJqcNKiPPNs3UlikkkZKzTM+orPtmvRrjuGba+X/KBU6pSa/VolxfJFv29Knx4hSTWRm6VIWXCZy0vHEziW4hSlstmaSQqqlQv+OvIm20ev4Mlc2FHmORH4qn2kuKYfIicaMyxNC80zLOLzHgZliXMZ+cfcZXJlNgT7QjvU/KPNvhtLz7S6vNKGmQp1LikrZdREYYabW0ojbUjgkrSaDSss4jGqHHao6GidUBLtXovR/uEfu0ioJdq9F6P9wj92kYxd7D5Pii67L9PydM5TunFS/o9ygAyndOKl/R7lAD5zh/zU37ouLO+kd1D5Ir5Nvq6tbqWD3CByLb+l7o62b9xijj5Nvq6tbqWD3CByLb+l7o62b9xij77+ldp/b+UcL9X0RfdzLwAA7k88AAAAAAAAAAAAEG6HahxiiU+n1R+n/KFRUw88whpS8wor7mBcIhaS+c2nnwxwDRysa+13sYO7C1nNVstQvAIOjlY19rvYwd2DRysa+13sYO7BZV/EUV5eAQdHKxr7Xexg7sGjlY19rvYwd2Cyr+Iory8Ag6OVjX2u9jB3YNHKxr7Xexg7sFlX8RRXl4BB0crGvtd7GDuwaOVjX2u9jB3YLKv4iivLwCDo5WNfa72MHdg0crGvtd7GDuwWVfxFFeXgEHRysa+13sYO7Bo5WNfa72MHdgsq/iKK8vAIOjlY19rvYwd2DRysa+13sYO7BZV/EUV5eAQdHKxr7Xexg7sGjlY19rvYwd2Cyr+Iory8Ag6OVjX2u9jB3YNHKxr7Xexg7sFlX8RRXl4BB0crGvtd7GDuwaOVjX2u9jB3YLKv4iivLwCDo5WNfa72MHdg0crGvtd7GDuwWVfxFFeXgEHRysa+13sYO7Bo5WNfa72MHdgsq/iKK8vAIOjlY19rvYwd2DRysa+13sYO7BZV/EUV5eAQdHKxr7Xexg7sGjlY19rvYwd2Cyr+Iory8Ag6OVjX2u9jB3YNHKxr7Xexg7sFlX8RRXl4BB0crGvtd7GDuwaOVjX2u9jB3YLKv4iivLwCDo5WNfa72MHdg0crGvtd7GDuwWVfxFFeXgEHRysa+13sYO7Bo5WNfa72MHdgsq/iKK8vAIOjlY19rvYwd2DRysa+13sYO7BZV/EUV5eAQdHKxr7Xexg7sGjlY19rvYwd2Cyr+Iory8Ag6OVjX2u9jB3YNHKxr7Xexg7sFlX8RRXl4BB0crGvtd7GDuwaOVjX2u9jB3YLKv4iivLwDH3NT6/Rbbq1Yi31WlPQYL8ltLjEE0mpDalERkUcjwxLnwMhsBDhoq1IaoAABBAABJu6dKpdqVqpQXeCkxKdJfZXmkrNWltSkngeJHgZFzHzCUquhKVXQrAIOjlY19rvYwd2DRysa+13sYO7CbKv4k0V5eAQdHKxr7Xexg7sGjlY19rvYwd2Cyr+Iory8Ag6OVjX2u9jB3YNHKxr7Xexg7sFlX8RRXl4BB0crGvtd7GDuwaOVjX2u9jB3YLKv4iivLwCDo5WNfa72MHdg0crGvtd7GDuwWVfxFFeXgEHRysa+13sYO7Bo5WNfa72MHdgsq/iKK8vAIOjlY19rvYwd2DRysa+13sYO7BZV/EUV5eAQdHKxr7Xexg7sPhERVqXdcKmyLjn1KNLp0t9SJTUdOatpyOlJpNppB+Z1eJHiXmCzcxT+TSgACpUAAAAAAAAAAACBO6c0jqmo99DF8QJ3TmkdU1HvoYxn91F5M5WB9/CXAAB509CbPI59UVj/wAN0z3VsbAY/I59UVj/AMN0z3VsbAdlK7C8jx+GfMTPufEzNwdKKT9wnd5GE65Po5n7/B96aFG4OlFJ+4Tu8jCXdLrTFJQ++6httubCWta1ESUpKS0ZmZn5iIeN/Vs07COv8ITscF7EHXiyuAl6VWvrJS/xjf8AcNKrX1kpf4xv+44+Play2o0sRXFQBL0qtfWSl/jG/wC4aVWvrJS/xjf9wx8rWW1CxFcVAEvSq19ZKX+Mb/uGlVr6yUv8Y3/cMfK1ltQsRXFQBL0qtfWSl/jG/wC4aVWvrJS/xjf9wx8rWW1CxFcVAEvSq19ZKX+Mb/uGlVr6yUv8Y3/cMfK1ltQsRXFQS7V6L0f7hH7tIaVWvrJS/wAY3/cLV6L0f7hH7tIopkEc1WWnmfFE2WoXVdZzpnKd04qX9HuUAGU7pxUv6PcoAfPMP+am/dFxZ3sjuofJFfJt9XVrdSwe4QORbf0vdHWzfuMUcfJt9XVrdSwe4QORbf0vdHWzfuMUfff0rtP7fyjhfq+iL7uZeAAHcnngAAAAAAAAAACDcf0xa3WznuMoXhBuP6YtbrZz3GULwtFoRZ6EAABUqAAAAAAAAAAAAAAAAAAAAAAAAAAAAAHArtbptt0iTW6u643EiIz3DbZW8s+ciJKG0Ea1qMzIkpSRqUZkREZngMqdz3+xRGLrmWqkoiphuyKS00typMU00YJXglRk5IJWDimkkZ5hmhOetJZ+srL7sakzH2KM/VloZWaYLBtE5JPD/RpN1SG8T83zlEX7zHnGZ5Oto0mNHp9J8mC1fl+tVJmouVyk02ktwreJL7Z8Gh1xTcrFDTeJKZYMlLMzwTnHhVt+BDbO9qvflCi5P6llBpVSizadCp0ich9C8W1cEhRmk/3GSkmkyPAyMjI8DIfiPX61WMm8W5qEqmuVOdSWZjS3c9MYlrbSo1ZpYqNJYmZIxxPAkmosc4uDdNHuS8rhj25JpxQrShLZmzpSpCTdqjqVZ7cZtCDM0NJUlKnFLzTVmkhKTSpShMk0G/rYjVq2LRjxpFJqbcqTSZTjKHzpL6yNao7sdT7HDMqUauDNDqTSayQrNQklgDyU95aGWSLRGXU3/k7elU8nHjU4q3GlTkoJSUIkNHc3CIU4k0uKJtDa21ozCSsjPD1vTL1vSEjgZzEG7Z7VJZmu06jQPkqa84pRfPjtzZSmHWjSsiUfGC4NSDI1LNZJR0XE8mLLnIslmNJykFFkPobhnTzqd0Z7MZSktmtwkXJxYlobM1qabJTWKTQg1JwMdo3nZd3SbOmwLssKl5Tl06mwoEKklBitwZsnhDNyZxOdKNojaTweBLeJR5jhJURLxFIbS0lVVaS/knypXdf701m4MktxW81Gmzo6Z8t+mKjfoXzbSyaWJrzvC4F84yRweKVYKwzceyx0LkSyIwcnd0M1OLkIsi3IJQCah1ONxNyuNPHibhyeBiNpb4TOMlJakyEEaUkjBA76F4a0zllWmcAACxIAAAAAAAAAAAAAAAAAAAAAAAAAAAAAQb96C3H1TM7lQvCDfvQW4+qZncqF4WfZXr+C3gAABUqBBv3oLcfVMzuVC8IN+9Bbj6pmdyoWg7SLQ6Ucq5qhVaXQJ0+h0WVVqg0yo40OKTJuOueYsCfeZbPA+cyU6jEiMs4jHU1Hy15YalPg0WX5NV1xJsNaTrxoqdEebZbWSuCNn/7ikzz8M4zPHMIjTg4ZkY7EykUOm3HbDlGquTinXuxJebSVKqTcZcTPI8UOvcORpJtCiIzUlDiy86UKPmHUTPkoZM7bJ65WchWTW5J8503qlSFW/CZZbbLDMbgGtrMQpCSNOC8xLylZy1tfsyda5jN1rmLdT8oac1d9w2lb1sU+ry6HUY0U451dtMlTKmjU8tMaMUmWpaFNunmqjtpWhB8GtxWCRlbU8qq+a/a14TZeSCd8tW6hUiPGgMTm2nWTkPNZziqrHp6SNHBfOJKzWrE8EpUlSE8O/cg10Vm93q/QLJdXSlyYNRTGm1huQcfgWEktuHGkqeixH08zbZoQTay4Ztam2jSpebsDIHPt+xbutdORvKFEfuGUjBtyTbFMiLbKQ7wRuoo8hnhUJbdxebdStCklmIQpJJQK1iqRWI39w5fMr1PrU+huZKpNCZNSVxZ79v16tyIzSmkrInI1MhOw31ks1IMm6kkv2mZYYHQrPlESYFy1mz7g+TcnColJiTYtevB6mlCS44tRK4SOipoeUlXzEpSRpNKsc8+dGd1nlR8lK8LlvG5K7bFgWd8nrcbTSyecozT6Wm4zSEJaS9QpLrZEaDJJFNZww+bwX6w7irlgXDS7nqFzUGgPzUOogSpLkWSwipyTZVJW5GircU2lJqzmGjNxxtPBGpOcYK0M5RyQZSYd6S6hAVl1yYX9KYbQ6lmz2CYcjN4mRqdTx+WaiM8CI/mEX+OPN2eOuslltXhQ0s1CrKfhwqnBN2TR5klLr1PmcOtZEjg1LaLObcJLhIWac9sjSas41DsUaLQWWgAACSQAAAAAAACDM6dUjqmo99DF4QZnTqkdU1HvoYtDp2lodJeAAFSoAAAAAAAAAAAECd05pHVNR76GL4gTunNI6pqPfQxjP7qLyZysD7+EuAADzp6E2eRz6orH/hume6tjYDH5HPqisf8Ahume6tjYDspXYXkePwz5iZ9z4mZuDpRSfuE7vIw/Y/FwdKKT9wnd5GH7Hk8O+cm+a/5hOdI7mH14sAADjGoAAAAAAAAAAAAAAAAAAdC5TunFS/o9ygAyndOKl/R7lAD5ph/zU37ouLPQSO6h8kV8m31dWt1LB7hA5Ft/S90dbN+4xRx8m31dWt1LB7hA5Ft/S90dbN+4xR99/Su0/t/KOF+r6Ivu5l4AAdyeeAAAAAAAAAAAINx/TFrdbOe4yheHEqVIpNaYTFrFMiTmUrJxLcllLqSURGRKIlEZY4GZY/4mJmgVi6l0LZzPhFqppVLZmXgEHQKxdS6Fs5nwhoFYupdC2cz4QpDf1tGYvAIOgVi6l0LZzPhDQKxdS6Fs5nwhSG/raMxeAQdArF1LoWzmfCGgVi6l0LZzPhCkN/W0Zi8Ag6BWLqXQtnM+ENArF1LoWzmfCFIb+tozF4BB0CsXUuhbOZ8IaBWLqXQtnM+EKQ39bRmLwCDoFYupdC2cz4Q0CsXUuhbOZ8IUhv62jMXgEHQKxdS6Fs5nwhoFYupdC2cz4QpDf1tGYvAIOgVi6l0LZzPhDQKxdS6Fs5nwhSG/raMxeAQdArF1LoWzmfCGgVi6l0LZzPhCkN/W0Zi8Ag6BWLqXQtnM+ENArF1LoWzmfCFIb+tozF4BB0CsXUuhbOZ8IaBWLqXQtnM+EKQ39bRmLwCDoFYupdC2cz4Q0CsXUuhbOZ8IUhv62jMXgEHQKxdS6Fs5nwhoFYupdC2cz4QpDf1tGYvAIOgVi6l0LZzPhDQKxdS6Fs5nwhSG/raMxeAQdArF1LoWzmfCGgVi6l0LZzPhCkN/W0Zi8Ag6BWLqXQtnM+ENArF1LoWzmfCFIb+tozF4BB0CsXUuhbOZ8IaBWLqXQtnM+EKQ39bRmLwCDoFYupdC2cz4Q0CsXUuhbOZ8IUhv62jMXgEHQKxdS6Fs5nwhoFYupdC2cz4QpDf1tGYvAIOgVi6l0LZzPhDQKxdS6Fs5nwhSG/raMxeAQdArF1LoWzmfCGgVi6l0LZzPhCkN/W0Zi8Ag6BWLqXQtnM+ENArF1LoWzmfCFIb+tozC/egtx9UzO5ULwg6BWLqXQtnM+EXgbVKIOlKIAACpUCDfvQW4+qZncqF4Qb96C3H1TM7lQtB2kWh0ovAACpUAMVaNm2hPt+NMnWrR5Mh03VOOuwWlrWfCK5zUacTMV9ArF1LoWzmfCLuGFOletpZpJ0LwCDoFYupdC2cz4Q0CsXUuhbOZ8IikN/W0Zi8Ag6BWLqXQtnM+ENArF1LoWzmfCFIb+tozF4BB0CsXUuhbOZ8IaBWLqXQtnM+EKQ39bRmLwCDoFYupdC2cz4Q0CsXUuhbOZ8IUhv62jMXgECw222rTgNNIShCCcSlKSwJJE4rAiL9hC+IiVltENUdAIMzp1SOqaj30MXhBmdOqR1TUe+hiYdO0mHSXgABUqAAAAAAAAAAABAndOaR1TUe+hi+IE7pzSOqaj30MYz+6i8mcrA+/hLgAA86ehNnkc+qKx/4bpnurY2Ax+Rz6orH/AIbpnurY2A7KV2F5Hj8M+Ymfc+Jmbg6UUn7hO7yMP2PxcHSik/cJ3eRh+x5PDvnJvmv+YTnSO5h9eLAAA4xqAAAAAAAAAAAAAAAAAAHQuU7pxUv6PcoAMp3Tipf0e5QA+aYf81N+6Liz0EjuofJFfJt9XVrdSwe4QORbf0vdHWzfuMUcfJt9XVrdSwe4QORbf0vdHWzfuMUfff0rtP7fyjhfq+iL7uZeAAHcnngAAAAAAAAAACDdDtQ4xRKfT6o/T/lCoqYeeYQ0peYUV9zAuEQtJfObTz4Y4Bo5WNfa72MHdguP6YtbrZz3GULwvWiVC1aJEHRysa+13sYO7Bo5WNfa72MHdheARbfSQtMg6OVjX2u9jB3YNHKxr7Xexg7sLwBbfSQtMg6OVjX2u9jB3YNHKxr7Xexg7sM8jKqScssnJRLoaWGEUhuox6ocsj4Z5RrNUc2cws3BtBrJWeeJErmLNxORZ/lC2vW6JVrku1lq1aTT6u7T2Z8yQpUVccmW3mpL7+YlqKlxDqDInFEWKkpJRqMiEYzqhFs3GjlY19rvYwd2DRysa+13sYO7DN3VlhptrXzaNruUw5dKuuO88VaYkEpmIZLZQxnJIjzkOrfQknCUREakeclYlo7QurSpurucQ4r8lVeXSsOFz+E4FWbwnmLDH/08+H7zC34fhC0f7o5WNfa72MHdg0crGvtd7GDuwvAJtvpIm0yDo5WNfa72MHdg0crGvtd7GDuwvAFt9JC0yDo5WNfa72MHdhyLRnSqpalFqU53hZMunRn3l5pJzlqbSpR4FgRYmZ8xcwrCDYXQW3OqYfcpE1rCK1RyLunSqXalaqUF3gpMSnSX2V5pKzVpbUpJ4HiR4GRcx8w4+jlY19rvYwd2C/egtx9UzO5ULwVpDm60CtEQdHKxr7Xexg7sGjlY19rvYwd2F4BFt9JC0yDo5WNfa72MHdg0crGvtd7GDuwvAFt9JC0yDo5WNfa72MHdg0crGvtd7GDuwz+VTKmeTGTa5O0Ip8SvVZNPmPnL4HiDGYpSpGbmK4Qk4FinFPMZnjzYHxZ2WujUrKbVLIrLEOm0ajUZypzrhmVFDEdhxs2TWytK0klJJbkMrNw1kXzyLDzmIxnVCLZqtHKxr7Xexg7sGjlY19rvYwd2GHujyjLBi2bOuzJrXKFlEdp8yFEfgW/W48l1PGH0tFztGvBWCjNKTIs404EZY4lqqHlCptx3NGotHaTIgzaCzXo89LvM4246aEozM3m5ixxx/bhhzBjOqIWznaOVjX2u9jB3YNHKxr7Xexg7sLwCbb6SJtMg6OVjX2u9jB3YNHKxr7Xexg7sLwBbfSQtMg6OVjX2u9jB3YLXdqHGK3T6hVH6h8n1FLDLz6GkrzDisOYHwaEJP5ziufDHAXhBtz6YunrZv3GKJTqnUVqmfiuHU5dyUyjwq5LprL0GZJdVGbZUpam3I6UkZutrIiwdX5iL9g/ejlY19rvYwd2CZ06pHVNR76GLwN0SoK0SIOjlY19rvYwd2DRysa+13sYO7C8Ai2+khaZB0crGvtd7GDuwaOVjX2u9jB3YXgC2+khaZB0crGvtd7GDuwaOVjX2u9jB3YZKj5a4cq6b/t6t0ZNMYshPGG5fG+F4/GSylbrmZmJNs0KUSTTivElJPHnwL62flpoNUyd0+/r/AF02yuPTX6ccSoVRsyTKbfcaJlLiiRwjijbPBCU4mfMWPnOMZ1Qi2ajRysa+13sYO7Bo5WNfa72MHdhloWWiny8qUfJ07QZ0WNUKPHqUGpyW3GOEfd4YyiOMOoS4y5wbC1kS8DPNWWBGnn1Fh3VptaNOuniHEvlBtS+A4XhMzBak4Z2BY/q4+YvOCmV//ELR/ujlY19rvYwd2DRysa+13sYO7C8Am2+kibTIOjlY19rvYwd2DRysa+13sYO7C8AW30kLTMfc1Pr9FturViLfVaU9BgvyW0uMQTSakNqURGRRyPDEufAyGwEG/egtx9UzO5ULwmJ1hT68A86AAAoVAg370FuPqmZ3KheEG/egtx9UzO5ULQdpFodKLwAAqVINj9FoX9TvFC8INj9FoX9TvFC8LR9plotLPNOWTKxXaTVrgfcylULJqilz6bS6aVzqxbqrKnkrkSWW0zI5lzkScVGZ8Ey5zEl0llmmMr7lw2nlGi1HyqMk0/MqrBRpMKe9TUsM8GyajZcarSFpSsyUhtKZDKeEJZqcMjNJejqjYsmo1+dUTuKRGp9T4vxuLFSpl5wmUqJCSkJWSkIM1GaiSRKPAiziLOJX4uCwp9Zbq8GJeNWp9PrSWjeZYkPIeYdS6lTi48htxDrBONkaDShRERmSkZp52fi4WZ0Z4ZpN3ufKjcp3ymLdZanLa4BublFlrap5pSecclLd6KPMNWGPBnJM8eZJF80d5vZR75hZVZlTevO5ottrj55yylW0u12DSlCW3l8NLObwGDhOLJDrLrhmkyQkjGrl+S45EeKdaOVe8qbNcmOSZLsy569MQ8RvINvFv5SQlS22UcCSnM9KiwNaFYZou13IC/Pu+de1DyqXNS5cuUU1FPVGp79PaewbLOJJx0yD520rIuMYEoixxTig6qFoqoWjqiycss6/LBuW052Wa1LlnoOI+3ItOa7DmsMP1ZbLiTcbnPOp/R8GaVIU2aEOoTz8yj7OvPI7a9rW1NuKi3HlDbnU8m32FPZQ6/IbJZLThnNOzVNrT+9Kkmky5jIyFidkaeTa1Qsa2rxlUihzEMuMJOMmVJgy0PodU+y66o0nnmg1GhxCy4RRq82KD49TyM3lVIS4Mzyi7+mMOKQbkeXT6CbDyUqJRoXwNOaczTwwPMcQrn5lELUfiTR0znagAA0LkGx+i0L+p3iheEGx+i0L+p3iheFo+0y0WlgQZnTqkdU1HvoYvCDM6dUjqmo99DCHTtEOkvAACpUAAAAAAAAAAACBO6c0jqmo99DF8QJ3TmkdU1HvoYxn91F5M5WB9/CXAAB509CbPI59UVj/AMN0z3VsbAY/I59UVj/w3TPdWxsB2UrsLyPH4Z8xM+58TM3B0opP3Cd3kYfsfi4OlFJ+4Tu8jDi1ee7TYXGWI6H3FPMsoQtw0JNTjiWyxURHgRZ2PmPzDyP6hEoMKnRPQmv+YTn4OqyoEus7OaAl8Yuj0PS9pOfADjF0eh6XtJz4A4eOhuex8jaw+mioAl8Yuj0PS9pOfADjF0eh6XtJz4AY6G57HyFh9NFQBL4xdHoel7Sc+AHGLo9D0vaTnwAx0Nz2PkLD6aKgCXxi6PQ9L2k58AOMXR6Hpe0nPgBjobnsfIWH00VAEvjF0eh6XtJz4AcYuj0PS9pOfADHQ3PY+QsPpoqAJfGLo9D0vaTnwByqVO+U6XDqXBcFxuO2/mZ2dm5ySVhjzY4Y+cTDNhidlVr5NcSHC0qnR+U7pxUv6PcoAMp3Tipf0e5QA+cYf81N+6Lizv5HdQ+SK+Tb6urW6lg9wgci2/pe6Otm/cYo4+Tb6urW6lg9wgci2/pe6Otm/cYo++/pXaf2/lHC/V9EX3cy8AAO5PPAAAAAAAAAAAEG4/pi1utnPcZQvCDcf0xa3WznuMoXhaLQiz0IAACpUAAADpnKhkcvO7avXa/adbpVMqUxNLRTpUgnFKjpbKSzLMySnmUqPKcJsyM/n4GZERCzRMjiojVfpEuv1OBRqlVG5LEei1F2G65GRBjx0NuPtkh9o0qYNRcA6gz5iNRkakjs0BWyiKI62qeRmhTa7DYYpcBi2U0Gp0mXEQakvOOynmHDdxwPOWZtLWpxSs81mSuczMxzMjNkXVYVsTqTeVdi1moyaxNncejoNHDNOOYtqcSZESXTQSc8k/NzscOYb0BNFpJogAAJAAAAAQbC6C251TD7lIvCDYXQW3OqYfcpFl2X1eW8BfvQW4+qZncqF4Qb96C3H1TM7lQvA+yvX8DwAAAqVAAAAwmU7J07lCfojDjkUoENU5M1DpqzlNvwnmCzCIjIzJTpHzmXMR/t5hkLHyM39SVUuqXJejDVecpFUYrFWpCU8KU+U/HWlyM3JacbzENxyQROJVhgn5qufDuoBWytJFFpOsqpksu2RRWqdIyo1y6HU1ml1ElV9mnspYbjSm3nCb4jDZxUpKDIs8lFiRc6SxMLKyU1azMqteueLVYi7WqFOSzTaeSDS/BkLkOPSEEZFmmypa89PPik1rL9Uk4dmgFEKIAACxIAAAAQbc+mLp62b9xii8INufTF09bN+4xRaHQ+vFFloYmdOqR1TUe+hi8IMzp1SOqaj30MXgi0IPQgAAKlQAAAOkLmyF3TWrkdq0KsUqLHqNzOSqmSuEU6/RHGY3CxkmSSJLqnobWOOKcw1c+J82loGRmlpoSIty8I3Vo9TqMyPUqNUZMKS2zImuSENG+ybbikfPQa2VZzSlJ50qIiMdlAK2URRHV9UyP1Cs1SvSalcS3lTaTSo9OqjiW+OsVCE5IcTLUhDaGiMlutqwQRJPBaTSRHgehySWtXbKyb0C1rnlwZVWp8Um5r0ElFHceNRqUbZLIlEnE+Yj5yGvATRImgAAEgAAACDfvQW4+qZncqF4Qb96C3H1TM7lQvCz7K9fwW8AAAKlQIN+9Bbj6pmdyoXhBv3oLcfVMzuVC0HaRaHSi8AAKlTG2zcUOkUSPTp9Prjchg3ErSmiTFkR8Io+ZSWjIywPzkYqaaUf7HXdgTvgi8Au4oW6062Fm085B00o/2Ou7AnfBDTSj/AGOu7AnfBF4BFYbutgzEHTSj/Y67sCd8ENNKP9jruwJ3wReAKw3dbBmIOmlH+x13YE74IaaUf7HXdgTvgi8AVhu62DMQdNKP9jruwJ3wQ00o/wBjruwJ3wReAKw3dbBmIdlNvNWxBQ+w8yvBajQ62ptaSNajLFKiIyPAy5jIXAARE6upDdXUCDM6dUjqmo99DF4QZnTqkdU1HvoYmHTtJh0l4AAVKgAAAAAAAAAAAQJ3TmkdU1HvoYviBO6c0jqmo99DGM/uovJnKwPv4S4AAPOnoTZ5HPqisf8Ahume6tjYDH5HPqisf+G6Z7q2NgOyldheR4/DPmJn3PiZm4OlFJ+4Tu8jCdcn0cz9/g+9NCjcHSik/cJ3eRhOuT6OZ+/wfemh439V7/COv8ITscF7EHXiyoAAKFgA6I8qq97xsyDaqrXylUix406fIbn1OrVyDR4xpSwam2zlzafPbSo1c5IJklKwPBRYGR9b5H8v1bg3yiHeHlCWbfVOmQXkoh0a/KFXHYzyVIVxhxEWk01xplDRPKWszdSSUniSTIs7eHB4ooLaM3MSdD1+A8YUDyq8rFdsyq1O3LksK8XzkwlxpdIZmGqEuRwzvEjj0tmrrk5rbBkozSw4ltWcokK5y3mUjKPlrlUaw63RYNapC7izsEWbIp9RgLdeejphFMkViJHcQytLi85DLaHi58MSSZlLwaNOjoFMTVUekwHmSzrpyr1C7qc5XrmyvwYlZrU+FTn5cO0HbdeW2qQppvMYT8qcDmMnhnGhw83BS0meI6euDy17+p1zTIrflF5G2WqKp1iWy/bPFm2XcCJRTmna0cs1JUlRITT0yj5z4VKDwSUw4LFE6JrfyIc1JVZ78AYvI9ctXvLJ/Tbqq9zUS4DqfCPx6hR6WuBFfYzzJCkNqlSjMjIsSWTpkojIyIvMNoOPErLoaJ1VQJdq9F6P9wj92kVBLtXovR/uEfu0jGLvYfJ8UXXZfp+TpnKd04qX9HuUAGU7pxUv6PcoAfOcP+am/dFxZ30juofJFfJt9XVrdSwe4QORbf0vdHWzfuMUcfJt9XVrdSwe4QORbf0vdHWzfuMUfff0rtP7fyjhfq+iL7uZeAAHcnngAAAAAAAAAADiVKkUmtMJi1imRJzKVk4luSyl1JKIjIlESiMscDMsf8TEzQKxdS6Fs5nwhdDtQ4xRKfT6o/T/AJQqKmHnmENKXmFFfcwLhELSXzm08+GOAaOVjX2u9jB3YXVUtNNpdVS0jQKxdS6Fs5nwhoFYupdC2cz4Q0crGvtd7GDuwaOVjX2u9jB3YTV63EVd40CsXUuhbOZ8IaBWLqXQtnM+ENHKxr7Xexg7sGjlY19rvYwd2Cr1uIq7xoFYupdC2cz4Q0CsXUuhbOZ8IaOVjX2u9jB3YNHKxr7Xexg7sFXrcRV3jQKxdS6Fs5nwhoFYupdC2cz4Q0crGvtd7GDuwaOVjX2u9jB3YKvW4irvGgVi6l0LZzPhDQKxdS6Fs5nwho5WNfa72MHdg0crGvtd7GDuwVetxFXeNArF1LoWzmfCGgVi6l0LZzPhDRysa+13sYO7Bo5WNfa72MHdgq9biKu8aBWLqXQtnM+EWo8diIw3FistsssoJttttJJShJFgSSIuYiIuYiIRdHKxr7Xexg7sGjlY19rvYwd2EPPpi4kPPpZakR2JbDkWUy28y8g23G3EkpK0mWBpMj5jIy5jIxF0CsXUuhbOZ8IaOVjX2u9jB3YNHKxr7Xexg7sCzaIuIWbQxoFYupdC2cz4Q0CsXUuhbOZ8IaOVjX2u9jB3YNHKxr7Xexg7sJq9biTV3jQKxdS6Fs5nwhoFYupdC2cz4Q0crGvtd7GDuwaOVjX2u9jB3YKvW4irvGgVi6l0LZzPhDQKxdS6Fs5nwho5WNfa72MHdg0crGvtd7GDuwVetxFXeNArF1LoWzmfCGgVi6l0LZzPhDRysa+13sYO7Bo5WNfa72MHdgq9biKu8aBWLqXQtnM+ENArF1LoWzmfCGjlY19rvYwd2DRysa+13sYO7BV63EVd40CsXUuhbOZ8IaBWLqXQtnM+ENHKxr7Xexg7sGjlY19rvYwd2Cr1uIq7xoFYupdC2cz4RTptIpNFYVFo9MiQWVLNxTcZlLSTUZERqMkkRY4ERY/4EJmjlY19rvYwd2DRysa+13sYO7CHV6YuIefxOfVKBQq5wXy1RYFQ4HO4LjUZDuZjhjm5xHhjgWOH7iHA0CsXUuhbOZ8IaOVjX2u9jB3YNHKxr7Xexg7sCbWZRcRo8RoFYupdC2cz4Q0CsXUuhbOZ8IaOVjX2u9jB3YNHKxr7Xexg7sJq9biKu8aBWLqXQtnM+ENArF1LoWzmfCGjlY19rvYwd2DRysa+13sYO7BV63EVd40CsXUuhbOZ8IaBWLqXQtnM+ENHKxr7Xexg7sGjlY19rvYwd2Cr1uIq7xoFYupdC2cz4Q0CsXUuhbOZ8IaOVjX2u9jB3YNHKxr7Xexg7sFXrcRV3jQKxdS6Fs5nwhoFYupdC2cz4Q0crGvtd7GDuwaOVjX2u9jB3YKvW4irvGgVi6l0LZzPhDQKxdS6Fs5nwho5WNfa72MHdg0crGvtd7GDuwVetxFXeNArF1LoWzmfCLwx9zU+v0W26tWIt9VpT0GC/JbS4xBNJqQ2pREZFHI8MS58DIbARFWlW6kOt4AAFCoEG/egtx9UzO5ULwg370FuPqmZ3KhaDtItDpReAAFSpirRs20J9vxpk61aPJkOm6px12C0taz4RXOajTiZivoFYupdC2cz4QsfotC/qd4oXhpHHFaecvFE6vOQdArF1LoWzmfCGgVi6l0LZzPhFKslIOkTiiS3or/F3ODfZaJxxpWaeCkoNKyUoj5yLNVifNgfmHiu278y6Klz4c3LPWIcxyZSIqmLioFQcZOVKltIQ5mro1IVFbUhlwibKQtCjUpJ/OWSjzc2KHxKONo9haBWLqXQtnM+ENArF1LoWzmfCOjssGVa+2rAtG4rUqNzolPOxyrC7S+QC4Z1xCTVEQ1VluOlIMlcI00026pWGaf6xKKPkCvy8rtvunqua18qE2oRWJbMupVyt06MyTfGFpbcOmQ5rUdbSElwZvohurU6Zpzk8HiIx0VaVYxjrQ9E6BWLqXQtnM+ENArF1LoWzmfCPHd33H5VUd6BXNLr2kxJcE6rSToiVSGzeVwieCebg2vKSRESk4MvuqL9VfCGrnR6vyRQsoMGxoTeU6prnV9w1OvuLlsyDJKudKc5mFDSWBf+XgCMjxI1L84mGbFE6VYUxsq6BWLqXQtnM+ENArF1LoWzmfCLwC1uK8tad5AsNttq04DTSEoQgnEpSksCSROKwIi/YQviDY/RaF/U7xQvBH2mItLAgzOnVI6pqPfQxeEGZ06pHVNR76GEOnaIdJeAAFSoAAAAAAAAAAAECd05pHVNR76GL4gTunNI6pqPfQxjP7qLyZysD7+EuAADzp6E2eRz6orH/hume6tjYDH5HPqisf8Ahume6tjYDspXYXkePwz5iZ9z4mZuDpRSfuE7vIwnXJ9HM/f4PvTQo3B0opP3Cd3kYTrk+jmfv8H3poeN/Ve/wjr/AAhOxwXsQdeLKgAAoWOvsqmSKPlKbjyY923NQqlEzUtO065KvBjqbJWcpLseDMjJcM/NnGecReYxgLV8nWq0u+q5ecmRWYa40FMK30LypXJWEyVoW6pLs1uStKUoPPQRxz4dsvnGRmZ8/oABpDNjhVlMq4E3U6EsPIdf1u5QUT6rUqYdsUuMyzA/+5vTJr62Y77LZrSuO2lhv/xb6uDJx005qCSrN+anNK8nPK1cMOkUK7X7Hdp8LguEKoPSa3GaTGehKYaTCcZjpcbcKGa1FwzfBLePAnc3FXqABbHxp1Ixa0HnOxcg1UtS9YVdc8nbI3HmRKrLlnd9OrjzFacS8t3F5bSKUnhFmh3BTS5Kk4/+Y8CMQLj8jzKNXKnTK/Ay81iBJiR4y3mJNbueWs5RYnK4KQ3WmEstv45hkhgsxBFmkR+f1WAnKI06p9epGLhpRmNyQ21dFo2DT6FeM05NVZckOOGdZlVbgkLfWttkpkskvyCQhSUZ7hEo83nIbIAGLdp1ZdKioBLtXovR/uEfu0ioJdq9F6P9wj92kYxd7D5Pii67L9PydM5TunFS/o9ygAyndOKl/R7lAD5zh/zU37ouLO+kd1D5Ir5Nvq6tbqWD3CByLb+l7o62b9xijj5Nvq6tbqWD3CByLb+l7o62b9xij77+ldp/b+UcL9X0RfdzLwAA7k88AAAAAAAAAAAQbj+mLW62c9xlC8INx/TFrdbOe4yheFotCLPQgAAKlQAAAAAAAAAAAAAAAAAAAAAAAAAAAAA4FdrdNtukSa3V3XG4kRGe4bbK3lnzkRJQ2gjWtRmZElKSNSjMiIjM8BlTue/2KIxdcy1UlEVMN2RSWmluVJimmjBK8EqMnJBKwcU0kjPMM0Jz1pLP1lZfdjUmY+xRn6stDKzTBYNonJJ4f6NJuqQ3ifm+coi/eY84zPJ1tGkxo9PpPkwWr8v1qpM1FyuUmm0luFbxJfbPg0OuKblYoabxJTLBkpZmeCc48KtvwIbZ3tV78oUXJ/UsoNKqUWbToVOkTkPoXi2rgkKM0n+4yUk0mR4GRkZHgZD8R6/Wqxk3i3NQlU1ypzqSzMaW7npjEtbaVGrNLFRpLEzJGOJ4Ek1FjnFwbpo9yXlcMe3JNOKFaUJbM2dKVISbtUdSrPbjNoQZmhpKkpU4peaas0kJSaVKUJkmg39bEatWxaMeNIpNTblSaTKcZQ+dJfWRrVHdjqfY4ZlSjVwZodSaTWSFZqEksAeSnvLQyyRaIy6m/wDJ29Kp5OPGpxVuNKnJQSkoRIaO5uEQpxJpcUTaG1trRmElZGeHremXrekJHAzmIN2z2qSzNdp1GgfJU15xSi+fHbmylMOtGlZEo+MFwakGRqWaySjouJ5MWXORZLMaTlIKLIfQ3DOnnU7oz2YylJbNbhIuTixLQ2ZrU02SmsUmhBqTgY7RvOy7uk2dNgXZYVLynLp1NhQIVJKDFbgzZPCGbkzic6UbRG0ng8CW8SjzHCSoiXiKQ2lpKqq0l/JPlSu6/wB6azcGSW4reajTZ0dM+W/TFRv0L5tpZNLE153hcC+cZI4PFKsFYZuPZY6FyJZEYOTu6GanFyEWRbkEoBNQ6nG4m5XGnjxNw5PAxG0t8JnGSktSZCCNKSRggd9C8NaZyyrTOAABYkAAAAAAAAAAAAAAAAAAAAAAAAAAAAAIN+9Bbj6pmdyoXhBv3oLcfVMzuVC8LPsr1/BbwAAAqVAg370FuPqmZ3KheEG/egtx9UzO5ULQdpFodKLwAAqVINj9FoX9TvFC8MbbNxQ6RRI9On0+uNyGDcStKaJMWRHwij5lJaMjLA/ORipppR/sdd2BO+CNI4InE8xeKF1eYrVGImfT5MFaGFpksrZNMhnhWlEpJlgtGJZ6efnTiWJYkOjbE8kiz7DeVNhKoEiU+tp+SeidPisuufOS8jgY6G2+BNtWa2lRKW0ZKUTiuEdJfbmmlH+x13YE74IaaUf7HXdgTvgijlt6UVcDfgdet+T61TUSZlv3HHg1pLL7cGpnTlKcSbslp5ZSSQ8jhmzJlts2WzZbzTWSUoJREn90bIlcJU6PHue76E9IokjjltfI9tnFjUd80OIUpDUqTKMyNDpoJKFtpQgsGyQfzhv9NKP9jruwJ3wQ00o/2Ou7AnfBEYp3EWHcdH13yMrWuqdJl3GdmPcHCZgQXGbIiKkvMtINCEz3pK3lPHgacXIvE3ebmWWCMzujJzbFUsyz6fa1TkUB0qY2UaKmh0hymQ2Y6CIm20MOSH1JzSLDHhDx/cQ5GmlH+x13YE74IaaUf7HXdgTvggpTWhEqBrwLwCDppR/sdd2BO+CGmlH+x13YE74ItYiuJsu4WP0Whf1O8ULwh2U281bEFD7DzK8FqNDram1pI1qMsUqIjI8DLmMhcCPtMRaWBBmdOqR1TUe+hi8IMzp1SOqaj30MIdO0Q6S8AAKlQAAAAAAAAAAAIE7pzSOqaj30MXxAndOaR1TUe+hjGf3UXkzlYH38JcAAHnT0Js8jn1RWP/DdM91bGwGPyOfVFY/8N0z3VsbAdlK7C8jx+GfMTPufEzNwdKKT9wnd5GHDrkOVOgEzCJo3kSI76SdWaEq4N5CzIzIjMsSSZY4GOZcHSik/cJ3eRh+x5H9RhUeFToX4tf8AEJz8HdJUD60sl8Yuj0PS9pOfADjF0eh6XtJz4AqAOHi4td7uRtaV3HmS+MXR6Hpe0nPgBxi6PQ9L2k58AVADFxa73chaV3HmS+MXR6Hpe0nPgBxi6PQ9L2k58AVADFxa73chaV3HmS+MXR6Hpe0nPgBxi6PQ9L2k58AVADFxa73chaV3HmS+MXR6Hpe0nPgBxi6PQ9L2k58AVADFxa73chaV3HmS+MXR6Hpe0nPgD70WE7TaNApz6kKcixWmVmgzNJqSgiPDH9nMOaAmGXSK023s/CQcVVRI6FyndOKl/R7lABlO6cVL+j3KAHzjD/mpv3RcWd9I7qHyRXybfV1a3UsHuEDkW39L3R1s37jFHHybfV1a3UsHuEDkW39L3R1s37jFH339K7T+38o4X6voi+7mXgAB3J54AAAAAAAAAAAg3H9MWt1s57jKF4cSpUik1phMWsUyJOZSsnEtyWUupJREZEoiURljgZlj/iYmaBWLqXQtnM+EWqmlUtmZeAQdArF1LoWzmfCGgVi6l0LZzPhCkN/W0Zi8Ag6BWLqXQtnM+ENArF1LoWzmfCFIb+tozF4BB0CsXUuhbOZ8IaBWLqXQtnM+EKQ39bRmLwCDoFYupdC2cz4Q0CsXUuhbOZ8IUhv62jMXgEHQKxdS6Fs5nwhoFYupdC2cz4QpDf1tGYvAIOgVi6l0LZzPhDQKxdS6Fs5nwhSG/raMxeAQdArF1LoWzmfCGgVi6l0LZzPhCkN/W0Zi8Ag6BWLqXQtnM+ENArF1LoWzmfCFIb+tozF4BB0CsXUuhbOZ8IaBWLqXQtnM+EKQ39bRmLwCDoFYupdC2cz4Q0CsXUuhbOZ8IUhv62jMXgEHQKxdS6Fs5nwhoFYupdC2cz4QpDf1tGYvAIOgVi6l0LZzPhDQKxdS6Fs5nwhSG/raMxeAQdArF1LoWzmfCGgVi6l0LZzPhCkN/W0Zi8Ag6BWLqXQtnM+ENArF1LoWzmfCFIb+tozF4BB0CsXUuhbOZ8IaBWLqXQtnM+EKQ39bRmLwCDoFYupdC2cz4Q0CsXUuhbOZ8IUhv62jMXgEHQKxdS6Fs5nwhoFYupdC2cz4QpDf1tGYvAIOgVi6l0LZzPhDQKxdS6Fs5nwhSG/raMxeAQdArF1LoWzmfCGgVi6l0LZzPhCkN/W0Zi8Ag6BWLqXQtnM+ENArF1LoWzmfCFIb+tozF4BB0CsXUuhbOZ8IaBWLqXQtnM+EKQ39bRmLwCDoFYupdC2cz4Q0CsXUuhbOZ8IUhv62jML96C3H1TM7lQvCDoFYupdC2cz4ReBtUog6UogAAKlQIN+9Bbj6pmdyoXhBv3oLcfVMzuVC0HaRaHSi8AAKlQAxVo2baE+340ydatHkyHTdU467BaWtZ8IrnNRpxMxX0CsXUuhbOZ8Iu4YU6V62lmknQvAIOgVi6l0LZzPhDQKxdS6Fs5nwiKQ39bRmLwCDoFYupdC2cz4Q0CsXUuhbOZ8IUhv62jMXgEHQKxdS6Fs5nwhoFYupdC2cz4QpDf1tGYvAIOgVi6l0LZzPhDQKxdS6Fs5nwhSG/raMxeAQLDbbatOA00hKEIJxKUpLAkkTisCIv2EL4iJWW0Q1R0AgzOnVI6pqPfQxeEGZ06pHVNR76GJh07SYdJeAAFSoAAAAAAAAAAAECd05pHVNR76GL4gTunNI6pqPfQxjP7qLyZysD7+EuAADzp6E2eRz6orH/hume6tjYDH5HPqisf8Ahume6tjYDspXYXkePwz5iZ9z4mZuDpRSfuE7vIw/Y/FwdKKT9wnd5GH7Hk8O+cm+a/5hOdI7mH14sAADjGoAAAAAAAAAAAAAAAAAAdC5TunFS/o9ygAyndOKl/R7lAD5ph/zU37ouLPQSO6h8kV8m31dWt1LB7hA5Ft/S90dbN+4xRx8m31dWt1LB7hA5Ft/S90dbN+4xR99/Su0/t/KOF+r6Ivu5l4AAdyeeAAAAAAAAAAAIN0O1DjFEp9Pqj9P+UKiph55hDSl5hRX3MC4RC0l85tPPhjgGjlY19rvYwd2C4/pi1utnPcZQvC9aJULVokQdHKxr7Xexg7sGjlY19rvYwd2F4BFt9JC0yDo5WNfa72MHdg0crGvtd7GDuwvAFt9JC0yDo5WNfa72MHdg0crGvtd7GDuwvAFt9JC0yDo5WNfa72MHdg0crGvtd7GDuwvAFt9JC0yDo5WNfa72MHdg0crGvtd7GDuwvAFt9JC0yDo5WNfa72MHdg0crGvtd7GDuwvAFt9JC0yDo5WNfa72MHdg0crGvtd7GDuwvAFt9JC0yDo5WNfa72MHdg0crGvtd7GDuwvAFt9JC0yDo5WNfa72MHdg0crGvtd7GDuwvAFt9JC0yDo5WNfa72MHdg0crGvtd7GDuw59drdNtukSa3V3XG4kRGe4bbK3lnzkRJQ2gjWtRmZElKSNSjMiIjM8BlTue/2KIxdcy1UlEVMN2RSWmluVJimmjBK8EqMnJBKwcU0kjPMM0Jz1pLPi2+kiLRb0crGvtd7GDuwaOVjX2u9jB3YdP5ZvKCuS1pVAm5LqNGuSnORHatOdQzVJLT8ZBqbUx/9vp0s2V5xGee6pokqQZGS8FEnjZJ8uuVDKA/cMKp2hCpM1ylHWqOchmrMRmGc5CCbMptMiKfNJKzzW0txKlc2LSVJMRjc9PwRjM9DunRysa+13sYO7Bo5WNfa72MHdh4fe8tDLJFojLqb/wAnb0qnk48anFW40qclBKShEho7m4RCnEmlxRNobW2tGYSVkZ4et6Zet6QkcDOYg3bPapLM12nUaB8lTXnFKL58dubKUw60aVkSj4wXBqQZGpZrJKIU2v8A+IKZU1OjlY19rvYwd2DRysa+13sYO7DJZJ8qV3X+9NZuDJLcVvNRps6OmfLfpio36F820smlia87wuBfOMkcHilWCsM3HssWUbf/AOEqKpB0crGvtd7GDuwaOVjX2u9jB3YXgE230kTaZB0crGvtd7GDuwaOVjX2u9jB3YXgC2+khaZB0crGvtd7GDuwaOVjX2u9jB3YXgC2+khaZB0crGvtd7GDuwaOVjX2u9jB3YXgC2+khaZB0crGvtd7GDuwaOVjX2u9jB3YXgC2+khaZB0crGvtd7GDuwaOVjX2u9jB3YXgC2+khaZB0crGvtd7GDuwaOVjX2u9jB3YXgC2+khaZB0crGvtd7GDuwaOVjX2u9jB3YXgC2+khaZB0crGvtd7GDuwaOVjX2u9jB3YXgC2+khaZj7mp9fott1asRb6rSnoMF+S2lxiCaTUhtSiIyKOR4Ylz4GQ2Ag370FuPqmZ3KheExOsKfXgHnQAAFCoEG/egtx9UzO5ULwg370FuPqmZ3KhaDtItDpReAAFSp1XeTFYdyBVp2g3VVrdnRaZNlNTqZwHGEm3wis0jeacSRKwwMySSyLnSpJ4GPOFOvfyga9PtqjVPKFlJpMWo1anx3Zvyc81waVvILHPk2hEZPHzYOSSSrHAycxzFemqnYNPyk5MoVs1SBb8qM5INxxNaojVUaSknF4qbZdMm0vER/MWtK0pPnNCy5hlJnkcZFl0SlwKdZ1qsVCmGa3Kg9ZVBeVUjwPBMtsoSUGjHDEmCYVgWCVpxMRNTcboRGm4nQ4lz3zlcXlFKm2xERChQqtEt7hKzK4NMtpyO+65NJhptROZzjZJIjUwrBj5ppS9iULJ5lKvGfY0ik3jdBXYml06jvSJ9nkUKp0h99SzxmKkz3CdNCUNOqSZYrQvA2XEqwPtatZKqnIZTKtyv0mlVOK5T34OdRlOQGHIzLjWacZD7ajbUl5WCEupNOCfnKIjxiMZGcoc23E2rXsrMOFTmIzcGM1bNvqhE3HStK1EopsqaS1mbaEksyxSg3CIs5ZLTSjqVozxllDykXTAy51hxGWStxYsOqVA/kI7yNqOo4z3BIaU2dysPp4XOJw0JYbVnISTLLjecR90eUbejVIvO6G519UWlPsUiC5T2J+WaqWtIbNTSjUpinxUqbk4q/1ijIzMjTz5o7Krfk/5TK4ymJJyh2Q2w25LWjgLYrUZxSZL5PPocXHrrfCJcWkjUgyzD5yzSSeaOxiydSX7eual1KutPT7nWa35bULg22SJlDSEIbzzPNSlsvOszMzPn/YIUDzkWWebqZlIVTLJygTLTyuWjTjZh09ESSzlFqd9xzkuKkEbLLsh2O63KcJKCS02ajPBJklRngPneN75WYdxVaPKvC6K7RV8E/NZhQq/QoDClRm1LbNcWgS5cJKTMnDSmpkpGdgrMLOSPQNayb31XnLkcm3xQUnXUxoDfBW88RR6a246pTZ4zD4R9ROqInizUJwI+CV5hjMoHkf2flDuqu3lVLh4GpVd0nWj0XoUri+a0hCS4eVCdl8xoxxQ+3hj8zMP5wOGKmYNMh1W8cobV9XJb1zrqV02ymlU+Opi02nqM8xJU4siJNSkVdkm1GrFKlFmm5mkjFKk5rm4yC1ejT36szQ7Lyj0htBJ4d27LxRWsFkoyJtKDqcxxhR8586EEoiI8T5ho6/kveqNTerdHrkeDLQ3FXFYfgcPD42wchSHpDSXG1vJz5HCZiXGzz0JUajHMsfJy1aSolTlVTjdYKncRqD8Zji8aYfDKeJfAqU4pGatx0kEbijJLhkZq5jFkmmWSdSpY/RaF/U7xQvCDY/RaF/U7xQvDWPtM0i0sCDM6dUjqmo99DF4QZnTqkdU1HvoYQ6doh0l4AAVKgAAAAAAAAAAAQJ3TmkdU1HvoYviBO6c0jqmo99DGM/uovJnKwPv4S4AAPOnoTZ5HPqisf8Ahume6tjYDH5HPqisf+G6Z7q2NgOyldheR4/DPmJn3PiZm4OlFJ+4Tu8jD9j8XB0opP3Cd3kYfseTw75yb5r/AJhOdI7mH14sAADjGoAAAAAAAAAAAAAAAAAAdC5TunFS/o9ygAyndOKl/R7lAD5ph/zU37ouLPQSO6h8kV8m31dWt1LB7hA5Ft/S90dbN+4xRx8m31dWt1LB7hA5Ft/S90dbN+4xR99/Su0/t/KOF+r6Ivu5l4AAdyeeAAAAAAAAAAAINx/TFrdbOe4yheEG4/pi1utnPcZQvC0WhFnoQAAFSoAAAAAAAAAAAAAAAAAAAAAAAAAAAAAcKsvuxqTMfYoz9WWhlZpgsG0Tkk8P9Gk3VIbxPzfOURfvMecZnk62jSY0en0nyYLV+X61Umai5XKTTaS3Ct4kvtnwaHXFNysUNN4kplgyUszPBOceHpsBVpMhqp0jlyyE1zKnOlVbiuTCqJYpjkSnR7lsZyrSmFKSZqJp9VQaabNS8MFE0RlgWJqIhHyd+T7eeTelyKnbjeSii1STQDgPN0HJ47CfeczCUSXlJqxNPqJZedRJxMzwWgjMehgCyq1FlVqeRInkxZc5FksxpOUgosh9DcM6edTujPZjKUls1uEi5OLEtDZmtTTZKaxSaEGpOBjtG87Lu6TZ02BdlhUvKcunU2FAhUkoMVuDNk8IZuTOJzpRtEbSeDwJbxKPMcJKiJeI7qARYS0CyjoXIlkRg5O7oZqcXIRZFuQSgE1DqcbiblcaePE3Dk8DEbS3wmcZKS1JkII0pJGCB30ACyVCUqAAASAAAAAAAAAAAAAAAAAAAAAAAAAAAAAAg370FuPqmZ3KheEG/egtx9UzO5ULws+yvX8FvAAACpUCDfvQW4+qZncqF4Qb96C3H1TM7lQtB2kWh0ovAACpUxts3FDpFEj06fT643IYNxK0pokxZEfCKPmUloyMsD85GKmmlH+x13YE74IvALuKFutOthZtPOQdNKP9jruwJ3wQ00o/2Ou7AnfBF4BFYbutgzEHTSj/AGOu7AnfBDTSj/Y67sCd8EXgCsN3WwZiDppR/sdd2BO+CGmlH+x13YE74IvAFYbutgzEHTSj/Y67sCd8ENNKP9jruwJ3wReAKw3dbBmIdlNvNWxBQ+w8yvBajQ62ptaSNajLFKiIyPAy5jIXAARE6upDdXUCDM6dUjqmo99DF4QZnTqkdU1HvoYmHTtJh0l4AAVKgAAAAAAAAAAAQJ3TmkdU1HvoYviBO6c0jqmo99DGM/uovJnKwPv4S4AAPOnoTZ5HPqisf+G6Z7q2NgMfkc+qKx/4bpnurY2A7KV2F5Hj8M+Ymfc+Jmbg6UUn7hO7yMP2PxcHSik/cJ3eRh+x5PDvnJvmv+YTnSO5h9eLAAA4xqAAAAAAAAAAAAAAAAAAHQuU7pxUv6PcoAMp3Tipf0e5QA+aYf8ANTfui4s9BI7qHyRXybfV1a3UsHuEDkW39L3R1s37jFHHybfV1a3UsHuEDkW39L3R1s37jFH339K7T+38o4X6voi+7mXgAB3J54AAAAAAAAAAA4lSpFJrTCYtYpkScylZOJbkspdSSiIyJREojLHAzLH/ABMTNArF1LoWzmfCLwCVE1oZKbRB0CsXUuhbOZ8IaBWLqXQtnM+EXgE24rybTvIOgVi6l0LZzPhDQKxdS6Fs5nwi8AW4rxad5B0CsXUuhbOZ8IaBWLqXQtnM+EXgC3FeLTvIOgVi6l0LZzPhDQKxdS6Fs5nwi8AW4rxad5B0CsXUuhbOZ8IaBWLqXQtnM+EXgC3FeLTvIOgVi6l0LZzPhDQKxdS6Fs5nwi8AW4rxad5B0CsXUuhbOZ8IaBWLqXQtnM+EXgC3FeLTvIOgVi6l0LZzPhDQKxdS6Fs5nwi8AW4rxad5B0CsXUuhbOZ8IaBWLqXQtnM+EXgC3FeLTvIOgVi6l0LZzPhDQKxdS6Fs5nwi8AW4rxad5B0CsXUuhbOZ8IaBWLqXQtnM+EXgC3FeLTvIOgVi6l0LZzPhDQKxdS6Fs5nwi8AW4rxad5B0CsXUuhbOZ8IaBWLqXQtnM+EXgC3FeLTvIOgVi6l0LZzPhDQKxdS6Fs5nwi8AW4rxad5B0CsXUuhbOZ8IaBWLqXQtnM+EXgC3FeLTvIOgVi6l0LZzPhDQKxdS6Fs5nwi8AW4rxad5B0CsXUuhbOZ8IaBWLqXQtnM+EXgC3FeLTvIOgVi6l0LZzPhDQKxdS6Fs5nwi8AW4rxad5B0CsXUuhbOZ8IaBWLqXQtnM+EXgC3FeLTvIOgVi6l0LZzPhDQKxdS6Fs5nwi8AW4rxad5B0CsXUuhbOZ8IaBWLqXQtnM+EXgC3FeLTvIOgVi6l0LZzPhDQKxdS6Fs5nwi8AW4rxad5B0CsXUuhbOZ8IvAAhxN6SG29IAAEEAfORHYlsORZTLbzLyDbcbcSSkrSZYGkyPmMjLmMjH0AAQdArF1LoWzmfCGgVi6l0LZzPhF4Ba3FeWtO8g6BWLqXQtnM+ENArF1LoWzmfCLwBbivFp3kHQKxdS6Fs5nwhoFYupdC2cz4ReALcV4tO8g6BWLqXQtnM+ENArF1LoWzmfCLwBbivFp3kHQKxdS6Fs5nwhoFYupdC2cz4ReALcV4tO8g6BWLqXQtnM+ENArF1LoWzmfCLwBbivFp3kHQKxdS6Fs5nwhoFYupdC2cz4ReALcV4tO8g6BWLqXQtnM+Ecum2zbdFfVKo9v02C8pBtqcjRG2lGkzIzSZpIjwxIjw/wIUwEOKJ6WRaYAAEEAAAAAAAAAAAAQJ3TmkdU1HvoYviBO6c0jqmo99DGM/uovJnKwPv4S4AAPOnoTZ5HPqisf8Ahume6tjYDH5HPqisf+G6Z7q2NgOyldheR4/DPmJn3PiZm4OlFJ+4Tu8jCXdLTT9JQw+0hxtybCQtC0kaVJOS0RkZH5yMVLg6UUn7hO7yMJ1yfRzP3+D700PG/q2edhHX+EJ2OC9iDrxY0VtfVul/g2/7Bora+rdL/Bt/2FJ11phpbzziW220mpa1HglKS5zMzPzEM/Dyh2ZUZLMSn11qS5JnfJrPAtrWl1/ixScEqJOapPAmS88jzMDIsceYcdYPKeiBbDTGRLxOdora+rdL/Bt/2DRW19W6X+Db/sPu/WKbGqbFHkSSblymXH2UKSoiWhs0kvBWGbiWek83HHDE8MCMxkaFlzyUXZW0W/Zl5xbnkYuJfeoDTtUiQ1oIzNEqVGStiKsyI81Dy0KVgeaRiVg0t51AthGMiXiafRW19W6X+Db/ALBora+rdL/Bt/2GER5TGRNuiSbkq95Lt+lRX4sdcy4qVMozSjkqUTC0KmtNE40s0qwdRi3glRmoiIzFKq5c8mVNpVIrkKuTLjgV5LrlOftWjzbhTIQ0ZE4svk5l/BCTUkjUeCcTIsceYWyOH6e4jGvW3mp0VtfVul/g2/7Bora+rdL/AAbf9hlbcy22bdNWaotMot/MyHiUpK6lk/r1PYIkpMzzn5MNtpJ4FzEaixPAixMyIaV68baYtxm7V1VtVIkcBwUptKnEq4ZaW28CSRnzrWkvNzY8+GBiHgsCdHAthONb8T66K2vq3S/wbf8AYNFbX1bpf4Nv+wy+UrLXZGSmVTIl0Jrkh2pupbJujUSXVHIyVmaW3XmorbjiELdzWknmnnOLSkiPnMolr+Uzk2u27EWXTaZfTNQkLNMRUuyKwwxJQkkE46Tqo2Y0htxfBOG8bZocSaVEXNjKwOFq0pap5EY1p0tbzsPRW19W6X+Db/sFq9F6P9wj92kVBLtXovR/uEfu0jFS4IJqspLM+KL2m4XV9ZzpnKd04qX9HuUAGU7pxUv6PcoAfPMP+am/dFxZ3sjuofJFfJt9XVrdSwe4QDcW66XVqvIptMpMuNUZaJSFP1FxhacI7LRpNKWFl52jPHO8xjg2RU5FIsygUmo2rd7UuFS4sd9vRWpKzHENJSosSYMjwMj5yPAWtJG9W7v9k6pu4+44NPiwfPDdQrhUmGfFEolVVPlx6+dXKFtp7dQ49fOrlC209uo+ukjerd3+ydU3cNJG9W7v9k6pu45fxGbcuvU4fw6TqvefLj186uULbT26hx6+dXKFtp7dR9dJG9W7v9k6pu4aSN6t3f7J1Tdw+Izbl16j4dJ1XvPlx6+dXKFtp7dQ49fOrlC209uo+ukjerd3+ydU3cNJG9W7v9k6pu4fEZty69R8Ok6r3ny49fOrlC209uocevnVyhbae3UfXSRvVu7/AGTqm7hpI3q3d/snVN3D4jNuXXqPh0nVe8+XHr51coW2nt1Dj186uULbT26j66SN6t3f7J1Tdw0kb1bu/wBk6pu4fEZty69R8Ok6r3ny49fOrlC209uocevnVyhbae3UfXSRvVu7/ZOqbuGkjerd3+ydU3cPiM25deo+HSdV7z5cevnVyhbae3UOPXzq5QttPbqPrpI3q3d/snVN3DSRvVu7/ZOqbuHxGbcuvUfDpOq958uPXzq5QttPbqHHr51coW2nt1H10kb1bu/2Tqm7hpI3q3d/snVN3D4jNuXXqPh0nVe8+XHr51coW2nt1Dj186uULbT26j66SN6t3f7J1Tdw0kb1bu/2Tqm7h8Rm3Lr1Hw6TqvefLj186uULbT26hx6+dXKFtp7dR9dJG9W7v9k6pu4aSN6t3f7J1Tdw+Izbl16j4dJ1XvPlx6+dXKFtp7dQ49fOrlC209uo+ukjerd3+ydU3cNJG9W7v9k6pu4fEZty69R8Ok6r3ny49fOrlC209uocevnVyhbae3UfXSRvVu7/AGTqm7hpI3q3d/snVN3D4jNuXXqPh0nVe8+XHr51coW2nt1Dj186uULbT26j66SN6t3f7J1Tdw0kb1bu/wBk6pu4fEZty69R8Ok6r3ny49fOrlC209uocevnVyhbae3UfXSRvVu7/ZOqbuGkjerd3+ydU3cPiM25deo+HSdV7z5cevnVyhbae3UOPXzq5QttPbqPrpI3q3d/snVN3DSRvVu7/ZOqbuHxGbcuvUfDpOq958uPXzq5QttPbqHHr51coW2nt1H10kb1bu/2Tqm7hpI3q3d/snVN3D4jNuXXqPh0nVe8+XHr51coW2nt1Dj186uULbT26j66SN6t3f7J1Tdw0kb1bu/2Tqm7h8Rm3Lr1Hw6TqvefLj186uULbT26hx6+dXKFtp7dR9dJG9W7v9k6pu4aSN6t3f7J1Tdw+Izbl16j4dJ1XvPlx6+dXKFtp7dQ49fOrlC209uo+ukjerd3+ydU3cNJG9W7v9k6pu4fEZty69R8Ok6r3ny49fOrlC209uocevnVyhbae3UfXSRvVu7/AGTqm7hpI3q3d/snVN3D4jNuXXqPh0nVe8+XHr51coW2nt1Dj186uULbT26j66SN6t3f7J1Tdw0kb1bu/wBk6pu4fEZty69R8Ok6r3ny49fOrlC209uocevnVyhbae3UfXSRvVu7/ZOqbuGkjerd3+ydU3cPiM25deo+HSdV7z5cevnVyhbae3UOPXzq5QttPbqPrpI3q3d/snVN3DSRvVu7/ZOqbuHxGbcuvUfDpOq958uPXzq5QttPbqHHr51coW2nt1H10kb1bu/2Tqm7hpI3q3d/snVN3D4jNuXXqPh0nVe8+XHr51coW2nt1Dj186uULbT26j66SN6t3f7J1Tdw0kb1bu/2Tqm7h8Rm3Lr1Hw6TqvefLj186uULbT26hx6+dXKFtp7dR9dJG9W7v9k6pu4aSN6t3f7J1Tdw+Izbl16j4dJ1XvPlx6+dXKFtp7dQ49fOrlC209uo+ukjerd3+ydU3cNJG9W7v9k6pu4fEZty69R8Ok6r3ny49fOrlC209uocevnVyhbae3UfXSRvVu7/AGTqm7hpI3q3d/snVN3D4jNuXXqPh0nVe8+XHr51coW2nt1Dj186uULbT26j66SN6t3f7J1Tdw0kb1bu/wBk6pu4fEZty69R8Ok6r3ny49fOrlC209uocevnVyhbae3UfXSRvVu7/ZOqbuGkjerd3+ydU3cPiM25deo+HSdV7z5cevnVyhbae3UOPXzq5QttPbqPrpI3q3d/snVN3DSRvVu7/ZOqbuHxGbcuvUfDpOq958uPXzq5QttPbqHHr51coW2nt1H10kb1bu/2Tqm7hpI3q3d/snVN3D4jNuXXqPh0nVe8+XHr51coW2nt1Dj186uULbT26j66SN6t3f7J1Tdw0kb1bu/2Tqm7h8Rm3Lr1Hw6TqvefLj186uULbT26hx6+dXKFtp7dR9dJG9W7v9k6pu4aSN6t3f7J1Tdw+Izbl16j4dJ1XvPlx6+dXKFtp7dQ49fOrlC209uo+ukjerd3+ydU3cNJG9W7v9k6pu4fEZty69R8Ok6r3ny49fOrlC209uocevnVyhbae3UfXSRvVu7/AGTqm7hpI3q3d/snVN3D4jNuXXqPh0nVe8+XHr51coW2nt1Dj186uULbT26j66SN6t3f7J1Tdw0kb1bu/wBk6pu4fEZty69R8Ok6r3ny49fOrlC209uocevnVyhbae3UfXSRvVu7/ZOqbuGkjerd3+ydU3cPiM25deo+HSdV7z5cevnVyhbae3UOPXzq5QttPbqPrpI3q3d/snVN3DSRvVu7/ZOqbuHxGbcuvUfDpOq958uPXzq5QttPbqHHr51coW2nt1H10kb1bu/2Tqm7hpI3q3d/snVN3D4jNuXXqPh0nVe8+XHr51coW2nt1Dj186uULbT26j66SN6t3f7J1Tdw0kb1bu/2Tqm7h8Rm3Lr1Hw6TqvefLj186uULbT26hx6+dXKFtp7dR9dJG9W7v9k6pu4aSN6t3f7J1Tdw+Izbl16j4dJ1XvPlx6+dXKFtp7dR84kS5JdyRaxWIFNiMxIMmMlMac5IUtTrjCiMyUy2RERMn+0/OQ5Okjerd3+ydU3cNJG9W7v9k6pu4rHh8yOFwumcvBgUuXEooVnK4CRpI3q3d/snVN3DSRvVu7/ZOqbuOFVHJsu47KyOfVFY/wDDdM91bGwGVyUw5lOyXWdT6hFeiyotAp7L7DzZocacTHQSkKSfOlRGRkZHzkZDVDs5fYXkeOwtp4RG1e+Jmbg6UUn7hO7yMJ1yfRzP3+D700KNwdKKT9wnd5GE65Po5n7/AAfemh439V7/AAjr/CE7HBexB14s/wBufo1VvuL/AHah/PjKbDtGZarES9blyeUyM/GS/BcvmnomxWZbFPpGbxNpcqO3xhRO4qNzhiNtk0ZmYtwlf0aHAZoFCjVJdZj0WA1PczzXKRGQl5WeSCXisizjziaaI+fn4NGP6pYaSZ2KdSscFs8r5M7tta36HahWrW7CmR35txxKdRLGokCDS67JjE4hudDYQbzyXjIibUtqQbeatZqLDnLsSxsmWU+1KvSqNVst18zaJSaDHedgKp1FTBcfSZoXFJ1NOJ7gySksP0vCYYGazxxHatTsGxa3AqNLrNlUGfCq6TRUI0qmsutTEms3DJ5CkmThGtSlfOI/nGZ+cxl6X5Nnk60Sc1VKLkDycwJjOdwUiLasFp1GJGk81SWiMsSMyPA/MZkJc2GKvJMhQNHiOsvWumiIi0fKBbdAN6rIpSa1XcrkyJWaG0dNTIbS1NeZkNUtZKS+0hCI6uFbddJJsEakn6ByezJNfs2yznUWn3il+j1yNDYt6chxuSludEQiQU9amkurNSDfVMSlk1KPPQ2leak/RtNta2KNCpdNo9uUuDEobfBUuPGhttNwUZhozWEpIiaLMM04JwLA8PMJF1ZJsld9w49OvfJpalwxIbzsmOxVaNGltsuuGZuOIS6hRJUozM1KLnMzPEXiwiGKioQpbRhcmFkZUbarNShZSa1MuOoVGG6VNu2MuPjSI6l4ppxMrQWK28UmUnglcY4MjeJBoQg+rJ7FTvrJbVGaT5RF0Jm23XG6XV4VKp9BJg5JVoyS7JP5NVmSlJNDq0IUgudCzbInPn98255PmQSz61FuS0siFgUSrwVGqLPp1tQo0lhRpNJmh1tslJM0qMjwMuYzL9o2HyDQvk75H+RYHEOE4XivFkcDn8JwmdmYZuPCfPxwxzufz84pjUnVfx4L3LWHSh5S8ryjuUixrVtC6Kvc9+OJrKpz1SrVqMzWG21NLZbQ6uHb86GhRuuIShKoZuKNZYKL9YsF5L1Gh2Vl+pbq8n06lLepcqI65CsR+IbRvqb4I31s2lSODaUbLmC3Xlt4oP5pH84vdU6gUKqT6fVanRYEubSXFuwJL8ZDjsRa05i1NLURm2akmaTNJliR4HzDkphQ0THKgiIymU62hlx8myJxaEmo0pNXnMiNajIvMWcf7zFlhCUuxQhy6xVqfYS7V6L0f7hH7tIqCXavRej/AHCP3aRwIu9h8nxRuuy/T8nTOU7pxUv6PcoAMp3Tipf0e5QA+c4f81N+6LizvpHdQ+SPToDoK1rWtiRbFIkSLcpbrrsCOta1w21KUo20mZmZliZmf7RT0QtPVekfgmvCPukOFxxQqKys/wDPsfN1hcTVbO/2O6gHSuiFp6r0j8E14Q0QtPVekfgmvCLZVM1Vt9icqi1d/sd1AOldELT1XpH4Jrwhohaeq9I/BNeEMqmaq2+wyqLV3+x3UA6V0QtPVekfgmvCGiFp6r0j8E14QyqZqrb7DKotXf7HdQDpXRC09V6R+Ca8IaIWnqvSPwTXhDKpmqtvsMqi1d/sd1AOldELT1XpH4Jrwhohaeq9I/BNeEMqmaq2+wyqLV3+x3UA6V0QtPVekfgmvCGiFp6r0j8E14QyqZqrb7DKotXf7HdQDpXRC09V6R+Ca8IaIWnqvSPwTXhDKpmqtvsMqi1d/sd1AOldELT1XpH4Jrwhohaeq9I/BNeEMqmaq2+wyqLV3+x3UA6V0QtPVekfgmvCGiFp6r0j8E14QyqZqrb7DKotXf7HdQDpXRC09V6R+Ca8IaIWnqvSPwTXhDKpmqtvsMqi1d/sd1AOldELT1XpH4Jrwhohaeq9I/BNeEMqmaq2+wyqLV3+x3UA6V0QtPVekfgmvCGiFp6r0j8E14QyqZqrb7DKotXf7HdQDpXRC09V6R+Ca8IaIWnqvSPwTXhDKpmqtvsMqi1d/sd1AOldELT1XpH4Jrwhohaeq9I/BNeEMqmaq2+wyqLV3+x3UA6V0QtPVekfgmvCGiFp6r0j8E14QyqZqrb7DKotXf7HdQDpXRC09V6R+Ca8IaIWnqvSPwTXhDKpmqtvsMqi1d/sd1AOldELT1XpH4Jrwhohaeq9I/BNeEMqmaq2+wyqLV3+x3UA6V0QtPVekfgmvCGiFp6r0j8E14QyqZqrb7DKotXf7HdQDpXRC09V6R+Ca8IaIWnqvSPwTXhDKpmqtvsMqi1d/sd1AOldELT1XpH4Jrwhohaeq9I/BNeEMqmaq2+wyqLV3+x3UA6V0QtPVekfgmvCGiFp6r0j8E14QyqZqrb7DKotXf7HdQDpXRC09V6R+Ca8IaIWnqvSPwTXhDKpmqtvsMqi1d/sd1AOldELT1XpH4Jrwhohaeq9I/BNeEMqmaq2+wyqLV3+x3UA6V0QtPVekfgmvCGiFp6r0j8E14QyqZqrb7DKotXf7HdQDpXRC09V6R+Ca8IaIWnqvSPwTXhDKpmqtvsMqi1d/sd1AOldELT1XpH4Jrwhohaeq9I/BNeEMqmaq2+wyqLV3+x3UA6V0QtPVekfgmvCGiFp6r0j8E14QyqZqrb7DKotXf7HdQDpXRC09V6R+Ca8IaIWnqvSPwTXhDKpmqtvsMqi1d/sd1AOldELT1XpH4Jrwhohaeq9I/BNeEMqmaq2+wyqLV3+x3UA6V0QtPVekfgmvCGiFp6r0j8E14QyqZqrb7DKotXf7HdQDpXRC09V6R+Ca8IaIWnqvSPwTXhDKpmqtvsMqi1d/sd1AOldELT1XpH4Jrwhohaeq9I/BNeEMqmaq2+wyqLV3+x3UA6V0QtPVekfgmvCGiFp6r0j8E14QyqZqrb7DKotXf7HdQDpXRC09V6R+Ca8IaIWnqvSPwTXhDKpmqtvsMqi1d/sd1AOldELT1XpH4Jrwhohaeq9I/BNeEMqmaq2+wyqLV3+x3UA6V0QtPVekfgmvCGiFp6r0j8E14QyqZqrb7DKotXf7HdQDpXRC09V6R+Ca8IaIWnqvSPwTXhDKpmqtvsMqi1d/sd1AOldELT1XpH4Jrwhohaeq9I/BNeEMqmaq2+wyqLV3+x3UA6V0QtPVekfgmvCGiFp6r0j8E14QyqZqrb7DKotXf7HdQDpXRC09V6R+Ca8IaIWnqvSPwTXhDKpmqtvsMqi1d/sd1AOldELT1XpH4Jrwhohaeq9I/BNeEMqmaq2+wyqLV3+x3UA6V0QtPVekfgmvCGiFp6r0j8E14QyqZqrb7DKotXf7HdQDpXRC09V6R+Ca8IaIWnqvSPwTXhDKpmqtvsMqi1d/sd1AOldELT1XpH4Jrwhohaeq9I/BNeEMqmaq2+wyqLV3+x3UAz2Tr6vrY6mhdwgaEcqCK3CorzlQu0kzM3B0opP3Cd3kYTrk+jmfv8AB96aFG4OlFJ+4Tu8jD8yokWcwqLNjNSGV4ZzbqCWlWB4liR8x85EY8f+pQuPCZ8K8af8QndYM6S4H1pZ9QEvRW19W6X+Db/sGitr6t0v8G3/AGHFrN1VtfI1pDfu9yoAl6K2vq3S/wAG3/YNFbX1bpf4Nv8AsFZuqtr5CkN+73KgCXora+rdL/Bt/wBg0VtfVul/g2/7BWbqra+QpDfu9yoAl6K2vq3S/wAG3/YNFbX1bpf4Nv8AsFZuqtr5CkN+73KgCXora+rdL/Bt/wBg0VtfVul/g2/7BWbqra+QpDfu9yoJdq9F6P8AcI/dpDRW19W6X+Db/sKLTTTDSGGGkNttpJCEISRJSkiwIiIvMRCIYY3GooklRPxrpp/CuDaSojojKd04qX9HuUAGU7pxUv6PcoAfOsP+am/dFxZ30juofJGztDonROro3dJFcSLQ6J0Tq6N3SRXH2yT3cPkj5bD2USrqiVGdbs+NSKnVafMUwo2ZFKTFVLSouciaKWhbGceGBcIk08/Ph5y8r6TZYWZmlM6u+UZFt9ZIphvLKwFOImcaNk0HHQlRmeeZJwQ2bpnzERlgQ9XV5mvSKRJZtipQKfVFowjSZ8JcyO2rHzrZQ60pZYY8xOJ/9x1q7kOrJVkr4jZTJzl2IkLmNrmUyO7RkvqZ4L/8BBIUSSLHNdS+UrNMkKkrbLMPeFpaTSFpaTJ3RlHylWtlNj5OLPeavaow7ZfU4s5zcmppkqW2puRNp7LUSE15jJHCSoqXE55IUSsEKn2Le3lOtJuuk3pZzTswokqoQ0yUwaYiLnmo2jdej1mpPtoMkOEhCIqiJScOEwIzHZ8zJdWLvclt5Ua3btehzKEqjriRLc4Fo3HHErdeUiU/JbWWLbZobUgySZHnG5iRFlrL8lOxLTrNcrCKRakF+oxGabCk23a0aizIsRJr4UlPNGrF55LhpcdZSx80k5qUGkjKaqhasNDqKuZdsq1WmM5O13xbVszKdCpEypqOnPTlMsuHFJxxUxqqx5SkmUlKjWqEyk/0iUuGaDWPU+TV2tv2Bb71yVJyoVJynsqkS3YPElvqNJYLUxwjvBqMsDNPCKwMz83mLBVrybaVVKe3b0a+7lh2+whxtilNyCJhhGKFNtkhJJbfSTqOFUuSh99ajMuFJClpX2TZ9Gq1AtyHS67XTrNRbJa5U7gltJedWs1qNDa1uKbbI1YIQa1ZqSSnOPDERE01mIiaazFkAAUKAAAAAAAAAAAAAAAAAAAAAAAAAAAAAAAAAAAAAAAAAAAAAAAAAAAAAAAAAAAAAAAAAAAAAAAAAAAAAAAAAAAAAAAAAAAAAAAAAAAAAAAAAAAAAAAAAAAAAAAAAAAAAAAAAAAAAAAAAAAAAAAAAAAbLJ19X1sdTQu4QNCM9k6+r62OpoXcIGhHOkd1D5LgdlL7C8jM3B0opP3Cd3kYfsfi4OlFJ+4Tu8jD9jyuHfOTfNf8wncyO5h9eLAAA4xqAAAAAAAAAAAAAAAAAAHQuU7pxUv6PcoAMp3Tipf0e5QA+aYf81N+6Liz0EjuofJGztDonROro3dJH7kXJTI8p+GpM512OokO8BT5DyUqNJKIs5CDTjmqSeGP7R+LQ6J0Tq6N3SQon0lX+sUe6Rx9phcSlwKHxpwPlaboqDSim/ZqvseX8MNKKb9mq+x5fwxy1Vmjop51ZdVhpgpPA5RvpJojzs3DPxw/W+b5/PzDmDSky9bPctSIkaUU37NV9jy/hhpRTfs1X2PL+GKLEyJKU8iLKZeVGc4F4m1ko23MCPNVh5lYKSeB8+Bl+8fAq1RlSVQk1aEchMjiimifRnk/wfC8Eaccc/g/n5vnzefzc4UmXrZ7ikRxdKKb9mq+x5fww0opv2ar7Hl/DHPlVGnwXYzE2fHjuzXeAjIddShT7mapWYgjP5ys1KlYFz4JM/2GPs662y2t55xLbbaTUtajwJJF5zM/2EFJl62e4pEStKKb9mq+x5fww0opv2ar7Hl/DHIauCgvxafOZrcByNVzQVPeTJQaJZqQa0k0ojwcxSRqLNxxIjPzDPV/LHkhtOtO21dOVSz6NV2WTkuU+oVyLHkoaJBrNxTS1kokkhKlYmWGBGfmILMy9bPcmkTLOlFN+zVfY8v4YaUU37NV9jy/hiRaOWHJJlAqDlJsPKlaNyTmmjecjUitxpjqGyMiNZoaWoyTiZFjhhzkNcFmYvFbPchqJEjSim/ZqvseX8MNKKb9mq+x5fwxXARSZetnuP3EjSim/ZqvseX8MNKKb9mq+x5fwxXAKTL1s9x+4kaUU37NV9jy/hhpRTfs1X2PL+GK4BSZetnuP3EjSim/ZqvseX8MNKKb9mq+x5fwxXAKTL1s9x+4kaUU37NV9jy/hhpRTfs1X2PL+GK4BSZetnuP3EjSim/ZqvseX8MNKKb9mq+x5fwxXAKTL1s9x+4kaUU37NV9jy/hhpRTfs1X2PL+GK4BSZetnuP3HEptVh1VDq4anv0DnBOJdYcZWhealWBpWRH+qpJ+b9o5YkUT6Sr/AFij3SOK4tA3Eqv+eIhdVnPjLlMwo65Ug15iMMcxtS1GZngRElJGZmZmXMRD4OVeK2wxIU1NNMg8EEmE8pRf8SSRij+YiH+VniXE2/lDP4LjcXNzPPwnDo4P/LPzcf8ADEc4G4m2kM9Tj8fY478n8HJ4XNz87iznB4f/ACZuZj/hjiPk3V4rjD8hLU0kxzwWSoTyVH/wpNGK/wCUjH+Vyu0S2aTKr9yVmDSaZCbN2VNnSEMMMI/9S3FmSUl/iZkMF/8AU35Nv/8A0Jk09rIHxRNmN6OBZKJ6DfOVeK2wxIU1NNMg8EEmE8pRf8SSRij+YiH14+xx35P4OTwubn53FnODw/8AkzczH/DHEcCn3faVWpMOvUq6KRMplRaW/Dmx5rTjElpKTUpbbiVGlaSIjMzIzIiIzHPj1Gny4DdVizo70J1kpDclt1KmltGWcSyWR4Gky58ccMApERRnybq8Vxh+QlqaSY54LJUJ5Kj/AOFJoxX/ACkYOVeK2wxIU1NNMg8EEmE8pRf8SSRij+YiH5auCgvxafOZrcByNVzQVPeTJQaJZqQa0k0ojwcxSRqLNxxIjPzDPV/LHkhtOtO21dOVSz6NV2WTkuU+oVyLHkoaJBrNxTS1kokkhKlYmWGBGfmIKR9L3FImajj7HHfk/g5PC5ufncWc4PD/AOTNzMf8McR8m6vFcYfkJamkmOeCyVCeSo/+FJoxX/KRjPWjlhySZQKg5SbDypWjck5po3nI1IrcaY6hsjIjWaGlqMk4mRY4Yc5DXA1Eg00cJyrxW2GJCmpppkHggkwnlKL/AIkkjFH8xEPrx9jjvyfwcnhc3PzuLOcHh/8AJm5mP+GOI5ACKRXjOcJurxXGH5CWppJjngslQnkqP/hSaMV/ykYOVeK2wxIU1NNMg8EEmE8pRf8AEkkYo/mIhzQCkV/W0Zzj8fY478n8HJ4XNz87iznB4f8AyZuZj/hjiPk3V4rjD8hLU0kxzwWSoTyVH/wpNGK/5SMc0ApFeM5wnKvFbYYkKammmQeCCTCeUov+JJIxR/MRD68fY478n8HJ4XNz87iznB4f/Jm5mP8AhjiOQAUivGc4TdXiuMPyEtTSTHPBZKhPJUf/AApNGK/5SMHKvFbYYkKammmQeCCTCeUov+JJIxR/MRDmgFIr+toznH4+xx35P4OTwubn53FnODw/+TNzMf8ADHEfJurxXGH5CWppJjngslQnkqP/AIUmjFf8pGOaAUivGc4TlXitsMSFNTTTIPBBJhPKUX/EkkYo/mIhyWpDD63mmnCUqOsm3SL/AMqjSlWB/wAqkn/mPoOFAcYXKqSWohsqRKSl1Z/65XAtHnl/KaU/yBVpqpGc5oAAsWAjM3dR5DKJEduqOtOpJaFopMtSVJMsSMjJvAyMv2iyJFodE6J1dG7pIzicVpQw/wA/gq260Q0opv2ar7Hl/DDSim/ZqvseX8MVwCky9bPcfuJGlFN+zVfY8v4YaUU37NV9jy/hiuAUmXrZ7j9xI0opv2ar7Hl/DDSim/ZqvseX8MVwCky9bPcfuJGlFN+zVfY8v4YaUU37NV9jy/hiuAUmXrZ7j9xI0opv2ar7Hl/DFGHLjz4jE6I5wjEltLrS8DLOQosSPA+cuY/2j7CRaHROidXRu6SCcSiUMXWj+RnrRlccGo1qBS3mY8rjKnX0rW2hiK6+o0pNJKPBtKjIiNaec/3jnCRJ6WU3q6b3sYTMicMNV/HERNpZhpRTfs1X2PL+GGlFN+zVfY8v4YrgIpMvWz3H7iRpRTfs1X2PL+GGlFN+zVfY8v4YrgFJl62e4/cSNKKb9mq+x5fww0opv2ar7Hl/DFcApMvWz3H7iRpRTfs1X2PL+GGlFN+zVfY8v4YrgFJl62e4/ccSm1WHVUOrhqe/QOcE4l1hxlaF5qVYGlZEf6qkn5v2jliRRPpKv9Yo90jiuLQNxKr/AJ4iF1WckHdNJz3EIRUXeCcW0pTVMkuIz0KNKiJSWzI8FEZcx/sDSim/ZqvseX8MLX+jXusah726K4zgcyOFRVWf+PchWmqkjSim/ZqvseX8MNKKb9mq+x5fwxXAWpMvWz3J/cSNKKb9mq+x5fww0opv2ar7Hl/DFcApMvWz3H7iRpRTfs1X2PL+GGlFN+zVfY8v4YrgFJl62e4/cSNKKb9mq+x5fwx9oVfp0+WUFkpbb5tqdSiRCeYzkJNJKMjcQkjwNafN+8hREiT0spvV03vYwiJxw5214eH8+ZDqiuAANS5ssnX1fWx1NC7hA0Iz2Tr6vrY6mhdwgaEc6R3UPkuB2UvsLyMzcHSik/cJ3eRh+x+Lg6UUn7hO7yMP2PK4d85N81/zCdzI7mH14sAADjGoAAAAAAAAAAAAAAAAAAdC5TunFS/o9ygAyndOKl/R7lAD5ph/zU37ouLPQSO6h8kbO0OidE6ujd0kZi9ZdKg2hf0muU+3J9PS5hJi3HKKNTH2ziRyUiQ4bTxJQZHgf6JeOJFmniNPaHROidXRu6SPhDhM1J256fIW+hqTNJpao8hxh0kqhxyM0ONmlaFc/MpJkZHzkZGPtMHZl9eDPlkOiHrwP5lyrdsU4LrR0zI6zU1TTlFbPyjRCnJYOZiTPFNF/lHHM5uL8NxzM5uDzv0Y7vv1+wZt1W07IsfIzRYk211Q6X8lwI9WlvMKZlKW9SX8YpkiNwKE4KZ5jW4WDRHnK9Jf/Tbk1478pfKeUTjfBcBxjlKuPhODxzszO49jm48+HmxG2kWTaU6A1Tqtb8OqstR0xcam3x1xbSUqSSXHH85bnM44RmozM89eJnnHjzXMRyXMT0HQlqWrlAcvadTLsyh0p5+Q5WKbTl0K3X6a63JVAhGchT657xoJKUIzUJQZmrEzWRcw+tOuavpRLuZ63pqq6m7EOKppR18KqaVuEXB5uGOBuc2dhhmnnebnHZMfycchdMkKm21kwodrzVMORjnWwwdEl8E5hnpKRBNp0iPNLzK5sOYcAvJhyVJkqmpk38UhUjjanSyjXFnm/wAHwXCmrj2OfwfzM7z5vN5uYVtIraXidMeULbxw26JSMpFA0gapkGEqnVyfQKtdrbUwjS26ldLag8TUp9SlIznppOkS0m3mmlBF9ckWTmmVCjX3k4ty36LRm7ggG5WrhgWlUbQmElaneLNs0WVBSwbKEktvP4y5n5pm6lZmZH6Mp2SyzadNg1E2avUJFMYJiEurV2dUuLmWeXCoKS84SX8HFpN8v0ppPNNZpIiH3tLJ1a9lKqDlGKrvvVQ08akVWtzao+pKc7NQTst1xaGyzlGSEmSSNSjIsTMwt5qC2qUP5vw8jFpusxZ1Qye3VGoLy2nZTsK2VuGmMchLxvKIrKRFe4PnVicg0cGSkJWbas1XpfKNZ1XtWnQcmtMyh2pBpM2w6hTqbEatN9mfMcJTKlqjs0x5BmvHB3g4sUlESV5pEZkpHcH/ANOGTTixwSm36mGaOC4onKJcJRibww4MmSm5hIw5szNzcObDDmGoqeTWyqmmor+Rjp8urMMRp1SpMp6m1F9pn/RIVMirbkGScTIi4TmIzLzGYlzEyXMTPNPkr2/UWsqcyrP3TctVajoqzBoqls3dBQlS32DzydrEmQwSjzDxQSkPf+o3MDzfXowtn5F7KsWrHWbemXeb6lOLW3ULzrNQjrWv9ZamJMpxpSj8+caTPHnIxuhSJ1dSkbtOoAAFSoAAAAAAAAAAAAAAAAAAAAABIon0lX+sUe6RxXEiifSVf6xR7pHFcUl9n1fFlYdBxak4+3HQqPEKQo32Emg/2JN1JKX/ACpM1fyjlDi1Jt9yOhMeWUdRPsKNZ/tSTqTUj+ZJGn+YcoW/yJ8TNZTJcqBk8uSbBkux5DFLkuNPNLNC21k2ZkpKi5yMj/aQ8u6K+UVy7aU8Uv3RPSDN4X5Tl8U4DjmGdxf5bw4LgubH5OzM3/yf/wCwPYE+BAqsGRTKpCYmQ5bSmZEeQ2lxp1tRYKQtKiMlJMjMjIywMh12fkx+TYZYf/T3k19k4HwhpDEkaQxWTzvlxrlwVKxoKK9W3GUuWlTCpLblQitHWpTz7apMaQ9OaejIS+lsmv0yDJRpNJ5xOZisf5Mlr165WLnyclMctGLdVGmzK5SYVMYbcp75OJYZQ8higQozT6EtLQps5K0OfOVwCkrMe05uSSwZ1NiUd2jyGoUKA1S2mY1RlR0nDbPFMdfBuJ4Rv9ikKxJRcyiMuYf7ZGSTJ7k6okC3rUt1LMSlm6cJUuS9Nfj8IgkLJD8ha3UkaEpRgSsCSlKSwIiIWtpKhbGJKh/OiHkYtN1mLOqGT26o1BeW07KdhWytw0xjkJeN5RFZSIr3B86sTkGjgyUhKzbVmq9L5RrOq9q06Dk1pmUO1INJm2HUKdTYjVpvsz5jhKZUtUdmmPIM144O8HFikoiSvNIjMlI7g/8ApwyacWOCU2/UwzRwXFE5RLhKMTeGHBkyU3MJGHNmZubhzYYcw1FTya2VU01FfyMdPl1ZhiNOqVJlPU2ovtM/6JCpkVbcgyTiZEXCcxGZeYzBzEw5iZ5p8le36i1lTmVZ+6blqrUdFWYNFUtm7oKEqW+weeTtYkyGCUeYeKCUh7/1G5geb69GFs/IvZVi1Y6zb0y7zfUpxa26hedZqEda1/rLUxJlONKUfnzjSZ485GN0KROrqUjdp1AAAqVAAAAAAAAAAAAAAAAAAAOPF47w8zjeZwXDFxbN8/B8GjHH/HP4T/LAcgcKA2wiVUlNSzeUuUlTqD/1KuBaLML+Ukq/nFXpRDOaAALEgSLQ6J0Tq6N3SRXEi0OidE6ujd0kZvvF5P8ABV9pFcAAaFgAAAAAAAAAAAJFodE6J1dG7pIriRaHROidXRu6SM33i8n+Cr7SK4kSellN6um97GFcSJPSym9XTe9jBN7PquKEWgrgADQsAAAAAAAAAAASKJ9JV/rFHukcVxIon0lX+sUe6RxXFJfZ9XxZWHQSLX+jXusah726K4kWv9GvdY1D3t0VxEnu4fJCHsoAADQsAAAAAAAASJPSym9XTe9jCuJEnpZTerpvexhnN7PquKKxaCuAANCxssnX1fWx1NC7hA0Iz2Tr6vrY6mhdwgaEc6R3UPkuB2UvsLyMzcHSik/cJ3eRh+x+Lg6UUn7hO7yMP2PK4d85N81/zCdzI7mH14sAADjGoAAAAAAAAAAAAAAAAAAdC5TunFS/o9ygAyndOKl/R7lAD5ph/wA1N+6Liz0EjuofJGztDonROro3dJCifSVf6xR7pHC0OidE6ujd0kKJ9JV/rFHukcfaYOzL68GfK1oh68CuODWqi9S4HGo8ZD7qnmGENrcNtJqddS2RmoiUZERrx8x+Yc4SLo+jWesaf720NJjagbVxaLMmOM3Z6EpG1Hd3DjN2ehKRtR3dxXARYi1nu5CjvJHGbs9CUjaju7hxm7PQlI2o7u44WUDKHZ+S+2n7tvivQaVTWFJb4WXKaYJa1HglCVOqSk1Hz4FjjzGMtM8pHIzAmymZF+0QqfAkxoc2r/KkT5PivPtvOIbdfN3NQrBgyNJ4Hi43gR53NKlxP/J7uRKgiehm24zdnoSkbUd3cOM3Z6EpG1Hd3GEm5fqPTK5V6ZU7IuWPApcNE1uskunvQp6HErWzwHBSlOnwiWnTSa20JwQecacU516wspEu+anXKa9k7uW3SoUkojsiqu09Tb7ualea3xWU8r9RaFYqSksFEWOJGRTiotZ7uQsO/gXeM3Z6EpG1Hd3DjN2ehKRtR3dxXAVsRaz3ciKO8kRKpVvlZql1SmRGOHjOyG3I8xT3+jU2kyMlNowx4UufE/MYriRJ6WU3q6b3sYVwlt1abrR/hCHxAgU2sXPVKdFqcehUtLUtlD6CXU3CUSVJJREeDBljgYviRaHROidXRu6SEVXGknTM/wAB1rQcZuz0JSNqO7uHGbs9CUjaju7iuPy64lptbqiUaUJNRklJqPAv3EXOZ/4FzibEWs93IUd5K4zdnoSkbUd3cOM3Z6EpG1Hd3HXf/wBTuTo6fcFSboGURbduKSiUg7BrSHFKNtLhElK4xGR4LLHPzcC+ceCTJR86rZd4FPOgyYeTi+Z9OrzjraZy6Y1TeJm0S1um/GqDseWkkttuOYpZVnJT8zOM0kc4qPWe7kWsRG24zdnoSkbUd3cOM3Z6EpG1Hd3GOouWtq4bxgWrSMnN1vxaiiU61W86nJgk1Hd4F1xSVSykERLNJYEyajzyPDAlGXZAhy4l/k93IhwteJI4zdnoSkbUd3cfKTVrhgEy9Oo1OJhySxHWpqorWtPCupbIySbKSPA1keGJeYXBIuj6NZ6xp/vbQpGooYXEonm8uRVppVqVwABsXJFE+kq/1ij3SOK4kUT6Sr/WKPdI4rikvs+r4srDoODWeJcTb+UM/guNxc3M8/CcOjg/8s/Nx/wxHOHFqTj7cdCo8QpCjfYSaD/Yk3Ukpf8AKkzV/KOUJXafV5PiQKbWLnqlOi1OPQqWlqWyh9BLqbhKJKkkoiPBgyxwMcjjN2ehKRtR3dwtDonROro3dJFcZy4YooFE4no/jkVhTaTqSOM3Z6EpG1Hd3DjN2ehKRtR3dxWUokkalGRERYmZ/sHVUvyqvJyhV5m33st1ik64y864/pLAJlg21ISbbijeLNWo18ycDPBC8cMBdS4noie7kWULehm/4zdnoSkbUd3cOM3Z6EpG1Hd3GRrXlCZG6KihrVlEt6am5G33aUcOrxXOOIaQtSja/SFwhGpBtkaMcVmSebEfOjZf7Erdy0+0osW4DqVSKQbSWqM/JbaJp82VG+5HS4iOk1EZkp00JMv2kfMJxUes93IWIjZcZuz0JSNqO7uHGbs9CUjaju7iuArYi1nu5EUd5Dk1a4YBMvTqNTiYcksR1qaqK1rTwrqWyMkmykjwNZHhiXmFwSLo+jWesaf720K4Q1UThbro/IVa0IFNrFz1SnRanHoVLS1LZQ+gl1NwlElSSURHgwZY4GORxm7PQlI2o7u4Wh0TonV0bukiuKy4YooFE4no/jkRCm0nUkcZuz0JSNqO7uHGbs9CUjaju7ilKlRoUZ2ZMkNMR2EKddddWSENoSWKlKUfMRERGZmfmHUyvKpyRSKTGqtty65dhTHX2WGbVokquKUpl0kOYrhIdaQZEZOZq1pUbakqIjxIjupcT0RPdyLKBvQzsfjN2ehKRtR3dw4zdnoSkbUd3cYd3L9QZEGi1m27NuyuUmtO8Fx1ERinKiEUhuOa3Y1RejSjQTjqcVNMuFh/7kR1bfyx2jc92O2HSkTl3HAzjrFMU0knaQgkkaVyTzszNWakpQbal5+JmnOShakzi4tZ7uQsRXmj4zdnoSkbUd3cOM3Z6EpG1Hd3FcBWxFrPdyIo7yHJq1wwCZenUanEw5JYjrU1UVrWnhXUtkZJNlJHgayPDEvMLgkXR9Gs9Y0/3toVwhqonC3XR+Qq1oBwoDjC5VSS1ENlSJSUurP/AFyuBaPPL+U0p/kHNHHi8d4eZxvM4Lhi4tm+fg+DRjj/AI5/Cf5YCz0olnIAAFiQJFodE6J1dG7pIriRaHROidXRu6SM33i8n+Cr7SK4AA0LAAAAAAAAAAAASLQ6J0Tq6N3SRXEi0OidE6ujd0kZvvF5P8FX2kVxIk9LKb1dN72MK4kSellN6um97GCb2fVcUItBXAAGhYAAAAAAAAAAAkUT6Sr/AFij3SOK4kUT6Sr/AFij3SOK4pL7Pq+LKw6CRa/0a91jUPe3RXEi1/o17rGoe9uiuIk93D5IQ9lAAAaFgAAAAAAACRJ6WU3q6b3sYVxIk9LKb1dN72MM5vZ9VxRWLQVwABoWNlk6+r62OpoXcIGhGeydfV9bHU0LuEDQjnSO6h8lwOyl9heRmbg6UUn7hO7yMP2PxcHSik/cJ3eRh+x5XDvnJvmv+YTuZHcw+vFgAAcY1AAAAAAAAAAAAAAAAAADoXKd04qX9HuUAGU7pxUv6PcoAfNMP+am/dFxZ6CR3UPkjZ2h0TonV0bukhRPpKv9Yo90jhaHROidXRu6SFE+kq/1ij3SOPtMHZl9eDPla0Q9eBXEi6Po1nrGn+9tCuJF0fRrPWNP97aGk3u4vJlouyyuAALljrnL9MZj5OJcR+6olC+UZDEJC3jQl2U44siRHYNaiInVqwIsCWoyxJKcTJSekrgK+kX7Vm4UbKexUW6vS26c2h23HaqUdMapERxFvKVFUyaSUeMxRyDI153zsweswFlFQsoqI8kXnRaNX8o9yJYYyj06tVdimxmEVeHWF0+TLNMht9lC3D+Ty4MnkOmbCjQSW3jb+bwhjsDydritSqXnlFiUPLy1fD51rheIFOpT3ANkwwnh0phstuYZ2LWKjNP6Iiwz85R97gJcVVQOKqoAABQqSJPSym9XTe9jCuJEnpZTerpvexhXGcHai8/wiq0sCRaHROidXRu6SK4kWh0TonV0bukg+8Xk/wAB9pFccapwGqrTZdLfPBqYw4ws+DQvBK0mk/muJUhXMfmUk0n+0jLmHJAaFj+WtXouTe263W7YJGS1mG1VnWqhCnUC0UuzVR3HG0qdN64ob7BqwQs0MMQ2yNPzWkpUvhO+41mWFSMnuSxLx3fT2JkeVVH5dtUaexR6Y1KhupJbqKOhMLMQ4tBGt9Tjim8eEdcQaln7PAauZU0c1s8rWFUbdoWWOy6PVcupUmpvUaoPaJPSqU0s1SZbbzMZbTjKpRLcQslmknCVi183BOcR+qQAUidSkTtASLo+jWesaf720K4kXR9Gs9Y0/wB7aGU3u4vJlIuyyuAALliRRPpKv9Yo90jiuJFE+kq/1ij3SOK4pL7Pq+LKw6Di1Jt9yOhMeWUdRPsKNZ/tSTqTUj+ZJGn+YcocGs8S4m38oZ/Bcbi5uZ5+E4dHB/5Z+bj/AIYjnCV2n1eT4ki0OidE6ujd0kVxItDonROro3dJFcVk93D5IiHso+UqO3LjOxHVOpQ8hTajadU2siMsDzVpMlJPn5jSZGXnIyMeL8oeSyuWHeNw1KJfF4UxqoPtM0p+qv3XKZeYShBIQ7Vo1xNMMtJdccwOaTC85ayQlZGnO9qgNoYnCaQxOE80XRSKjYcSyLXrWVukwZ8Sn1Gr1ViTUXprz7xQ3ErdKRWZUlaKealE0pK0nzuJwdbM808XkvUzk/yt0WmVy96hJfqtbOdCo9TRRYVQnFNiKbVOKO1EjSlZryXEmRKWlLKUYoLMLD2WAm3moTbzAAAUKEi6Po1nrGn+9tCuJF0fRrPWNP8Ae2hXFF3j8l+Sq7TJFodE6J1dG7pIriRaHROidXRu6SK4iT3cPkhD2UcWrPri0uZJRPiwVMsOOFKlpzmGMEmfCOFnIxQnzmWcnmI+cvOPBF+Jq1cbtFMLLEq4HJBTqs9DtQqlKnIbVJfzHmKXTa3GddhSEuLSTqGnnUJV86QpszUj+gIDeGKyaQxWTxZU6TUrbyeWXLkZU7fgMMG6wrOud5l5UpLrLyaYmDWW6i+6ppcdonG0zI60ESyzCwwPsnJ45bcO/KdEXQEQbFpcmWqxawVNKNFly5rmc601mJSTSEFnNsrMkokofLgzczTNXooAt1JcdQAAKFCRdH0az1jT/e2hXEi6Po1nrGn+9tCuKLvH5L8lV2mBwoDbCJVSU1LN5S5SVOoP/Uq4Foswv5SSr+cc0cKA4wuVUktRDZUiUlLqz/1yuBaPPL+U0p/kExaV14EvwOaAALEgSLQ6J0Tq6N3SRXEi0OidE6ujd0kZvvF5P8FX2kVx8Jc6FAS2udMYjpedQw2brhIJbizwQgsfOoz5iLzmY+46nyuVCt1qv0ihWYjjky05Dd01VhCSVntNEomYmOJZrr2Lho8+HBYnhiRjVKpdKrN9dl7WZYVMKtX1d1FtynKdJkpdWntQ2TcPEyRnuqSnOPA8Cxx5jGapHlCZA6/U41FoOXCwKlUZrqWY0SJcsJ559w+YkIQlw1KUf7CIsRsaHW6VctHh1+iTG5cCeyl9h5B8ykGX/wDR/sMj5yMjI+chl8mOOF24efSif/2Cc3iFTxOPWfKByDW5VZVCuHLbYNLqUJw2pMObckJh9hZedK21uEpJ/wCBliPq9l3yHxqDGuqRllsZqizH1xY9SXcUNMV59BYrbQ6bmYpaSMjNJHiWPOMFlNomX4n7dUvKZk/NldzRCioKxppKaUZrzDWr5WwcIi85ESMf2GnzD55YLTy71CwkMTsp9pLkFV4KT+TrVqENEhl19tpTDiSq+DiFcIZKStRoUkzLBJ4LKaIsoYcxunPKGyAs1BNIey5ZP25ylpbTFVc0InTUrDNSSOExxPEsCw58SHYBGRliR4kY8mRKJUJV6o0nm3DCyhuNOVJFPp90VeKhuMxKgoJEaA3L4BUT572ckm1oPNxMz5zP1mIiSWgiJJaAJFodE6J1dG7pIriRaHROidXRu6SMX3i8n+DN9pFcSJPSym9XTe9jCuJEnpZTerpvexgm9n1XFCLQVxkbmywZJLLTFXeOVK0aCmcbyYp1OtxopPm0rMdJHCLLOzFfNVhjmnzHgY0lWI1UuYkosqSZsOFwMR4mX3Pmn81tZrRmLPzErPTgeB5xeceM7aqeULJ9bpS7bpBUGJORWClVW4L+eXJocf5S5n33ZUOosNmS0m24RcK0R/pDWrOUpO8MNo0hhtHsS3Lmtu8KQxcFpXBTa3S5WPATqdLbkx3cDMjzXGzNKsDIyPA/OQ5cKdCqUZE2nTGJUdzHMdZcJaFYGZHgouY8DIy/yHjfKZZU25Mk1l1e47fs2TI4xNNqZXaxTJU2pypUhSyKLxy3JKHSfwJ0iaYjYJMsU5icSzfk45Jbls3K2xbXJvbDNxW024upS1RaYhVIbkJeKPLbcbtyI5KJWCkpSxOV/wCZK8wiNKZsZq1LYvNWp7lkV2iRJZwJVYgsySNkjZckIS5i6o0tFmmePz1JUlP/AKjSZFjgPvInwYjsdiXMYZdmOGzHQ44SVPOElSjSgj/WVmpUrAufBJn5iMed315T6TTb3td/JfZtxw6cXH6zW6lf8pmZUHMw3EOK4Kk4MPobbaWSGzShnFom1YERidlKta+a9W8lE5+4prrkSaqcc2VUahT23GjgyHW4r6YUhppx/wDRuEuRwRESTSRsqSpaFRZIsnpGdX6FTKjApFSrUCJOqqlogRX5KG3pakJzlk0gzI3DSnnMkkeBc5jnjzF5P1mXhZddt+NRGsl1Kh3JQEV2qPU6xHYtVmNJcQSWn5aZxE67+nNXDLZwxzj4Ms7m9OiIlQrEqMkUT6Sr/WKPdI4riRRPpKv9Yo90jiuMpfZ9XxZSHQSLX+jXusah726KMyZDp0R6fUJTMWLGbU68+8skNtISWKlKUfMkiIjMzPmITrX+jXusah726JeVoyLJbd5mZERUKcZmf/wLCTngh8kTBnSOdQb8sa6qfAq1r3nQqxBqrjjMCTAqLMhqW42SjcQ0tCjJxScxWcSTMyzTx8xjmVq5LdtqOUu4q9TqUwaXFk5NlIYQaW0GtZ4rMiwShKlH+4kmZ8xD+f2Vu6MlLjNAnXoqgXVCejyFU98naMtuRwtSUlyQ05VqlxZTa0ngvi8MnSzOaUykiUnsiDccOiU/JtcE6tvQLV0blQYjFAqlAg0xZxjUtthtJVGRLURIaSp1MSVJS7mNpcTgk0jkYs1cs9QWdlXyW5RJMiHk/wApVq3NIiIJ2Q1R6zGmrZQZ4EpaWlqNJGfNiY/dx5UsmVnMQpV3ZRbYobNScW1CcqVXjxkyVoPBSWzcWRLMj5jIscDHReS9q45s5ylVCo3EdUtazGaFc1ChrTHYW8SMYK4b6WkSG3HUKcWpTchKUYJJREosS4GTC1azatjTqTWauqpyY1p3G+5IXUp0tea6+hKM4pbzymzzmHS+YskKzTVmpM1EUWURZR6jfnwYsdEuTMYZYcUhCHHHCShSlqJKCIz5jNSlERF+0zIi84PToUaRHiSJjDT8tSkR2luElbykpNSiQR86jJJGZ4eYiMx468pmn3XeFct+bY8mtVUqfGiwCjUxmTFVBdTOjpeNT6a5TSc4RxTBEXBu4GyRk41+uW6yUNV07hsubXW5xvPzHEE7MaeS4pTdLebWlSnpcxS1JUk0qVxp7EyM888RFjNUWM1anpISJPSym9XTe9jCuJEnpZTerpvexhhN7PquKMotBXAAGhY2WTr6vrY6mhdwgaEZ7J19X1sdTQu4QNCOdI7qHyXA7KX2F5GZuDpRSfuE7vIw/Y/FwdKKT9wnd5GH7HlcO+cm+a/5hO5kdzD68WAABxjUAAAAAAAAAAAAAAAAAAOhcp3Tipf0e5QAZTunFS/o9ygB80w/5qb90XFnoJHdQ+SNnaHROidXRu6SFE+kq/1ij3SOFodE6J1dG7pIUT6Sr/WKPdI4+0wdmX14M+VrRD14FccSq01FVhnDXIeY/SNOpcazc9C23ErSZZxGX6yS85GOWODWqi9S4HGo8ZD7qnmGENrcNtJqddS2RmoiUZERrx8x+Yax0su1oLulM5xvkSpa31fsonwA+RKlrfV+yifADjN2ehKRtR3dw4zdnoSkbUd3cZfs/n/Ypm/nePkSpa31fsonwA+RKlrfV+yifADjN2ehKRtR3dw4zdnoSkbUd3cP2fz/ALDN/O8fIlS1vq/ZRPgB8iVLW+r9lE+AHGbs9CUjaju7hxm7PQlI2o7u4fs/n/YZv53j5EqWt9X7KJ8APkSpa31fsonwA4zdnoSkbUd3cOM3Z6EpG1Hd3D9n8/7DN/O8/cOhuR6iipyq1OnOtMuMNk+llKUpWpClH+jbSZni2nz4ioJESqVb5WapdUpkRjh4zshtyPMU9/o1NpMjJTaMMeFLnxPzGK40l2aOz+fyWhp4AQ4dsy4ERiDEuurtsRm0tNIzIp5qElgRYmzifMX7RcECm1i56pTotTj0KlpalsofQS6m4SiSpJKIjwYMscDFZliqtVr/ABX8ERUrnOR8iVLW+r9lE+AHyJUtb6v2UT4AcZuz0JSNqO7uHGbs9CUjaju7iv7P5/2IzfzvHyJUtb6v2UT4AfIlS1vq/ZRPgBxm7PQlI2o7u4cZuz0JSNqO7uH7P5/2Gb+d4+RKlrfV+yifAD5EqWt9X7KJ8AOM3Z6EpG1Hd3DjN2ehKRtR3dw/Z/P+wzfzvHyJUtb6v2UT4A/LluyJBtJmXLVJDTTzT/BLRGSlSm1pWkjNLRKwzkl5jIfrjN2ehKRtR3dx8pNWuGATL06jU4mHJLEdamqita08K6lsjJJspI8DWR4Yl5hDxdM9f9h+3xrvLgAA5BoSKJ9JV/rFHukcVxIon0lX+sUe6RxXFJfZ9XxZWHQcWpOPtx0KjxCkKN9hJoP9iTdSSl/ypM1fyjlDi1Jt9yOhMeWUdRPsKNZ/tSTqTUj+ZJGn+YcoW/yJ8SHDtmXAiMQYl11dtiM2lppGZFPNQksCLE2cT5i/aPr8iVLW+r9lE+AOPTaxc9Up0Wpx6FS0tS2UPoJdTcJRJUklER4MGWOBjkcZuz0JSNqO7uOPDi6KzWn/ANiis0zV3j5EqWt9X7KJ8APkSpa31fsonwA4zdnoSkbUd3cOM3Z6EpG1Hd3Fv2fz/sM387x8iVLW+r9lE+AHyJUtb6v2UT4AcZuz0JSNqO7uHGbs9CUjaju7h+z+f9hm/nePkSpa31fsonwA+RKlrfV+yifADjN2ehKRtR3dw4zdnoSkbUd3cP2fz/sM387z8uW7IkG0mZctUkNNPNP8EtEZKVKbWlaSM0tErDOSXmMhZEOTVrhgEy9Oo1OJhySxHWpqorWtPCupbIySbKSPA1keGJeYXBeXZq7NfWv5LQ08CHDtmXAiMQYl11dtiM2lppGZFPNQksCLE2cT5i/aPr8iVLW+r9lE+AOPTaxc9Up0Wpx6FS0tS2UPoJdTcJRJUklER4MGWOBjkcZuz0JSNqO7uMocXRWa0/8AsVVmmau8fIlS1vq/ZRPgB8iVLW+r9lE+AHGbs9CUjaju7hxm7PQlI2o7u4t+z+f9hm/nePkSpa31fsonwA+RKlrfV+yifADjN2ehKRtR3dw4zdnoSkbUd3cP2fz/ALDN/O8fIlS1vq/ZRPgB8iVLW+r9lE+AHGbs9CUjaju7hxm7PQlI2o7u4fs/n/YZv53n5ct2RINpMy5apIaaeaf4JaIyUqU2tK0kZpaJWGckvMZCyIcmrXDAJl6dRqcTDkliOtTVRWtaeFdS2Rkk2UkeBrI8MS8wuC8uzV2a+tfyWhp4AceLx3h5nG8zguGLi2b5+D4NGOP+Ofwn+WA5A4UBthEqpKalm8pcpKnUH/qVcC0WYX8pJV/OLPSiWc0AAWJAkWh0TonV0bukiuJFodE6J1dG7pIzfeLyf4KvtIriTbdqW/aMWREt+nJjJlyXJkpxTi3XZD6zxU666szW4s+Ys5SjPAkkXMREVYBqWMVWcj1kVpyU6orgpZzZXHZCaFc1TpCXXzTgpxSYchojUrzqPD5xkRqxMiMR6X5O2TmjSeN02o3+ys5PG1lyi3CpDr2JGanEKmmlwzwLHOI8fMeJDs0AqybTvOFVKLTKzxT5SjcNxGU3Nj/PUnMeRjmq+aZY4YnzHiX+A4dw2hRLpfpj9aTOc+SZaJsdtioyY7SnUmRpN5tpxKH0kZEokuktJGRGRYliLIBUiplWcl1hswZEArebc43MTUX5LzzrsxyUn9R85K1G8biC+ahefihJElJkkiItUABUVAkWh0TonV0bukiuJFodE6J1dG7pIyfeLyf4KvtIriRJ6WU3q6b3sYVxIk9LKb1dN72ME3s+q4oRaCo+yiQw5HcNZJdQaFGhakKIjLDmUkyNJ/4kZGX7BhHchOSuVBp1LqVsuVOBTIz8REOpVGVMjyWnnCccKW084pEwzcLPJUgnFEr5xGR843wDWrRZNoxzuSHJ47RZVBKgLaiymDi57M2Q1IjxzWlZMR5CFk7GZSpKTQ0ytCEYFmkkctGTLJ00xS47VjUJCaI85JpikwGiXBfcx4R5heGc06ozM1OJMlGZmZniY0wBVirMPUsi+T+qUCLbD0Krx6ZGccdWxBr9Qh8cW5/pFS1MPoVMNfOa+HNzPMzNWJmeNy4rJte64EamV6lJkxYhr4FonVtpSS2VsqL5iixI23VpwPmwV+/AXACrFWT0UGkN1ZmuNwkomx4aoDS0qURIjqUlRoJBHm4YoTz4Ylhh5hQABAJFE+kq/wBYo90jiuJFE+kq/wBYo90jiuKS+z6viysOgkWv9GvdY1D3t0cyrUqBXKXMotUY4eFPYcjSGs5Sc9taTSpOKTIyxIz5yMjHDtf6Ne6xqHvboriJPdw+SEHZRPqdv0isUxuj1GJw0Npxh1DfCKTgplaXGzxIyPmUhJ+fnw58SxHDrVj2lcLzsmrUGK9If4uT0hKeDedSw4bjKFuIwUpCHDNSUmZpIzM8OcXAGtS1TK0rJbYNDlUyfR7ajw5lJN448tla0SF8LzvcM6Ss+Rwivnr4U156yStWKyJRcqBYNpUyNU4kOkElqstGxNJT7izdbMl/MxUozSn9I4eCcCxWo/OZmNAAVYqzJQclFgQbabtIqAUumo/WKfKemPulwxPGTr761uukbhEoyWtRHhgeJcw+lOyYWTR65Ta9SaQ7CcosH5NpsKPNkN06ExhhgzBSsora80zTwiWiXmnm52bzDUgFWKsCRJ6WU3q6b3sYVxIk9LKb1dN72MMpvZ9VxRWLQVwABoWNlk6+r62OpoXcIGhGeydfV9bHU0LuEDQjnSO6h8lwOyl9heRmbg6UUn7hO7yMP2PxcHSik/cJ3eRh+x5XDvnJvmv+YTuZHcw+vFgAAcY1AAAAAAAAAAAAAAAAAADoXKd04qX9HuUAGU7pxUv6PcoAfNMP+am/dFxZ6CR3UPkjZ2h0TonV0bukhRPpKv8AWKPdI4Wh0TonV0bukhRPpKv9Yo90jj7TB2ZfXgz5WtEPXgVxIuj6NZ6xp/vbQriRdH0az1jT/e2hpN7uLyZaLssrgAC5Y4tUqUSjUyXV57nBxoTC5Dy//ShCTUo//wCCMT4N1RJk6lU1cCdFk1amuVNDT6EpUyhBtEpDmCjwWRvJ5ixLmVz+bHIeURS51VyS1puHXJVMTGJuXIOMhJrkNNrJRsGaiPNQsySSjIsTTnJLAzzi6cufIFk2rmUuBlBLyf7UdeVTqlPTQJFvwkrqLJSIxOOPtqQSVSnCcWtBunig8xJmg1Oi8MKazloYU1nO36vl1gW9ctct+v2BdVPYoccpB1Rw4DkWXnE4bSWSblKeznCZdMuEaQRZh5xpxTjZsLKRLvmp1ymvZO7lt0qFJKI7IqrtPU2+7mpXmt8VlPK/UWhWKkpLBRFjiRkXnq7qLatfyh3CmgxcoVLmVeNTI1OZqdLrrVMfdNEhtxhpMokw2yaQ825g3hmpbdzCw4QdheTtcVqVS88osSh5eWr4fOtcLxAp1Ke4BsmGE8OlMNltzDOxaxUZp/REWGfnKOXCqVLOFUqd7gADMzJEnpZTerpvexhXEiT0spvV03vYwrjODtRef4RVaWBItDonROro3dJFcSLQ6J0Tq6N3SQfeLyf4D7SI165Xsm2TytUO3rzvSi0ioXDI4CDHm1GPHcX81RkvNcWlRoNSSRikj+etCf2ji2RlVTelZdpKrDuShtHGdmQZtSVBUxUGG3SbUtoo8l1xPOpJ4OobPBRc2OJFm8uNKZcr1m3NXK/MpdJoFReltrgSXGXkvlClKU4rD5riSShJE2olJVnrJSVFgQktXA1k8qWT+l11tpuq1qhKprNPclkw+6+9KiqeQ1m4qWtps3HDSjnwbPnL9Yt6KhqkqGkr/lJ5KbWp06qXNUKzQo8BxLRu16gzqKy+4peaSGHp7TDL6vOrNbWo81JqLmLEbq17utS96Q3cFl3PSa/S3VqQ3Opc1uVHWpJ4KInG1GkzI+Yyx5jHluiMtIqSKQumZTokK5GSktzrur1ZXGhRWJpOz0usVGWrgyZYQyknnGGzUpZm244leKeyLcyiQKhQqtT8nFTj1qs3lW6m/RXYaikRm4vC8EqoLcbM0cXQaTUSs4uEURITio+aXCvAOFeB27a1yQLuoUa4aWh5MSWbnBcKSSUokrUjO+aZlgebiXP5jLHA+YdHXH5bmTC2q/VbdmUiQb9ImvwXjduu14SlONLNCjJiXVmn0kZpPDPbSZlgZFgZDZ2cqm5ETZydVqUuLbSzI6BVZbh8CS1FnOxHnVH8xzPJa0GsyJaXM1JmaDIdS0dNl3AmlVqBPypXjTXWZUu5K5a1+XDMhRHDUrgkx+JTuCkHnJWlTEJDy2/mZzaEniCS8QkvE9MWpccG8LYpN10xp5qJWITM5hDxJJxLbiCWklZpqTjgZY4GZfuMx+bo+jWesaf720IGRqoRp2T2nNx6vIqKoSnojq5c1yVLaUhxWa1IW6pTxPJQaCWl0+EI+ZeCsRfuj6NZ6xp/vbQwndiLyZnHmTK4AAuSSKJ9JV/rFHukcVxIon0lX+sUe6RxXFJfZ9XxZWHQcGs8S4m38oZ/Bcbi5uZ5+E4dHB/5Z+bj/hiOcOLUnH246FR4hSFG+wk0H+xJupJS/wCVJmr+UcoSu0+ryfEkWh0TonV0bukiuJFodE6J1dG7pIrisnu4fJEQ9lHylSo0KM7MmSGmI7CFOuuurJCG0JLFSlKPmIiIjMzPzDqtnylLFr9NRUMmUOVlEWcyXEdj2xUqW8uOUfHOdcU9LabJCiIlI+ealJUkyThjh2lOKYcKQVONkpfBL4A3seDJzA83Ow583HDHDnwHQOSu2WqRVZNGp9WqtRVTDuKbP41JU+hp9+c403mZ5mbfC8G8o20nmlweJJTnGatoUvE0hSpnO1qtlRtyh2/R7kqFNuZ2NW2G5Edul23UKs6hK0EsidRBZeNvmUXOrAjPEiMxJt7yhcjNz3fIsKl5RaB8vsrbaRTnqkw1LfdUg1m0iOpZPcIgiMloUglIMjIy5jHTNTuOLlIsa1mrUhXxU3qXDdgwJFnV6psQ5z8eCyamJLsKRHjtHw6zRjIeThxdxKVpWvNFe0q9bdUmWvwNSehzrnr1NmUek1SoLkVV2mQoiknJcS+4qQ4g3Eu4urNRmSkmZniQtZVC1lUPSgAAzMyRdH0az1jT/e2hXEi6Po1nrGn+9tCuKLvH5L8lV2mSLQ6J0Tq6N3SRXEi0OidE6ujd0kVxEnu4fJCHso+UqVGgxXpsx9tiPHbU6664skIQhJYqUpR8xEREZmZ8xDzbN8vnJFDnJgppqpHCOLQ28zetoKaWScTzjUdZLMIyLmz80zxwwx5h6RmzYlOhv1CoSmY0aM2p5555wkIbQksVKUozIkkREZmZngQ/mXcmUSmt3iw5R8qzZwjqdRkRzbvxhCWkOm4siImL4aabL52BZiIxH/6efMHIlwqLSbS4VFpPeFK8oXJlVbMpV6N3BTkMVd9cZmMis06UtLrZZzxKdjSHI+DTZG44onjShBYmeOBD9WPl9sPKO8pyzSqNQpSKg9TDrfAJapjjyFmhHASXFJRLJxaTSnixumR8yyRiQ6boVz2RMyaZMEUzK5TKPPKTJivVaDLolSrLptNPKUzES67U+HdN1xsjQy5IeMnOdRqUox+8m9n2xAy6UK6bki1d656qxOdfk3bZlGhyTkZqeLLj1KNTIynn1ME6amkPLcQjOJxCTSeCyhZWc9UgADMzJF0fRrPWNP8Ae2hXEi6Po1nrGn+9tCuKLvH5L8lV2mBwoDjC5VSS1ENlSJSUurP/AFyuBaPPL+U0p/kHNHHi8d4eZxvM4Lhi4tm+fg+DRjj/AI5/Cf5YCXpRLOQAALEgSLQ6J0Tq6N3SRXEi0OidE6ujd0kZvvF5P8FX2kVwABoWAAAAAAAAAAAAkWh0TonV0bukiuJFodE6J1dG7pIzfeLyf4KvtIriRJ6WU3q6b3sYVxIk9LKb1dN72ME3s+q4oRaCuAANCwAAAAAAAAAABIon0lX+sUe6RxXEiifSVf6xR7pHFcUl9n1fFlYdBItf6Ne6xqHvboriRa/0a91jUPe3RXESe7h8kIeygAANCwAAAAAAABIk9LKb1dN72MK4kSellN6um97GGc3s+q4orFoK4AA0LGyydfV9bHU0LuEDQjPZOvq+tjqaF3CBoRzpHdQ+S4HZS+wvIzNwdKKT9wnd5GH7H4uDpRSfuE7vIw/Y8rh3zk3zX/MJ3MjuYfXiwAAOMagAAAAAAAAAAAAAAAAAB0LlO6cVL+j3KADKd04qX9HuUAPmmH/NTfui4s9BI7qHyRs7Q6J0Tq6N3SQon0lX+sUe6RwtDonROro3dJCifSVf6xR7pHH2mDsy+vBnytaIevAriRdH0az1jT/e2hXHEqtNRVYZw1yHmP0jTqXGs3PQttxK0mWcRl+skvORjWYnFA0ri0SqmjlgJHyJUtb6v2UT4AfIlS1vq/ZRPgCtuLVe7mKu4rgJHyJUtb6v2UT4AfIlS1vq/ZRPgBbi1Xu5iruK4CR8iVLW+r9lE+AHyJUtb6v2UT4AW4tV7uYq7iuAkfIlS1vq/ZRPgB8iVLW+r9lE+AFuLVe7mKu4SellN6um97GFcS4dDcj1FFTlVqdOdaZcYbJ9LKUpStSFKP8ARtpMzxbT58RUEwJ521pf4QXiBItDonROro3dJFcQ4dsy4ERiDEuurtsRm0tNIzIp5qElgRYmzifMX7REVVGokq6fwHWtS4AkfIlS1vq/ZRPgB8iVLW+r9lE+AFuLVe7mKu4rgJHyJUtb6v2UT4AfIlS1vq/ZRPgBbi1Xu5iruK4CR8iVLW+r9lE+AHyJUtb6v2UT4AW4tV7uYq7iuJF0fRrPWNP97aD5EqWt9X7KJ8Afly3ZEg2kzLlqkhpp5p/glojJSpTa0rSRmlolYZyS8xkKxuKKFwqF5/LmQ22qULIAA2LkiifSVf6xR7pHFcSKJ9JV/rFHukcVxSX2fV8WVh0HFqTb7kdCY8so6ifYUaz/AGpJ1JqR/MkjT/MOUODWeJcTb+UM/guNxc3M8/CcOjg/8s/Nx/wxHOErtPq8nxJFodE6J1dG7pIriHDtmXAiMQYl11dtiM2lppGZFPNQksCLE2cT5i/aPr8iVLW+r9lE+AM5bihhULheby5lU2lShXASPkSpa31fsonwA+RKlrfV+yifAFrcWq93MmruK4CR8iVLW+r9lE+AHyJUtb6v2UT4AW4tV7uYq7iuAkfIlS1vq/ZRPgB8iVLW+r9lE+AFuLVe7mKu4XR9Gs9Y0/3toVxGct2RINpMy5apIaaeaf4JaIyUqU2tK0kZpaJWGckvMZCyENXE4mqaPyFWtSRaHROidXRu6SK4hw7ZlwIjEGJddXbYjNpaaRmRTzUJLAixNnE+Yv2j6/IlS1vq/ZRPgCstxQwqFwvN5cyE2lShXASPkSpa31fsonwA+RKlrfV+yifAFrcWq93MmruK4CR8iVLW+r9lE+AHyJUtb6v2UT4AW4tV7uYq7iuAkfIlS1vq/ZRPgB8iVLW+r9lE+AFuLVe7mKu4XR9Gs9Y0/wB7aFcRnLdkSDaTMuWqSGmnmn+CWiMlKlNrStJGaWiVhnJLzGQshDVxOJqmj8hVrUDhQG2ESqkpqWbylykqdQf+pVwLRZhfyklX845o4UBxhcqpJaiGypEpKXVn/rlcC0eeX8ppT/ILRaV14EvwOaAALEgSLQ6J0Tq6N3SRXEi0OidE6ujd0kZvvF5P8FX2kVwABoWAAAAAAAAAAAAkWh0TonV0bukiuJFodE6J1dG7pIzfeLyf4KvtIriRJ6WU3q6b3sYVxIk9LKb1dN72ME3s+q4oRaCuAANCwAAAAAAAAAABIon0lX+sUe6RxXEiifSVf6xR7pHFcUl9n1fFlYdBItf6Ne6xqHvboriRa/0a91jUPe3RXESe7h8kIeygAANCwAAAAAAABIk9LKb1dN72MK4kSellN6um97GGc3s+q4orFoK4AA0LGyydfV9bHU0LuEDQjPZOvq+tjqaF3CBoRzpHdQ+S4HZS+wvIzNwdKKT9wnd5GH7H4uDpRSfuE7vIw/Y8rh3zk3zX/MJ3MjuYfXiwAAOMagAAAAAAAAAAAAAAAAAB0LlO6cVL+j3KADKd04qX9HuUAPmmH/NTfui4s9BI7qHyRs7Q6J0Tq6N3SR8kR7hgVGpPQYFOksTpKZCFOzVtLTgy22ZGkmlF52zPHH9oztuZTLIgW9S4Mut8G/GhMNOo4s8eatKCIyxJGB85fsFHlXsD0/8AlX/APscGESHLhTmJNU8VcfKVHA0v3FbjN2ehKRtR3dw4zdnoSkbUd3cSeVewPT/5V/wByr2B6f8Ayr/gFsok/VW2Em3BrcCtxm7PQlI2o7u4cZuz0JSNqO7uJPKvYHp/8q/4A5V7A9P/AJV/wBlEn6q2wi3BrcCtxm7PQlI2o7u4cZuz0JSNqO7uJPKvYHp/8q/4A5V7A9P/AJV/wBlEn6q2wi3BrcCtxm7PQlI2o7u4cZuz0JSNqO7uJPKvYHp/8q/4A5V7A9P/AJV/wBlEn6q2wi3BrcCtxm7PQlI2o7u4cZuz0JSNqO7uJPKvYHp/8q/4A5V7A9P/AJV/wBlEn6q2wi3BrcCtxm7PQlI2o7u4cZuz0JSNqO7uJPKvYHp/8q/4A5V7A9P/AJV/wBlEn6q2wi3BrcCtxm7PQlI2o7u4cZuz0JSNqO7uJPKvYHp/8q/4A5V7A9P/AJV/wBlEn6q2wi3BrcCtxm7PQlI2o7u4cZuz0JSNqO7uJPKvYHp/8q/4A5V7A9P/AJV/wBlEn6q2wi3BrcCtxm7PQlI2o7u4cZuz0JSNqO7uJPKvYHp/8q/4A5V7A9P/AJV/wBlEn6q2wi3BrcCtxm7PQlI2o7u4cZuz0JSNqO7uJPKvYHp/8q/4A5V7A9P/AJV/wBlEn6q2wi3BrcCtxm7PQlI2o7u4cZuz0JSNqO7uJPKvYHp/8q/4A5V7A9P/AJV/wBlEn6q2wi3BrcCtxm7PQlI2o7u4cZuz0JSNqO7uJPKvYHp/8q/4A5V7A9P/AJV/wBlEn6q2wi3BrcCzQ4dRjuVGVU2ozTs6WT5NsPKdSlJMtN4ZykpMzxbM/N+0VBkuVewPT/5V/wAAcq9gen/yr/gFocJweFUxi2olTIF/ktppZ5SlRVcSYjvPEpKkIfUaUHgoj5zIjMj5uY8DwPAflxypk+wlqHFUyov061SVEpB/7qcwyX/maRnOVewPT/5V/wAAcq9gen/yr/gB4TIbrjFtQxkGsjRtuVM330uw4qWUl+gWmSo1LP8A3k5hEj/I1D58NXOJcJ8nQeOZ2HBcdXweb+/hOCxx/wAM3/MQOVewPT/5V/wByr2B6f8Ayr/gDKZH1FtRGMg1uBo3HKmT7CWocVTKi/TrVJUSkH/upzDJf+ZpBtypm++l2HFSykv0C0yVGpZ/7ycwiR/kahnOVewPT/5V/wAAcq9gen/yr/gDKZH1FtROMg1uBf4aucS4T5Og8czsOC46vg839/CcFjj/AIZv+Y+jjlTJ9hLUOKplRfp1qkqJSD/3U5hkv/M0jOcq9gen/wAq/wCAOVewPT/5V/wBlMj6i2ojGQa3A0bblTN99LsOKllJfoFpkqNSz/3k5hEj/I1D58NXOJcJ8nQeOZ2HBcdXweb+/hOCxx/wzf8AMQOVewPT/wCVf8Acq9gen/yr/gDKZH1FtQxkGtwNG45UyfYS1DiqZUX6dapKiUg/91OYZL/zNINuVM330uw4qWUl+gWmSo1LP/eTmESP8jUM5yr2B6f/ACr/AIA5V7A9P/lX/AGUyPqLaicZBrcC/wANXOJcJ8nQeOZ2HBcdXweb+/hOCxx/wzf8x9HHKmT7CWocVTKi/TrVJUSkH/upzDJf+ZpGc5V7A9P/AJV/wByr2B6f/Kv+AMpkfUW1EYyDW4GjbcqZvvpdhxUspL9AtMlRqWf+8nMIkf5GofPhq5xLhPk6DxzOw4Ljq+Dzf38JwWOP+Gb/AJiByr2B6f8Ayr/gDlXsD0/+Vf8AAGUyPqLahjINbgaNxypk+wlqHFUyov061SVEpB/7qcwyX/maQbcqZvvpdhxUspL9AtMlRqWf+8nMIkf5GoZzlXsD0/8AlX/AHKvYHp/8q/4AymR9RbUTjINbgX+GrnEuE+ToPHM7DguOr4PN/fwnBY4/4Zv+Y+jjlTJ9hLUOKplRfp1qkqJSD/3U5hkv/M0jOcq9gen/AMq/4A5V7A9P/lX/AABlMj6i2ojGQa3A0bblTN99LsOKllJfoFpkqNSz/wB5OYRI/wAjUPnw1c4lwnydB45nYcFx1fB5v7+E4LHH/DN/zEDlXsD0/wDlX/AHKvYHp/8AKv8AgDKZH1FtQxkGtwNG45UyfYS1DiqZUX6dapKiUg/91OYZL/zNI/UUpxOSTmKaNCnsY5IxM0tZqSwUeBc+cSj/APYyL9gzXKvYHp/8q/4A5V7A9P8A5V/wBlMiveLaicZBrbzWgMlyr2B6f/Kv+AOVewPT/wCVf8AtleD662oY2C9GtGdo7N2UqkwqX8lUh3icZuPwnyk6nPzEknHDgDwxw82I4nKvYHp/8q/4A5V7A9P/AJV/wCkWESImmpiXqiHHA89rgVuM3Z6EpG1Hd3DjN2ehKRtR3dxJ5V7A9P8A5V/wByr2B6f/ACr/AIBGUSfqrbCLcGtwK3Gbs9CUjaju7hxm7PQlI2o7u4k8q9gen/yr/gDlXsD0/wDlX/AGUSfqrbCLcGtwK3Gbs9CUjaju7hxm7PQlI2o7u4k8q9gen/yr/gDlXsD0/wDlX/AGUSfqrbCLcGtwK3Gbs9CUjaju7hxm7PQlI2o7u4k8q9gen/yr/gDlXsD0/wDlX/AGUSfqrbCLcGtwK3Gbs9CUjaju7jk0KC9S6HTqZIUhTsSIyws0GZpNSUEkzLHA8MSEDlXsD0/+Vf8AAHKvYHp/8q/4AWESE6uYn6oKOCtbXA1okVSJVvlaFVKXHiP8BGkR3G5EhTP+kU0ojI0oXjhwR82BechJ5V7A9P8A5V/wByr2B6f/ACr/AIBaLCcHiVMYtqDmQP8AyRW4zdnoSkbUd3cOM3Z6EpG1Hd3EnlXsD0/+Vf8AAHKvYHp/8q/4BXKJP1VthFuDW4FbjN2ehKRtR3dw4zdnoSkbUd3cSeVewPT/AOVf8Acq9gen/wAq/wCAMok/VW2EW4NbgVuM3Z6EpG1Hd3DjN2ehKRtR3dxJ5V7A9P8A5V/wByr2B6f/ACr/AIAyiT9VbYRbg1uBW4zdnoSkbUd3cOM3Z6EpG1Hd3EnlXsD0/wDlX/AHKvYHp/8AKv8AgDKJP1VthFuDW4Fmhw6jHcqMqptRmnZ0snybYeU6lKSZabwzlJSZni2Z+b9oqDJcq9gen/yr/gDlXsD0/wDlX/ALQ4Tg8KpjFtRKmQL/ACW050Fi56W29Fj02lvtKlyX0OLqDjajS68twiNJMqIjIl4ec/MORxm7PQlI2o7u4k8q9gen/wAq/wCAOVewPT/5V/wCinyIVRTVthK24F/lwK3Gbs9CUjaju7hxm7PQlI2o7u4k8q9gen/yr/gDlXsD0/8AlX/AJyiT9VbYSbcGtwK3Gbs9CUjaju7hxm7PQlI2o7u4k8q9gen/AMq/4A5V7A9P/lX/AABlEn6q2wi3BrcCtxm7PQlI2o7u4cZuz0JSNqO7uJPKvYHp/wDKv+AOVewPT/5V/wAAZRJ+qtsItwa3ArcZuz0JSNqO7uPzFi1yRXI9TqcSDHajxH2CJiWt5SlOLaVj85tBERE0f7/OJfKvYHp/8q/4A5V7A9P/AJV/wBj5D0zU/VC3B4xcDWgMlyr2B6f/ACr/AIA5V7A9P/lX/ANMrwfXW1E42C9Hb+Tr6vrY6mhdwgaEZ7J19X1sdTQu4QNCO1kd1D5LgdtL7C8jM3B0opP3Cd3kYfsTb6rtKt6vUebWJXF2VxJrSVZil4qNccyLBJGfmIxI5TrH9N/lnvAPG/qWFSJWGzYZkaTqtLS/xhO9weXHFJhcKb08WakBluU6x/Tf5Z7wBynWP6b/ACz3gHDy/Bfqw/8ApczXEzdV7DUgMtynWP6b/LPeAOU6x/Tf5Z7wBl+C/Vh/9LmMTN1XsNSAy3KdY/pv8s94A5TrH9N/lnvAGX4L9WH/ANLmMTN1XsNSAy3KdY/pv8s94A5TrH9N/lnvAGX4L9WH/wBLmMTN1XsNSAy3KdY/pv8ALPeAOU6x/Tf5Z7wBl+C/Vh/9LmMTN1XsNSAy3KdY/pv8s94A5TrH9N/lnvAGX4L9WH/0uYxM3Vew6uyndOKl/R7lADi33VINZuqdUqa/w0Z7gsxeaaccG0pPmURH5yMB8+w2JR4TMihdU4nxO9kpqXCncj//2Q==;" parent="1" vertex="1">
          <mxGeometry width="851" height="671" as="geometry" />
        </mxCell>
        <mxCell id="qw4hLny3piVHDbjd1891-2" value="" style="rounded=0;whiteSpace=wrap;html=1;fillColor=#f8cecc;strokeColor=#b85450;" parent="1" vertex="1">
          <mxGeometry x="230" y="170" width="130" height="40" as="geometry" />
        </mxCell>
        <mxCell id="qw4hLny3piVHDbjd1891-3" value="推荐草稿" style="text;html=1;strokeColor=none;fillColor=none;align=center;verticalAlign=middle;whiteSpace=wrap;rounded=0;fontStyle=1" parent="1" vertex="1">
          <mxGeometry x="260" y="175" width="60" height="30" as="geometry" />
        </mxCell>
        <mxCell id="qw4hLny3piVHDbjd1891-5" value="" style="rounded=0;whiteSpace=wrap;html=1;fillColor=#d5e8d4;strokeColor=none;strokeWidth=0;" parent="1" vertex="1">
          <mxGeometry x="10" y="520" width="100" height="20" as="geometry" />
        </mxCell>
        <mxCell id="qw4hLny3piVHDbjd1891-6" value="基础支撑层" style="text;html=1;strokeColor=none;fillColor=none;align=center;verticalAlign=middle;whiteSpace=wrap;rounded=0;fontStyle=1" parent="1" vertex="1">
          <mxGeometry x="10" y="520" width="70" height="30" as="geometry" />
        </mxCell>
        <mxCell id="qw4hLny3piVHDbjd1891-7" value="" style="rounded=0;whiteSpace=wrap;html=1;fillColor=#fff2cc;strokeColor=#d6b656;strokeWidth=0;" parent="1" vertex="1">
          <mxGeometry x="750" y="20" width="50" height="20" as="geometry" />
        </mxCell>
        <mxCell id="qw4hLny3piVHDbjd1891-8" value="通用模块" style="text;html=1;strokeColor=none;fillColor=none;align=center;verticalAlign=middle;whiteSpace=wrap;rounded=0;fontStyle=1" parent="1" vertex="1">
          <mxGeometry x="750" y="20" width="50" height="20" as="geometry" />
        </mxCell>
        <mxCell id="qw4hLny3piVHDbjd1891-9" value="" style="rounded=0;whiteSpace=wrap;html=1;fillColor=#f8cecc;strokeColor=none;strokeWidth=0;" parent="1" vertex="1">
          <mxGeometry x="10" y="100" width="80" height="20" as="geometry" />
        </mxCell>
        <mxCell id="qw4hLny3piVHDbjd1891-10" value="&lt;b&gt;核心层&lt;/b&gt;" style="text;html=1;strokeColor=none;fillColor=none;align=center;verticalAlign=middle;whiteSpace=wrap;rounded=0;" parent="1" vertex="1">
          <mxGeometry y="100" width="60" height="30" as="geometry" />
        </mxCell>
        <mxCell id="qw4hLny3piVHDbjd1891-12" value="" style="rounded=0;whiteSpace=wrap;html=1;fillColor=#e1d5e7;strokeColor=none;strokeWidth=0;" parent="1" vertex="1">
          <mxGeometry x="210" y="330" width="120" height="25" as="geometry" />
        </mxCell>
        <mxCell id="qw4hLny3piVHDbjd1891-13" value="预处理" style="text;html=1;strokeColor=none;fillColor=none;align=center;verticalAlign=middle;whiteSpace=wrap;rounded=0;fontStyle=1" parent="1" vertex="1">
          <mxGeometry x="210" y="330" width="120" height="30" as="geometry" />
        </mxCell>
      </root>
    </mxGraphModel>
  </diagram>
</mxfile>
